ISO-10303-21;
HEADER;
/* Generated by software containing ST-Developer
 * from STEP Tools, Inc. (www.steptools.com) 
 */
/* OPTION: using custom renumber hook */

FILE_DESCRIPTION(
/* description */ ('STEP AP242 Edition 2',
'CAx-IF Rec.Pracs.---Representation and Presentation of Product Manufa
cturing Information (PMI)---4.0---2014-10-13',
'CAx-IF Rec.Pracs.---3D Tessellated Geometry---0.4---2014-09-14','2;1',
'CAx-IF Rec.Pracs.---User Defined Attributes---1.5---2016-08-15'),
/* implementation_level */ '2;1');

FILE_NAME(
/* name */ 'Assembly 1 - Part 1',
/* time_stamp */ '2026-09-06T10:38:51Z',
/* author */ (''),
/* organization */ (''),
/* preprocessor_version */ 'ST-DEVELOPER v20',
/* originating_system */ 'ONSHAPE BY PTC INC, 1.220',
/* authorisation */ '  ');

FILE_SCHEMA (('AP242_MANAGED_MODEL_BASED_3D_ENGINEERING_MIM_LF { 1 0 10303 442 3 1 4 }'));
ENDSEC;

DATA;
#10=SHAPE_REPRESENTATION_RELATIONSHIP('','',#1265,#11);
#11=ADVANCED_BREP_SHAPE_REPRESENTATION('',(#1263),#2015);
#12=CYLINDRICAL_SURFACE('',#1289,0.0023);
#13=CYLINDRICAL_SURFACE('',#1297,0.0023);
#14=CYLINDRICAL_SURFACE('',#1303,0.0023);
#15=CYLINDRICAL_SURFACE('',#1311,0.0023);
#16=CYLINDRICAL_SURFACE('',#1324,0.0023);
#17=CYLINDRICAL_SURFACE('',#1327,0.0023);
#18=CYLINDRICAL_SURFACE('',#1330,0.0023);
#19=CYLINDRICAL_SURFACE('',#1333,0.0023);
#20=CIRCLE('',#1275,0.0023);
#21=CIRCLE('',#1276,0.0023);
#22=CIRCLE('',#1277,0.0023);
#23=CIRCLE('',#1278,0.0023);
#24=CIRCLE('',#1290,0.0023);
#25=CIRCLE('',#1291,0.0023);
#26=CIRCLE('',#1298,0.0023);
#27=CIRCLE('',#1299,0.0023);
#28=CIRCLE('',#1304,0.0023);
#29=CIRCLE('',#1305,0.0023);
#30=CIRCLE('',#1312,0.0023);
#31=CIRCLE('',#1313,0.0023);
#32=CIRCLE('',#1325,0.0023);
#33=CIRCLE('',#1328,0.0023);
#34=CIRCLE('',#1331,0.0023);
#35=CIRCLE('',#1334,0.0023);
#36=ORIENTED_EDGE('',*,*,#368,.T.);
#37=ORIENTED_EDGE('',*,*,#369,.F.);
#38=ORIENTED_EDGE('',*,*,#370,.F.);
#39=ORIENTED_EDGE('',*,*,#371,.F.);
#40=ORIENTED_EDGE('',*,*,#372,.F.);
#41=ORIENTED_EDGE('',*,*,#373,.T.);
#42=ORIENTED_EDGE('',*,*,#374,.T.);
#43=ORIENTED_EDGE('',*,*,#375,.F.);
#44=ORIENTED_EDGE('',*,*,#376,.F.);
#45=ORIENTED_EDGE('',*,*,#377,.T.);
#46=ORIENTED_EDGE('',*,*,#378,.T.);
#47=ORIENTED_EDGE('',*,*,#379,.F.);
#48=ORIENTED_EDGE('',*,*,#380,.F.);
#49=ORIENTED_EDGE('',*,*,#381,.T.);
#50=ORIENTED_EDGE('',*,*,#382,.T.);
#51=ORIENTED_EDGE('',*,*,#383,.F.);
#52=ORIENTED_EDGE('',*,*,#384,.F.);
#53=ORIENTED_EDGE('',*,*,#385,.T.);
#54=ORIENTED_EDGE('',*,*,#386,.T.);
#55=ORIENTED_EDGE('',*,*,#387,.F.);
#56=ORIENTED_EDGE('',*,*,#388,.T.);
#57=ORIENTED_EDGE('',*,*,#389,.T.);
#58=ORIENTED_EDGE('',*,*,#390,.T.);
#59=ORIENTED_EDGE('',*,*,#391,.T.);
#60=ORIENTED_EDGE('',*,*,#392,.F.);
#61=ORIENTED_EDGE('',*,*,#393,.F.);
#62=ORIENTED_EDGE('',*,*,#394,.F.);
#63=ORIENTED_EDGE('',*,*,#395,.F.);
#64=ORIENTED_EDGE('',*,*,#396,.F.);
#65=ORIENTED_EDGE('',*,*,#397,.F.);
#66=ORIENTED_EDGE('',*,*,#398,.T.);
#67=ORIENTED_EDGE('',*,*,#399,.T.);
#68=ORIENTED_EDGE('',*,*,#400,.F.);
#69=ORIENTED_EDGE('',*,*,#401,.T.);
#70=ORIENTED_EDGE('',*,*,#402,.T.);
#71=ORIENTED_EDGE('',*,*,#403,.T.);
#72=ORIENTED_EDGE('',*,*,#404,.F.);
#73=ORIENTED_EDGE('',*,*,#405,.F.);
#74=ORIENTED_EDGE('',*,*,#406,.T.);
#75=ORIENTED_EDGE('',*,*,#407,.T.);
#76=ORIENTED_EDGE('',*,*,#408,.F.);
#77=ORIENTED_EDGE('',*,*,#409,.T.);
#78=ORIENTED_EDGE('',*,*,#410,.T.);
#79=ORIENTED_EDGE('',*,*,#411,.F.);
#80=ORIENTED_EDGE('',*,*,#412,.F.);
#81=ORIENTED_EDGE('',*,*,#394,.T.);
#82=ORIENTED_EDGE('',*,*,#413,.T.);
#83=ORIENTED_EDGE('',*,*,#414,.T.);
#84=ORIENTED_EDGE('',*,*,#415,.T.);
#85=ORIENTED_EDGE('',*,*,#416,.F.);
#86=ORIENTED_EDGE('',*,*,#417,.F.);
#87=ORIENTED_EDGE('',*,*,#418,.T.);
#88=ORIENTED_EDGE('',*,*,#419,.T.);
#89=ORIENTED_EDGE('',*,*,#420,.F.);
#90=ORIENTED_EDGE('',*,*,#421,.F.);
#91=ORIENTED_EDGE('',*,*,#422,.T.);
#92=ORIENTED_EDGE('',*,*,#423,.T.);
#93=ORIENTED_EDGE('',*,*,#424,.F.);
#94=ORIENTED_EDGE('',*,*,#425,.F.);
#95=ORIENTED_EDGE('',*,*,#426,.F.);
#96=ORIENTED_EDGE('',*,*,#388,.F.);
#97=ORIENTED_EDGE('',*,*,#427,.T.);
#98=ORIENTED_EDGE('',*,*,#404,.T.);
#99=ORIENTED_EDGE('',*,*,#428,.F.);
#100=ORIENTED_EDGE('',*,*,#410,.F.);
#101=ORIENTED_EDGE('',*,*,#429,.T.);
#102=ORIENTED_EDGE('',*,*,#383,.T.);
#103=ORIENTED_EDGE('',*,*,#430,.F.);
#104=ORIENTED_EDGE('',*,*,#423,.F.);
#105=ORIENTED_EDGE('',*,*,#431,.T.);
#106=ORIENTED_EDGE('',*,*,#379,.T.);
#107=ORIENTED_EDGE('',*,*,#432,.F.);
#108=ORIENTED_EDGE('',*,*,#419,.F.);
#109=ORIENTED_EDGE('',*,*,#433,.T.);
#110=ORIENTED_EDGE('',*,*,#375,.T.);
#111=ORIENTED_EDGE('',*,*,#434,.F.);
#112=ORIENTED_EDGE('',*,*,#415,.F.);
#113=ORIENTED_EDGE('',*,*,#435,.T.);
#114=ORIENTED_EDGE('',*,*,#436,.F.);
#115=ORIENTED_EDGE('',*,*,#391,.F.);
#116=ORIENTED_EDGE('',*,*,#437,.T.);
#117=ORIENTED_EDGE('',*,*,#438,.F.);
#118=ORIENTED_EDGE('',*,*,#428,.T.);
#119=ORIENTED_EDGE('',*,*,#403,.F.);
#120=ORIENTED_EDGE('',*,*,#439,.T.);
#121=ORIENTED_EDGE('',*,*,#440,.F.);
#122=ORIENTED_EDGE('',*,*,#441,.F.);
#123=ORIENTED_EDGE('',*,*,#399,.F.);
#124=ORIENTED_EDGE('',*,*,#442,.T.);
#125=ORIENTED_EDGE('',*,*,#443,.T.);
#126=ORIENTED_EDGE('',*,*,#444,.F.);
#127=ORIENTED_EDGE('',*,*,#407,.F.);
#128=ORIENTED_EDGE('',*,*,#445,.F.);
#129=ORIENTED_EDGE('',*,*,#446,.T.);
#130=ORIENTED_EDGE('',*,*,#447,.T.);
#131=ORIENTED_EDGE('',*,*,#448,.T.);
#132=ORIENTED_EDGE('',*,*,#449,.F.);
#133=ORIENTED_EDGE('',*,*,#450,.T.);
#134=ORIENTED_EDGE('',*,*,#451,.F.);
#135=ORIENTED_EDGE('',*,*,#452,.F.);
#136=ORIENTED_EDGE('',*,*,#453,.T.);
#137=ORIENTED_EDGE('',*,*,#454,.T.);
#138=ORIENTED_EDGE('',*,*,#455,.F.);
#139=ORIENTED_EDGE('',*,*,#456,.T.);
#140=ORIENTED_EDGE('',*,*,#457,.F.);
#141=ORIENTED_EDGE('',*,*,#458,.F.);
#142=ORIENTED_EDGE('',*,*,#459,.F.);
#143=ORIENTED_EDGE('',*,*,#460,.F.);
#144=ORIENTED_EDGE('',*,*,#461,.T.);
#145=ORIENTED_EDGE('',*,*,#462,.T.);
#146=ORIENTED_EDGE('',*,*,#463,.F.);
#147=ORIENTED_EDGE('',*,*,#464,.F.);
#148=ORIENTED_EDGE('',*,*,#465,.F.);
#149=ORIENTED_EDGE('',*,*,#466,.T.);
#150=ORIENTED_EDGE('',*,*,#405,.T.);
#151=ORIENTED_EDGE('',*,*,#427,.F.);
#152=ORIENTED_EDGE('',*,*,#395,.T.);
#153=ORIENTED_EDGE('',*,*,#412,.T.);
#154=ORIENTED_EDGE('',*,*,#467,.T.);
#155=ORIENTED_EDGE('',*,*,#468,.T.);
#156=ORIENTED_EDGE('',*,*,#455,.T.);
#157=ORIENTED_EDGE('',*,*,#469,.F.);
#158=ORIENTED_EDGE('',*,*,#368,.F.);
#159=ORIENTED_EDGE('',*,*,#470,.F.);
#160=ORIENTED_EDGE('',*,*,#453,.F.);
#161=ORIENTED_EDGE('',*,*,#471,.T.);
#162=ORIENTED_EDGE('',*,*,#370,.T.);
#163=ORIENTED_EDGE('',*,*,#472,.F.);
#164=ORIENTED_EDGE('',*,*,#448,.F.);
#165=ORIENTED_EDGE('',*,*,#473,.F.);
#166=ORIENTED_EDGE('',*,*,#463,.T.);
#167=ORIENTED_EDGE('',*,*,#474,.T.);
#168=ORIENTED_EDGE('',*,*,#447,.F.);
#169=ORIENTED_EDGE('',*,*,#475,.F.);
#170=ORIENTED_EDGE('',*,*,#464,.T.);
#171=ORIENTED_EDGE('',*,*,#473,.T.);
#172=ORIENTED_EDGE('',*,*,#446,.F.);
#173=ORIENTED_EDGE('',*,*,#476,.F.);
#174=ORIENTED_EDGE('',*,*,#465,.T.);
#175=ORIENTED_EDGE('',*,*,#475,.T.);
#176=ORIENTED_EDGE('',*,*,#445,.T.);
#177=ORIENTED_EDGE('',*,*,#406,.F.);
#178=ORIENTED_EDGE('',*,*,#466,.F.);
#179=ORIENTED_EDGE('',*,*,#476,.T.);
#180=ORIENTED_EDGE('',*,*,#449,.T.);
#181=ORIENTED_EDGE('',*,*,#474,.F.);
#182=ORIENTED_EDGE('',*,*,#462,.F.);
#183=ORIENTED_EDGE('',*,*,#477,.T.);
#184=ORIENTED_EDGE('',*,*,#452,.T.);
#185=ORIENTED_EDGE('',*,*,#478,.F.);
#186=ORIENTED_EDGE('',*,*,#467,.F.);
#187=ORIENTED_EDGE('',*,*,#411,.T.);
#188=ORIENTED_EDGE('',*,*,#451,.T.);
#189=ORIENTED_EDGE('',*,*,#479,.F.);
#190=ORIENTED_EDGE('',*,*,#468,.F.);
#191=ORIENTED_EDGE('',*,*,#478,.T.);
#192=ORIENTED_EDGE('',*,*,#441,.T.);
#193=ORIENTED_EDGE('',*,*,#480,.F.);
#194=ORIENTED_EDGE('',*,*,#481,.F.);
#195=ORIENTED_EDGE('',*,*,#400,.T.);
#196=ORIENTED_EDGE('',*,*,#440,.T.);
#197=ORIENTED_EDGE('',*,*,#482,.F.);
#198=ORIENTED_EDGE('',*,*,#483,.F.);
#199=ORIENTED_EDGE('',*,*,#480,.T.);
#200=ORIENTED_EDGE('',*,*,#484,.T.);
#201=ORIENTED_EDGE('',*,*,#485,.T.);
#202=ORIENTED_EDGE('',*,*,#439,.F.);
#203=ORIENTED_EDGE('',*,*,#402,.F.);
#204=ORIENTED_EDGE('',*,*,#486,.T.);
#205=ORIENTED_EDGE('',*,*,#482,.T.);
#206=ORIENTED_EDGE('',*,*,#484,.F.);
#207=ORIENTED_EDGE('',*,*,#401,.F.);
#208=ORIENTED_EDGE('',*,*,#481,.T.);
#209=ORIENTED_EDGE('',*,*,#483,.T.);
#210=ORIENTED_EDGE('',*,*,#486,.F.);
#211=ORIENTED_EDGE('',*,*,#442,.F.);
#212=ORIENTED_EDGE('',*,*,#398,.F.);
#213=ORIENTED_EDGE('',*,*,#487,.T.);
#214=ORIENTED_EDGE('',*,*,#488,.T.);
#215=ORIENTED_EDGE('',*,*,#444,.T.);
#216=ORIENTED_EDGE('',*,*,#489,.F.);
#217=ORIENTED_EDGE('',*,*,#490,.F.);
#218=ORIENTED_EDGE('',*,*,#396,.T.);
#219=ORIENTED_EDGE('',*,*,#443,.F.);
#220=ORIENTED_EDGE('',*,*,#488,.F.);
#221=ORIENTED_EDGE('',*,*,#491,.T.);
#222=ORIENTED_EDGE('',*,*,#489,.T.);
#223=ORIENTED_EDGE('',*,*,#492,.T.);
#224=ORIENTED_EDGE('',*,*,#493,.T.);
#225=ORIENTED_EDGE('',*,*,#487,.F.);
#226=ORIENTED_EDGE('',*,*,#397,.T.);
#227=ORIENTED_EDGE('',*,*,#490,.T.);
#228=ORIENTED_EDGE('',*,*,#491,.F.);
#229=ORIENTED_EDGE('',*,*,#492,.F.);
#230=ORIENTED_EDGE('',*,*,#436,.T.);
#231=ORIENTED_EDGE('',*,*,#494,.F.);
#232=ORIENTED_EDGE('',*,*,#495,.F.);
#233=ORIENTED_EDGE('',*,*,#392,.T.);
#234=ORIENTED_EDGE('',*,*,#435,.F.);
#235=ORIENTED_EDGE('',*,*,#414,.F.);
#236=ORIENTED_EDGE('',*,*,#496,.T.);
#237=ORIENTED_EDGE('',*,*,#494,.T.);
#238=ORIENTED_EDGE('',*,*,#497,.T.);
#239=ORIENTED_EDGE('',*,*,#498,.T.);
#240=ORIENTED_EDGE('',*,*,#413,.F.);
#241=ORIENTED_EDGE('',*,*,#393,.T.);
#242=ORIENTED_EDGE('',*,*,#495,.T.);
#243=ORIENTED_EDGE('',*,*,#496,.F.);
#244=ORIENTED_EDGE('',*,*,#497,.F.);
#245=ORIENTED_EDGE('',*,*,#498,.F.);
#246=ORIENTED_EDGE('',*,*,#485,.F.);
#247=ORIENTED_EDGE('',*,*,#493,.F.);
#248=ORIENTED_EDGE('',*,*,#438,.T.);
#249=ORIENTED_EDGE('',*,*,#499,.F.);
#250=ORIENTED_EDGE('',*,*,#500,.F.);
#251=ORIENTED_EDGE('',*,*,#425,.T.);
#252=ORIENTED_EDGE('',*,*,#501,.T.);
#253=ORIENTED_EDGE('',*,*,#502,.T.);
#254=ORIENTED_EDGE('',*,*,#437,.F.);
#255=ORIENTED_EDGE('',*,*,#390,.F.);
#256=ORIENTED_EDGE('',*,*,#503,.T.);
#257=ORIENTED_EDGE('',*,*,#499,.T.);
#258=ORIENTED_EDGE('',*,*,#501,.F.);
#259=ORIENTED_EDGE('',*,*,#389,.F.);
#260=ORIENTED_EDGE('',*,*,#426,.T.);
#261=ORIENTED_EDGE('',*,*,#500,.T.);
#262=ORIENTED_EDGE('',*,*,#503,.F.);
#263=ORIENTED_EDGE('',*,*,#502,.F.);
#264=ORIENTED_EDGE('',*,*,#504,.T.);
#265=ORIENTED_EDGE('',*,*,#505,.F.);
#266=ORIENTED_EDGE('',*,*,#506,.F.);
#267=ORIENTED_EDGE('',*,*,#507,.T.);
#268=ORIENTED_EDGE('',*,*,#508,.T.);
#269=ORIENTED_EDGE('',*,*,#509,.F.);
#270=ORIENTED_EDGE('',*,*,#510,.F.);
#271=ORIENTED_EDGE('',*,*,#505,.T.);
#272=ORIENTED_EDGE('',*,*,#511,.F.);
#273=ORIENTED_EDGE('',*,*,#512,.F.);
#274=ORIENTED_EDGE('',*,*,#513,.T.);
#275=ORIENTED_EDGE('',*,*,#509,.T.);
#276=ORIENTED_EDGE('',*,*,#514,.F.);
#277=ORIENTED_EDGE('',*,*,#507,.F.);
#278=ORIENTED_EDGE('',*,*,#515,.T.);
#279=ORIENTED_EDGE('',*,*,#512,.T.);
#280=ORIENTED_EDGE('',*,*,#454,.F.);
#281=ORIENTED_EDGE('',*,*,#472,.T.);
#282=ORIENTED_EDGE('',*,*,#369,.T.);
#283=ORIENTED_EDGE('',*,*,#469,.T.);
#284=ORIENTED_EDGE('',*,*,#506,.T.);
#285=ORIENTED_EDGE('',*,*,#510,.T.);
#286=ORIENTED_EDGE('',*,*,#513,.F.);
#287=ORIENTED_EDGE('',*,*,#515,.F.);
#288=ORIENTED_EDGE('',*,*,#477,.F.);
#289=ORIENTED_EDGE('',*,*,#461,.F.);
#290=ORIENTED_EDGE('',*,*,#479,.T.);
#291=ORIENTED_EDGE('',*,*,#450,.F.);
#292=ORIENTED_EDGE('',*,*,#504,.F.);
#293=ORIENTED_EDGE('',*,*,#514,.T.);
#294=ORIENTED_EDGE('',*,*,#511,.T.);
#295=ORIENTED_EDGE('',*,*,#508,.F.);
#296=ORIENTED_EDGE('',*,*,#516,.F.);
#297=ORIENTED_EDGE('',*,*,#517,.T.);
#298=ORIENTED_EDGE('',*,*,#518,.T.);
#299=ORIENTED_EDGE('',*,*,#519,.F.);
#300=ORIENTED_EDGE('',*,*,#371,.T.);
#301=ORIENTED_EDGE('',*,*,#471,.F.);
#302=ORIENTED_EDGE('',*,*,#456,.F.);
#303=ORIENTED_EDGE('',*,*,#470,.T.);
#304=ORIENTED_EDGE('',*,*,#460,.T.);
#305=ORIENTED_EDGE('',*,*,#520,.F.);
#306=ORIENTED_EDGE('',*,*,#520,.T.);
#307=ORIENTED_EDGE('',*,*,#459,.T.);
#308=ORIENTED_EDGE('',*,*,#521,.F.);
#309=ORIENTED_EDGE('',*,*,#521,.T.);
#310=ORIENTED_EDGE('',*,*,#458,.T.);
#311=ORIENTED_EDGE('',*,*,#522,.F.);
#312=ORIENTED_EDGE('',*,*,#522,.T.);
#313=ORIENTED_EDGE('',*,*,#457,.T.);
#314=ORIENTED_EDGE('',*,*,#523,.F.);
#315=ORIENTED_EDGE('',*,*,#523,.T.);
#316=ORIENTED_EDGE('',*,*,#524,.T.);
#317=ORIENTED_EDGE('',*,*,#516,.T.);
#318=ORIENTED_EDGE('',*,*,#525,.F.);
#319=ORIENTED_EDGE('',*,*,#385,.F.);
#320=ORIENTED_EDGE('',*,*,#384,.T.);
#321=ORIENTED_EDGE('',*,*,#526,.T.);
#322=ORIENTED_EDGE('',*,*,#517,.F.);
#323=ORIENTED_EDGE('',*,*,#524,.F.);
#324=ORIENTED_EDGE('',*,*,#387,.T.);
#325=ORIENTED_EDGE('',*,*,#527,.T.);
#326=ORIENTED_EDGE('',*,*,#518,.F.);
#327=ORIENTED_EDGE('',*,*,#526,.F.);
#328=ORIENTED_EDGE('',*,*,#525,.T.);
#329=ORIENTED_EDGE('',*,*,#519,.T.);
#330=ORIENTED_EDGE('',*,*,#527,.F.);
#331=ORIENTED_EDGE('',*,*,#386,.F.);
#332=ORIENTED_EDGE('',*,*,#417,.T.);
#333=ORIENTED_EDGE('',*,*,#528,.T.);
#334=ORIENTED_EDGE('',*,*,#373,.F.);
#335=ORIENTED_EDGE('',*,*,#529,.F.);
#336=ORIENTED_EDGE('',*,*,#529,.T.);
#337=ORIENTED_EDGE('',*,*,#372,.T.);
#338=ORIENTED_EDGE('',*,*,#433,.F.);
#339=ORIENTED_EDGE('',*,*,#418,.F.);
#340=ORIENTED_EDGE('',*,*,#416,.T.);
#341=ORIENTED_EDGE('',*,*,#434,.T.);
#342=ORIENTED_EDGE('',*,*,#374,.F.);
#343=ORIENTED_EDGE('',*,*,#528,.F.);
#344=ORIENTED_EDGE('',*,*,#421,.T.);
#345=ORIENTED_EDGE('',*,*,#530,.T.);
#346=ORIENTED_EDGE('',*,*,#377,.F.);
#347=ORIENTED_EDGE('',*,*,#531,.F.);
#348=ORIENTED_EDGE('',*,*,#531,.T.);
#349=ORIENTED_EDGE('',*,*,#376,.T.);
#350=ORIENTED_EDGE('',*,*,#431,.F.);
#351=ORIENTED_EDGE('',*,*,#422,.F.);
#352=ORIENTED_EDGE('',*,*,#420,.T.);
#353=ORIENTED_EDGE('',*,*,#432,.T.);
#354=ORIENTED_EDGE('',*,*,#378,.F.);
#355=ORIENTED_EDGE('',*,*,#530,.F.);
#356=ORIENTED_EDGE('',*,*,#408,.T.);
#357=ORIENTED_EDGE('',*,*,#532,.T.);
#358=ORIENTED_EDGE('',*,*,#381,.F.);
#359=ORIENTED_EDGE('',*,*,#533,.F.);
#360=ORIENTED_EDGE('',*,*,#533,.T.);
#361=ORIENTED_EDGE('',*,*,#380,.T.);
#362=ORIENTED_EDGE('',*,*,#429,.F.);
#363=ORIENTED_EDGE('',*,*,#409,.F.);
#364=ORIENTED_EDGE('',*,*,#424,.T.);
#365=ORIENTED_EDGE('',*,*,#430,.T.);
#366=ORIENTED_EDGE('',*,*,#382,.F.);
#367=ORIENTED_EDGE('',*,*,#532,.F.);
#368=EDGE_CURVE('',#534,#535,#650,.T.);
#369=EDGE_CURVE('',#536,#535,#651,.T.);
#370=EDGE_CURVE('',#537,#536,#652,.T.);
#371=EDGE_CURVE('',#534,#537,#653,.T.);
#372=EDGE_CURVE('',#538,#539,#654,.T.);
#373=EDGE_CURVE('',#538,#540,#655,.T.);
#374=EDGE_CURVE('',#540,#541,#656,.T.);
#375=EDGE_CURVE('',#539,#541,#657,.T.);
#376=EDGE_CURVE('',#542,#543,#658,.T.);
#377=EDGE_CURVE('',#542,#544,#659,.T.);
#378=EDGE_CURVE('',#544,#545,#660,.T.);
#379=EDGE_CURVE('',#543,#545,#661,.T.);
#380=EDGE_CURVE('',#546,#547,#662,.T.);
#381=EDGE_CURVE('',#546,#548,#663,.T.);
#382=EDGE_CURVE('',#548,#549,#664,.T.);
#383=EDGE_CURVE('',#547,#549,#665,.T.);
#384=EDGE_CURVE('',#550,#551,#666,.T.);
#385=EDGE_CURVE('',#550,#552,#667,.T.);
#386=EDGE_CURVE('',#552,#553,#668,.T.);
#387=EDGE_CURVE('',#551,#553,#669,.T.);
#388=EDGE_CURVE('',#554,#555,#670,.T.);
#389=EDGE_CURVE('',#555,#556,#671,.T.);
#390=EDGE_CURVE('',#556,#557,#672,.T.);
#391=EDGE_CURVE('',#557,#558,#673,.T.);
#392=EDGE_CURVE('',#559,#558,#674,.T.);
#393=EDGE_CURVE('',#560,#559,#675,.T.);
#394=EDGE_CURVE('',#561,#560,#676,.T.);
#395=EDGE_CURVE('',#554,#561,#677,.T.);
#396=EDGE_CURVE('',#562,#563,#678,.T.);
#397=EDGE_CURVE('',#564,#562,#679,.T.);
#398=EDGE_CURVE('',#564,#565,#680,.T.);
#399=EDGE_CURVE('',#565,#566,#681,.T.);
#400=EDGE_CURVE('',#567,#566,#682,.T.);
#401=EDGE_CURVE('',#567,#568,#683,.T.);
#402=EDGE_CURVE('',#568,#569,#684,.T.);
#403=EDGE_CURVE('',#569,#570,#685,.T.);
#404=EDGE_CURVE('',#571,#570,#686,.T.);
#405=EDGE_CURVE('',#572,#571,#687,.T.);
#406=EDGE_CURVE('',#572,#573,#688,.T.);
#407=EDGE_CURVE('',#573,#563,#689,.T.);
#408=EDGE_CURVE('',#574,#575,#690,.T.);
#409=EDGE_CURVE('',#574,#576,#691,.T.);
#410=EDGE_CURVE('',#576,#577,#692,.T.);
#411=EDGE_CURVE('',#578,#577,#693,.T.);
#412=EDGE_CURVE('',#561,#578,#694,.T.);
#413=EDGE_CURVE('',#560,#579,#695,.T.);
#414=EDGE_CURVE('',#579,#580,#696,.T.);
#415=EDGE_CURVE('',#580,#581,#697,.T.);
#416=EDGE_CURVE('',#582,#581,#698,.T.);
#417=EDGE_CURVE('',#583,#582,#699,.T.);
#418=EDGE_CURVE('',#583,#584,#700,.T.);
#419=EDGE_CURVE('',#584,#585,#701,.T.);
#420=EDGE_CURVE('',#586,#585,#702,.T.);
#421=EDGE_CURVE('',#587,#586,#703,.T.);
#422=EDGE_CURVE('',#587,#588,#704,.T.);
#423=EDGE_CURVE('',#588,#589,#705,.T.);
#424=EDGE_CURVE('',#575,#589,#706,.T.);
#425=EDGE_CURVE('',#590,#591,#707,.T.);
#426=EDGE_CURVE('',#555,#590,#708,.T.);
#427=EDGE_CURVE('',#554,#571,#709,.T.);
#428=EDGE_CURVE('',#591,#570,#710,.T.);
#429=EDGE_CURVE('',#576,#547,#711,.T.);
#430=EDGE_CURVE('',#589,#549,#712,.T.);
#431=EDGE_CURVE('',#588,#543,#713,.T.);
#432=EDGE_CURVE('',#585,#545,#714,.T.);
#433=EDGE_CURVE('',#584,#539,#715,.T.);
#434=EDGE_CURVE('',#581,#541,#716,.T.);
#435=EDGE_CURVE('',#580,#592,#717,.T.);
#436=EDGE_CURVE('',#558,#592,#718,.T.);
#437=EDGE_CURVE('',#557,#593,#719,.T.);
#438=EDGE_CURVE('',#591,#593,#720,.T.);
#439=EDGE_CURVE('',#569,#594,#721,.T.);
#440=EDGE_CURVE('',#595,#594,#722,.T.);
#441=EDGE_CURVE('',#566,#595,#723,.T.);
#442=EDGE_CURVE('',#565,#596,#724,.T.);
#443=EDGE_CURVE('',#596,#597,#725,.T.);
#444=EDGE_CURVE('',#563,#597,#726,.T.);
#445=EDGE_CURVE('',#598,#573,#727,.T.);
#446=EDGE_CURVE('',#598,#599,#728,.T.);
#447=EDGE_CURVE('',#599,#600,#729,.T.);
#448=EDGE_CURVE('',#600,#601,#730,.T.);
#449=EDGE_CURVE('',#602,#601,#731,.T.);
#450=EDGE_CURVE('',#602,#603,#732,.T.);
#451=EDGE_CURVE('',#604,#603,#733,.T.);
#452=EDGE_CURVE('',#577,#604,#734,.T.);
#453=EDGE_CURVE('',#605,#606,#735,.T.);
#454=EDGE_CURVE('',#606,#607,#736,.T.);
#455=EDGE_CURVE('',#608,#607,#737,.T.);
#456=EDGE_CURVE('',#608,#605,#738,.T.);
#457=EDGE_CURVE('',#609,#609,#20,.T.);
#458=EDGE_CURVE('',#610,#610,#21,.T.);
#459=EDGE_CURVE('',#611,#611,#22,.T.);
#460=EDGE_CURVE('',#612,#612,#23,.T.);
#461=EDGE_CURVE('',#613,#614,#739,.T.);
#462=EDGE_CURVE('',#614,#615,#740,.T.);
#463=EDGE_CURVE('',#616,#615,#741,.T.);
#464=EDGE_CURVE('',#617,#616,#742,.T.);
#465=EDGE_CURVE('',#618,#617,#743,.T.);
#466=EDGE_CURVE('',#618,#572,#744,.T.);
#467=EDGE_CURVE('',#578,#619,#745,.T.);
#468=EDGE_CURVE('',#619,#613,#746,.T.);
#469=EDGE_CURVE('',#535,#607,#747,.T.);
#470=EDGE_CURVE('',#608,#534,#748,.T.);
#471=EDGE_CURVE('',#605,#537,#749,.T.);
#472=EDGE_CURVE('',#606,#536,#750,.T.);
#473=EDGE_CURVE('',#616,#600,#751,.T.);
#474=EDGE_CURVE('',#615,#601,#752,.T.);
#475=EDGE_CURVE('',#617,#599,#753,.T.);
#476=EDGE_CURVE('',#618,#598,#754,.T.);
#477=EDGE_CURVE('',#614,#602,#755,.T.);
#478=EDGE_CURVE('',#619,#604,#756,.T.);
#479=EDGE_CURVE('',#613,#603,#757,.T.);
#480=EDGE_CURVE('',#620,#595,#758,.T.);
#481=EDGE_CURVE('',#567,#620,#759,.T.);
#482=EDGE_CURVE('',#621,#594,#760,.T.);
#483=EDGE_CURVE('',#620,#621,#761,.T.);
#484=EDGE_CURVE('',#622,#622,#24,.T.);
#485=EDGE_CURVE('',#623,#623,#25,.F.);
#486=EDGE_CURVE('',#568,#621,#762,.T.);
#487=EDGE_CURVE('',#564,#624,#763,.T.);
#488=EDGE_CURVE('',#624,#596,#764,.T.);
#489=EDGE_CURVE('',#625,#597,#765,.T.);
#490=EDGE_CURVE('',#562,#625,#766,.T.);
#491=EDGE_CURVE('',#624,#625,#767,.T.);
#492=EDGE_CURVE('',#626,#626,#26,.T.);
#493=EDGE_CURVE('',#627,#627,#27,.F.);
#494=EDGE_CURVE('',#628,#592,#768,.T.);
#495=EDGE_CURVE('',#559,#628,#769,.T.);
#496=EDGE_CURVE('',#579,#628,#770,.T.);
#497=EDGE_CURVE('',#629,#629,#28,.T.);
#498=EDGE_CURVE('',#630,#630,#29,.F.);
#499=EDGE_CURVE('',#631,#593,#771,.T.);
#500=EDGE_CURVE('',#590,#631,#772,.T.);
#501=EDGE_CURVE('',#632,#632,#30,.T.);
#502=EDGE_CURVE('',#633,#633,#31,.F.);
#503=EDGE_CURVE('',#556,#631,#773,.T.);
#504=EDGE_CURVE('',#634,#635,#774,.T.);
#505=EDGE_CURVE('',#636,#635,#775,.T.);
#506=EDGE_CURVE('',#637,#636,#776,.T.);
#507=EDGE_CURVE('',#637,#634,#777,.T.);
#508=EDGE_CURVE('',#635,#638,#778,.T.);
#509=EDGE_CURVE('',#639,#638,#779,.T.);
#510=EDGE_CURVE('',#636,#639,#780,.T.);
#511=EDGE_CURVE('',#640,#638,#781,.T.);
#512=EDGE_CURVE('',#641,#640,#782,.T.);
#513=EDGE_CURVE('',#641,#639,#783,.T.);
#514=EDGE_CURVE('',#634,#640,#784,.T.);
#515=EDGE_CURVE('',#637,#641,#785,.T.);
#516=EDGE_CURVE('',#642,#643,#786,.T.);
#517=EDGE_CURVE('',#642,#644,#787,.T.);
#518=EDGE_CURVE('',#644,#645,#788,.T.);
#519=EDGE_CURVE('',#643,#645,#789,.T.);
#520=EDGE_CURVE('',#646,#646,#32,.T.);
#521=EDGE_CURVE('',#647,#647,#33,.T.);
#522=EDGE_CURVE('',#648,#648,#34,.T.);
#523=EDGE_CURVE('',#649,#649,#35,.T.);
#524=EDGE_CURVE('',#550,#642,#790,.T.);
#525=EDGE_CURVE('',#552,#643,#791,.T.);
#526=EDGE_CURVE('',#551,#644,#792,.T.);
#527=EDGE_CURVE('',#553,#645,#793,.T.);
#528=EDGE_CURVE('',#582,#540,#794,.T.);
#529=EDGE_CURVE('',#583,#538,#795,.T.);
#530=EDGE_CURVE('',#586,#544,#796,.T.);
#531=EDGE_CURVE('',#587,#542,#797,.T.);
#532=EDGE_CURVE('',#575,#548,#798,.T.);
#533=EDGE_CURVE('',#574,#546,#799,.T.);
#534=VERTEX_POINT('',#1668);
#535=VERTEX_POINT('',#1669);
#536=VERTEX_POINT('',#1671);
#537=VERTEX_POINT('',#1673);
#538=VERTEX_POINT('',#1676);
#539=VERTEX_POINT('',#1677);
#540=VERTEX_POINT('',#1679);
#541=VERTEX_POINT('',#1681);
#542=VERTEX_POINT('',#1684);
#543=VERTEX_POINT('',#1685);
#544=VERTEX_POINT('',#1687);
#545=VERTEX_POINT('',#1689);
#546=VERTEX_POINT('',#1692);
#547=VERTEX_POINT('',#1693);
#548=VERTEX_POINT('',#1695);
#549=VERTEX_POINT('',#1697);
#550=VERTEX_POINT('',#1701);
#551=VERTEX_POINT('',#1702);
#552=VERTEX_POINT('',#1704);
#553=VERTEX_POINT('',#1706);
#554=VERTEX_POINT('',#1709);
#555=VERTEX_POINT('',#1710);
#556=VERTEX_POINT('',#1712);
#557=VERTEX_POINT('',#1714);
#558=VERTEX_POINT('',#1716);
#559=VERTEX_POINT('',#1718);
#560=VERTEX_POINT('',#1720);
#561=VERTEX_POINT('',#1722);
#562=VERTEX_POINT('',#1726);
#563=VERTEX_POINT('',#1727);
#564=VERTEX_POINT('',#1729);
#565=VERTEX_POINT('',#1731);
#566=VERTEX_POINT('',#1733);
#567=VERTEX_POINT('',#1735);
#568=VERTEX_POINT('',#1737);
#569=VERTEX_POINT('',#1739);
#570=VERTEX_POINT('',#1741);
#571=VERTEX_POINT('',#1743);
#572=VERTEX_POINT('',#1745);
#573=VERTEX_POINT('',#1747);
#574=VERTEX_POINT('',#1751);
#575=VERTEX_POINT('',#1752);
#576=VERTEX_POINT('',#1754);
#577=VERTEX_POINT('',#1756);
#578=VERTEX_POINT('',#1758);
#579=VERTEX_POINT('',#1761);
#580=VERTEX_POINT('',#1763);
#581=VERTEX_POINT('',#1765);
#582=VERTEX_POINT('',#1767);
#583=VERTEX_POINT('',#1769);
#584=VERTEX_POINT('',#1771);
#585=VERTEX_POINT('',#1773);
#586=VERTEX_POINT('',#1775);
#587=VERTEX_POINT('',#1777);
#588=VERTEX_POINT('',#1779);
#589=VERTEX_POINT('',#1781);
#590=VERTEX_POINT('',#1785);
#591=VERTEX_POINT('',#1786);
#592=VERTEX_POINT('',#1798);
#593=VERTEX_POINT('',#1801);
#594=VERTEX_POINT('',#1804);
#595=VERTEX_POINT('',#1806);
#596=VERTEX_POINT('',#1809);
#597=VERTEX_POINT('',#1811);
#598=VERTEX_POINT('',#1814);
#599=VERTEX_POINT('',#1816);
#600=VERTEX_POINT('',#1818);
#601=VERTEX_POINT('',#1820);
#602=VERTEX_POINT('',#1822);
#603=VERTEX_POINT('',#1824);
#604=VERTEX_POINT('',#1826);
#605=VERTEX_POINT('',#1830);
#606=VERTEX_POINT('',#1831);
#607=VERTEX_POINT('',#1833);
#608=VERTEX_POINT('',#1835);
#609=VERTEX_POINT('',#1839);
#610=VERTEX_POINT('',#1841);
#611=VERTEX_POINT('',#1843);
#612=VERTEX_POINT('',#1845);
#613=VERTEX_POINT('',#1847);
#614=VERTEX_POINT('',#1848);
#615=VERTEX_POINT('',#1850);
#616=VERTEX_POINT('',#1852);
#617=VERTEX_POINT('',#1854);
#618=VERTEX_POINT('',#1856);
#619=VERTEX_POINT('',#1859);
#620=VERTEX_POINT('',#1882);
#621=VERTEX_POINT('',#1886);
#622=VERTEX_POINT('',#1890);
#623=VERTEX_POINT('',#1892);
#624=VERTEX_POINT('',#1898);
#625=VERTEX_POINT('',#1902);
#626=VERTEX_POINT('',#1908);
#627=VERTEX_POINT('',#1910);
#628=VERTEX_POINT('',#1914);
#629=VERTEX_POINT('',#1920);
#630=VERTEX_POINT('',#1922);
#631=VERTEX_POINT('',#1929);
#632=VERTEX_POINT('',#1933);
#633=VERTEX_POINT('',#1935);
#634=VERTEX_POINT('',#1942);
#635=VERTEX_POINT('',#1943);
#636=VERTEX_POINT('',#1945);
#637=VERTEX_POINT('',#1947);
#638=VERTEX_POINT('',#1951);
#639=VERTEX_POINT('',#1953);
#640=VERTEX_POINT('',#1957);
#641=VERTEX_POINT('',#1959);
#642=VERTEX_POINT('',#1968);
#643=VERTEX_POINT('',#1969);
#644=VERTEX_POINT('',#1971);
#645=VERTEX_POINT('',#1973);
#646=VERTEX_POINT('',#1977);
#647=VERTEX_POINT('',#1981);
#648=VERTEX_POINT('',#1985);
#649=VERTEX_POINT('',#1989);
#650=LINE('',#1667,#800);
#651=LINE('',#1670,#801);
#652=LINE('',#1672,#802);
#653=LINE('',#1674,#803);
#654=LINE('',#1675,#804);
#655=LINE('',#1678,#805);
#656=LINE('',#1680,#806);
#657=LINE('',#1682,#807);
#658=LINE('',#1683,#808);
#659=LINE('',#1686,#809);
#660=LINE('',#1688,#810);
#661=LINE('',#1690,#811);
#662=LINE('',#1691,#812);
#663=LINE('',#1694,#813);
#664=LINE('',#1696,#814);
#665=LINE('',#1698,#815);
#666=LINE('',#1700,#816);
#667=LINE('',#1703,#817);
#668=LINE('',#1705,#818);
#669=LINE('',#1707,#819);
#670=LINE('',#1708,#820);
#671=LINE('',#1711,#821);
#672=LINE('',#1713,#822);
#673=LINE('',#1715,#823);
#674=LINE('',#1717,#824);
#675=LINE('',#1719,#825);
#676=LINE('',#1721,#826);
#677=LINE('',#1723,#827);
#678=LINE('',#1725,#828);
#679=LINE('',#1728,#829);
#680=LINE('',#1730,#830);
#681=LINE('',#1732,#831);
#682=LINE('',#1734,#832);
#683=LINE('',#1736,#833);
#684=LINE('',#1738,#834);
#685=LINE('',#1740,#835);
#686=LINE('',#1742,#836);
#687=LINE('',#1744,#837);
#688=LINE('',#1746,#838);
#689=LINE('',#1748,#839);
#690=LINE('',#1750,#840);
#691=LINE('',#1753,#841);
#692=LINE('',#1755,#842);
#693=LINE('',#1757,#843);
#694=LINE('',#1759,#844);
#695=LINE('',#1760,#845);
#696=LINE('',#1762,#846);
#697=LINE('',#1764,#847);
#698=LINE('',#1766,#848);
#699=LINE('',#1768,#849);
#700=LINE('',#1770,#850);
#701=LINE('',#1772,#851);
#702=LINE('',#1774,#852);
#703=LINE('',#1776,#853);
#704=LINE('',#1778,#854);
#705=LINE('',#1780,#855);
#706=LINE('',#1782,#856);
#707=LINE('',#1784,#857);
#708=LINE('',#1787,#858);
#709=LINE('',#1788,#859);
#710=LINE('',#1789,#860);
#711=LINE('',#1791,#861);
#712=LINE('',#1792,#862);
#713=LINE('',#1793,#863);
#714=LINE('',#1794,#864);
#715=LINE('',#1795,#865);
#716=LINE('',#1796,#866);
#717=LINE('',#1797,#867);
#718=LINE('',#1799,#868);
#719=LINE('',#1800,#869);
#720=LINE('',#1802,#870);
#721=LINE('',#1803,#871);
#722=LINE('',#1805,#872);
#723=LINE('',#1807,#873);
#724=LINE('',#1808,#874);
#725=LINE('',#1810,#875);
#726=LINE('',#1812,#876);
#727=LINE('',#1813,#877);
#728=LINE('',#1815,#878);
#729=LINE('',#1817,#879);
#730=LINE('',#1819,#880);
#731=LINE('',#1821,#881);
#732=LINE('',#1823,#882);
#733=LINE('',#1825,#883);
#734=LINE('',#1827,#884);
#735=LINE('',#1829,#885);
#736=LINE('',#1832,#886);
#737=LINE('',#1834,#887);
#738=LINE('',#1836,#888);
#739=LINE('',#1846,#889);
#740=LINE('',#1849,#890);
#741=LINE('',#1851,#891);
#742=LINE('',#1853,#892);
#743=LINE('',#1855,#893);
#744=LINE('',#1857,#894);
#745=LINE('',#1858,#895);
#746=LINE('',#1860,#896);
#747=LINE('',#1861,#897);
#748=LINE('',#1862,#898);
#749=LINE('',#1864,#899);
#750=LINE('',#1865,#900);
#751=LINE('',#1867,#901);
#752=LINE('',#1868,#902);
#753=LINE('',#1870,#903);
#754=LINE('',#1872,#904);
#755=LINE('',#1875,#905);
#756=LINE('',#1877,#906);
#757=LINE('',#1879,#907);
#758=LINE('',#1881,#908);
#759=LINE('',#1883,#909);
#760=LINE('',#1885,#910);
#761=LINE('',#1887,#911);
#762=LINE('',#1894,#912);
#763=LINE('',#1897,#913);
#764=LINE('',#1899,#914);
#765=LINE('',#1901,#915);
#766=LINE('',#1903,#916);
#767=LINE('',#1905,#917);
#768=LINE('',#1913,#918);
#769=LINE('',#1915,#919);
#770=LINE('',#1917,#920);
#771=LINE('',#1928,#921);
#772=LINE('',#1930,#922);
#773=LINE('',#1937,#923);
#774=LINE('',#1941,#924);
#775=LINE('',#1944,#925);
#776=LINE('',#1946,#926);
#777=LINE('',#1948,#927);
#778=LINE('',#1950,#928);
#779=LINE('',#1952,#929);
#780=LINE('',#1954,#930);
#781=LINE('',#1956,#931);
#782=LINE('',#1958,#932);
#783=LINE('',#1960,#933);
#784=LINE('',#1962,#934);
#785=LINE('',#1963,#935);
#786=LINE('',#1967,#936);
#787=LINE('',#1970,#937);
#788=LINE('',#1972,#938);
#789=LINE('',#1974,#939);
#790=LINE('',#1992,#940);
#791=LINE('',#1993,#941);
#792=LINE('',#1995,#942);
#793=LINE('',#1997,#943);
#794=LINE('',#2000,#944);
#795=LINE('',#2001,#945);
#796=LINE('',#2005,#946);
#797=LINE('',#2006,#947);
#798=LINE('',#2010,#948);
#799=LINE('',#2011,#949);
#800=VECTOR('',#1353,1.);
#801=VECTOR('',#1354,1.);
#802=VECTOR('',#1355,1.);
#803=VECTOR('',#1356,1.);
#804=VECTOR('',#1357,1.);
#805=VECTOR('',#1358,1.);
#806=VECTOR('',#1359,1.);
#807=VECTOR('',#1360,1.);
#808=VECTOR('',#1361,1.);
#809=VECTOR('',#1362,1.);
#810=VECTOR('',#1363,1.);
#811=VECTOR('',#1364,1.);
#812=VECTOR('',#1365,1.);
#813=VECTOR('',#1366,1.);
#814=VECTOR('',#1367,1.);
#815=VECTOR('',#1368,1.);
#816=VECTOR('',#1371,1.);
#817=VECTOR('',#1372,1.);
#818=VECTOR('',#1373,1.);
#819=VECTOR('',#1374,1.);
#820=VECTOR('',#1375,1.);
#821=VECTOR('',#1376,1.);
#822=VECTOR('',#1377,1.);
#823=VECTOR('',#1378,1.);
#824=VECTOR('',#1379,1.);
#825=VECTOR('',#1380,1.);
#826=VECTOR('',#1381,1.);
#827=VECTOR('',#1382,1.);
#828=VECTOR('',#1385,1.);
#829=VECTOR('',#1386,1.);
#830=VECTOR('',#1387,1.);
#831=VECTOR('',#1388,1.);
#832=VECTOR('',#1389,1.);
#833=VECTOR('',#1390,1.);
#834=VECTOR('',#1391,1.);
#835=VECTOR('',#1392,1.);
#836=VECTOR('',#1393,1.);
#837=VECTOR('',#1394,1.);
#838=VECTOR('',#1395,1.);
#839=VECTOR('',#1396,1.);
#840=VECTOR('',#1399,1.);
#841=VECTOR('',#1400,1.);
#842=VECTOR('',#1401,1.);
#843=VECTOR('',#1402,1.);
#844=VECTOR('',#1403,1.);
#845=VECTOR('',#1404,1.);
#846=VECTOR('',#1405,1.);
#847=VECTOR('',#1406,1.);
#848=VECTOR('',#1407,1.);
#849=VECTOR('',#1408,1.);
#850=VECTOR('',#1409,1.);
#851=VECTOR('',#1410,1.);
#852=VECTOR('',#1411,1.);
#853=VECTOR('',#1412,1.);
#854=VECTOR('',#1413,1.);
#855=VECTOR('',#1414,1.);
#856=VECTOR('',#1415,1.);
#857=VECTOR('',#1418,1.);
#858=VECTOR('',#1419,1.);
#859=VECTOR('',#1420,1.);
#860=VECTOR('',#1421,1.);
#861=VECTOR('',#1424,1.);
#862=VECTOR('',#1425,1.);
#863=VECTOR('',#1426,1.);
#864=VECTOR('',#1427,1.);
#865=VECTOR('',#1428,1.);
#866=VECTOR('',#1429,1.);
#867=VECTOR('',#1430,1.);
#868=VECTOR('',#1431,1.);
#869=VECTOR('',#1432,1.);
#870=VECTOR('',#1433,1.);
#871=VECTOR('',#1434,1.);
#872=VECTOR('',#1435,1.);
#873=VECTOR('',#1436,1.);
#874=VECTOR('',#1437,1.);
#875=VECTOR('',#1438,1.);
#876=VECTOR('',#1439,1.);
#877=VECTOR('',#1440,1.);
#878=VECTOR('',#1441,1.);
#879=VECTOR('',#1442,1.);
#880=VECTOR('',#1443,1.);
#881=VECTOR('',#1444,1.);
#882=VECTOR('',#1445,1.);
#883=VECTOR('',#1446,1.);
#884=VECTOR('',#1447,1.);
#885=VECTOR('',#1450,1.);
#886=VECTOR('',#1451,1.);
#887=VECTOR('',#1452,1.);
#888=VECTOR('',#1453,1.);
#889=VECTOR('',#1464,1.);
#890=VECTOR('',#1465,1.);
#891=VECTOR('',#1466,1.);
#892=VECTOR('',#1467,1.);
#893=VECTOR('',#1468,1.);
#894=VECTOR('',#1469,1.);
#895=VECTOR('',#1470,1.);
#896=VECTOR('',#1471,1.);
#897=VECTOR('',#1472,1.);
#898=VECTOR('',#1473,1.);
#899=VECTOR('',#1476,1.);
#900=VECTOR('',#1477,1.);
#901=VECTOR('',#1480,1.);
#902=VECTOR('',#1481,1.);
#903=VECTOR('',#1484,1.);
#904=VECTOR('',#1487,1.);
#905=VECTOR('',#1492,1.);
#906=VECTOR('',#1495,1.);
#907=VECTOR('',#1498,1.);
#908=VECTOR('',#1501,1.);
#909=VECTOR('',#1502,1.);
#910=VECTOR('',#1505,1.);
#911=VECTOR('',#1506,1.);
#912=VECTOR('',#1515,1.);
#913=VECTOR('',#1520,1.);
#914=VECTOR('',#1521,1.);
#915=VECTOR('',#1524,1.);
#916=VECTOR('',#1525,1.);
#917=VECTOR('',#1528,1.);
#918=VECTOR('',#1539,1.);
#919=VECTOR('',#1540,1.);
#920=VECTOR('',#1543,1.);
#921=VECTOR('',#1560,1.);
#922=VECTOR('',#1561,1.);
#923=VECTOR('',#1570,1.);
#924=VECTOR('',#1577,1.);
#925=VECTOR('',#1578,1.);
#926=VECTOR('',#1579,1.);
#927=VECTOR('',#1580,1.);
#928=VECTOR('',#1583,1.);
#929=VECTOR('',#1584,1.);
#930=VECTOR('',#1585,1.);
#931=VECTOR('',#1588,1.);
#932=VECTOR('',#1589,1.);
#933=VECTOR('',#1590,1.);
#934=VECTOR('',#1593,1.);
#935=VECTOR('',#1594,1.);
#936=VECTOR('',#1601,1.);
#937=VECTOR('',#1602,1.);
#938=VECTOR('',#1603,1.);
#939=VECTOR('',#1604,1.);
#940=VECTOR('',#1631,1.);
#941=VECTOR('',#1632,1.);
#942=VECTOR('',#1635,1.);
#943=VECTOR('',#1638,1.);
#944=VECTOR('',#1643,1.);
#945=VECTOR('',#1644,1.);
#946=VECTOR('',#1651,1.);
#947=VECTOR('',#1652,1.);
#948=VECTOR('',#1659,1.);
#949=VECTOR('',#1660,1.);
#950=EDGE_LOOP('',(#36,#37,#38,#39));
#951=EDGE_LOOP('',(#40,#41,#42,#43));
#952=EDGE_LOOP('',(#44,#45,#46,#47));
#953=EDGE_LOOP('',(#48,#49,#50,#51));
#954=EDGE_LOOP('',(#52,#53,#54,#55));
#955=EDGE_LOOP('',(#56,#57,#58,#59,#60,#61,#62,#63));
#956=EDGE_LOOP('',(#64,#65,#66,#67,#68,#69,#70,#71,#72,#73,#74,#75));
#957=EDGE_LOOP('',(#76,#77,#78,#79,#80,#81,#82,#83,#84,#85,#86,#87,#88,
#89,#90,#91,#92,#93));
#958=EDGE_LOOP('',(#94,#95,#96,#97,#98,#99));
#959=EDGE_LOOP('',(#100,#101,#102,#103,#104,#105,#106,#107,#108,#109,#110,
#111,#112,#113,#114,#115,#116,#117,#118,#119,#120,#121,#122,#123,#124,#125,
#126,#127,#128,#129,#130,#131,#132,#133,#134,#135));
#960=EDGE_LOOP('',(#136,#137,#138,#139));
#961=EDGE_LOOP('',(#140));
#962=EDGE_LOOP('',(#141));
#963=EDGE_LOOP('',(#142));
#964=EDGE_LOOP('',(#143));
#965=EDGE_LOOP('',(#144,#145,#146,#147,#148,#149,#150,#151,#152,#153,#154,
#155));
#966=EDGE_LOOP('',(#156,#157,#158,#159));
#967=EDGE_LOOP('',(#160,#161,#162,#163));
#968=EDGE_LOOP('',(#164,#165,#166,#167));
#969=EDGE_LOOP('',(#168,#169,#170,#171));
#970=EDGE_LOOP('',(#172,#173,#174,#175));
#971=EDGE_LOOP('',(#176,#177,#178,#179));
#972=EDGE_LOOP('',(#180,#181,#182,#183));
#973=EDGE_LOOP('',(#184,#185,#186,#187));
#974=EDGE_LOOP('',(#188,#189,#190,#191));
#975=EDGE_LOOP('',(#192,#193,#194,#195));
#976=EDGE_LOOP('',(#196,#197,#198,#199));
#977=EDGE_LOOP('',(#200));
#978=EDGE_LOOP('',(#201));
#979=EDGE_LOOP('',(#202,#203,#204,#205));
#980=EDGE_LOOP('',(#206));
#981=EDGE_LOOP('',(#207,#208,#209,#210));
#982=EDGE_LOOP('',(#211,#212,#213,#214));
#983=EDGE_LOOP('',(#215,#216,#217,#218));
#984=EDGE_LOOP('',(#219,#220,#221,#222));
#985=EDGE_LOOP('',(#223));
#986=EDGE_LOOP('',(#224));
#987=EDGE_LOOP('',(#225,#226,#227,#228));
#988=EDGE_LOOP('',(#229));
#989=EDGE_LOOP('',(#230,#231,#232,#233));
#990=EDGE_LOOP('',(#234,#235,#236,#237));
#991=EDGE_LOOP('',(#238));
#992=EDGE_LOOP('',(#239));
#993=EDGE_LOOP('',(#240,#241,#242,#243));
#994=EDGE_LOOP('',(#244));
#995=EDGE_LOOP('',(#245));
#996=EDGE_LOOP('',(#246));
#997=EDGE_LOOP('',(#247));
#998=EDGE_LOOP('',(#248,#249,#250,#251));
#999=EDGE_LOOP('',(#252));
#1000=EDGE_LOOP('',(#253));
#1001=EDGE_LOOP('',(#254,#255,#256,#257));
#1002=EDGE_LOOP('',(#258));
#1003=EDGE_LOOP('',(#259,#260,#261,#262));
#1004=EDGE_LOOP('',(#263));
#1005=EDGE_LOOP('',(#264,#265,#266,#267));
#1006=EDGE_LOOP('',(#268,#269,#270,#271));
#1007=EDGE_LOOP('',(#272,#273,#274,#275));
#1008=EDGE_LOOP('',(#276,#277,#278,#279));
#1009=EDGE_LOOP('',(#280,#281,#282,#283));
#1010=EDGE_LOOP('',(#284,#285,#286,#287));
#1011=EDGE_LOOP('',(#288,#289,#290,#291));
#1012=EDGE_LOOP('',(#292,#293,#294,#295));
#1013=EDGE_LOOP('',(#296,#297,#298,#299));
#1014=EDGE_LOOP('',(#300,#301,#302,#303));
#1015=EDGE_LOOP('',(#304));
#1016=EDGE_LOOP('',(#305));
#1017=EDGE_LOOP('',(#306));
#1018=EDGE_LOOP('',(#307));
#1019=EDGE_LOOP('',(#308));
#1020=EDGE_LOOP('',(#309));
#1021=EDGE_LOOP('',(#310));
#1022=EDGE_LOOP('',(#311));
#1023=EDGE_LOOP('',(#312));
#1024=EDGE_LOOP('',(#313));
#1025=EDGE_LOOP('',(#314));
#1026=EDGE_LOOP('',(#315));
#1027=EDGE_LOOP('',(#316,#317,#318,#319));
#1028=EDGE_LOOP('',(#320,#321,#322,#323));
#1029=EDGE_LOOP('',(#324,#325,#326,#327));
#1030=EDGE_LOOP('',(#328,#329,#330,#331));
#1031=EDGE_LOOP('',(#332,#333,#334,#335));
#1032=EDGE_LOOP('',(#336,#337,#338,#339));
#1033=EDGE_LOOP('',(#340,#341,#342,#343));
#1034=EDGE_LOOP('',(#344,#345,#346,#347));
#1035=EDGE_LOOP('',(#348,#349,#350,#351));
#1036=EDGE_LOOP('',(#352,#353,#354,#355));
#1037=EDGE_LOOP('',(#356,#357,#358,#359));
#1038=EDGE_LOOP('',(#360,#361,#362,#363));
#1039=EDGE_LOOP('',(#364,#365,#366,#367));
#1040=FACE_BOUND('',#950,.T.);
#1041=FACE_BOUND('',#951,.T.);
#1042=FACE_BOUND('',#952,.T.);
#1043=FACE_BOUND('',#953,.T.);
#1044=FACE_BOUND('',#954,.T.);
#1045=FACE_BOUND('',#955,.T.);
#1046=FACE_BOUND('',#956,.T.);
#1047=FACE_BOUND('',#957,.T.);
#1048=FACE_BOUND('',#958,.T.);
#1049=FACE_BOUND('',#959,.T.);
#1050=FACE_BOUND('',#960,.T.);
#1051=FACE_BOUND('',#961,.T.);
#1052=FACE_BOUND('',#962,.T.);
#1053=FACE_BOUND('',#963,.T.);
#1054=FACE_BOUND('',#964,.T.);
#1055=FACE_BOUND('',#965,.T.);
#1056=FACE_BOUND('',#966,.T.);
#1057=FACE_BOUND('',#967,.T.);
#1058=FACE_BOUND('',#968,.T.);
#1059=FACE_BOUND('',#969,.T.);
#1060=FACE_BOUND('',#970,.T.);
#1061=FACE_BOUND('',#971,.T.);
#1062=FACE_BOUND('',#972,.T.);
#1063=FACE_BOUND('',#973,.T.);
#1064=FACE_BOUND('',#974,.T.);
#1065=FACE_BOUND('',#975,.T.);
#1066=FACE_BOUND('',#976,.T.);
#1067=FACE_BOUND('',#977,.T.);
#1068=FACE_BOUND('',#978,.T.);
#1069=FACE_BOUND('',#979,.T.);
#1070=FACE_BOUND('',#980,.T.);
#1071=FACE_BOUND('',#981,.T.);
#1072=FACE_BOUND('',#982,.T.);
#1073=FACE_BOUND('',#983,.T.);
#1074=FACE_BOUND('',#984,.T.);
#1075=FACE_BOUND('',#985,.T.);
#1076=FACE_BOUND('',#986,.T.);
#1077=FACE_BOUND('',#987,.T.);
#1078=FACE_BOUND('',#988,.T.);
#1079=FACE_BOUND('',#989,.T.);
#1080=FACE_BOUND('',#990,.T.);
#1081=FACE_BOUND('',#991,.T.);
#1082=FACE_BOUND('',#992,.T.);
#1083=FACE_BOUND('',#993,.T.);
#1084=FACE_BOUND('',#994,.T.);
#1085=FACE_BOUND('',#995,.T.);
#1086=FACE_BOUND('',#996,.T.);
#1087=FACE_BOUND('',#997,.T.);
#1088=FACE_BOUND('',#998,.T.);
#1089=FACE_BOUND('',#999,.T.);
#1090=FACE_BOUND('',#1000,.T.);
#1091=FACE_BOUND('',#1001,.T.);
#1092=FACE_BOUND('',#1002,.T.);
#1093=FACE_BOUND('',#1003,.T.);
#1094=FACE_BOUND('',#1004,.T.);
#1095=FACE_BOUND('',#1005,.T.);
#1096=FACE_BOUND('',#1006,.T.);
#1097=FACE_BOUND('',#1007,.T.);
#1098=FACE_BOUND('',#1008,.T.);
#1099=FACE_BOUND('',#1009,.T.);
#1100=FACE_BOUND('',#1010,.T.);
#1101=FACE_BOUND('',#1011,.T.);
#1102=FACE_BOUND('',#1012,.T.);
#1103=FACE_BOUND('',#1013,.T.);
#1104=FACE_BOUND('',#1014,.T.);
#1105=FACE_BOUND('',#1015,.T.);
#1106=FACE_BOUND('',#1016,.T.);
#1107=FACE_BOUND('',#1017,.T.);
#1108=FACE_BOUND('',#1018,.T.);
#1109=FACE_BOUND('',#1019,.T.);
#1110=FACE_BOUND('',#1020,.T.);
#1111=FACE_BOUND('',#1021,.T.);
#1112=FACE_BOUND('',#1022,.T.);
#1113=FACE_BOUND('',#1023,.T.);
#1114=FACE_BOUND('',#1024,.T.);
#1115=FACE_BOUND('',#1025,.T.);
#1116=FACE_BOUND('',#1026,.T.);
#1117=FACE_BOUND('',#1027,.T.);
#1118=FACE_BOUND('',#1028,.T.);
#1119=FACE_BOUND('',#1029,.T.);
#1120=FACE_BOUND('',#1030,.T.);
#1121=FACE_BOUND('',#1031,.T.);
#1122=FACE_BOUND('',#1032,.T.);
#1123=FACE_BOUND('',#1033,.T.);
#1124=FACE_BOUND('',#1034,.T.);
#1125=FACE_BOUND('',#1035,.T.);
#1126=FACE_BOUND('',#1036,.T.);
#1127=FACE_BOUND('',#1037,.T.);
#1128=FACE_BOUND('',#1038,.T.);
#1129=FACE_BOUND('',#1039,.T.);
#1130=PLANE('',#1267);
#1131=PLANE('',#1268);
#1132=PLANE('',#1269);
#1133=PLANE('',#1270);
#1134=PLANE('',#1271);
#1135=PLANE('',#1272);
#1136=PLANE('',#1273);
#1137=PLANE('',#1274);
#1138=PLANE('',#1279);
#1139=PLANE('',#1280);
#1140=PLANE('',#1281);
#1141=PLANE('',#1282);
#1142=PLANE('',#1283);
#1143=PLANE('',#1284);
#1144=PLANE('',#1285);
#1145=PLANE('',#1286);
#1146=PLANE('',#1287);
#1147=PLANE('',#1288);
#1148=PLANE('',#1292);
#1149=PLANE('',#1293);
#1150=PLANE('',#1294);
#1151=PLANE('',#1295);
#1152=PLANE('',#1296);
#1153=PLANE('',#1300);
#1154=PLANE('',#1301);
#1155=PLANE('',#1302);
#1156=PLANE('',#1306);
#1157=PLANE('',#1307);
#1158=PLANE('',#1308);
#1159=PLANE('',#1309);
#1160=PLANE('',#1310);
#1161=PLANE('',#1314);
#1162=PLANE('',#1315);
#1163=PLANE('',#1316);
#1164=PLANE('',#1317);
#1165=PLANE('',#1318);
#1166=PLANE('',#1319);
#1167=PLANE('',#1320);
#1168=PLANE('',#1321);
#1169=PLANE('',#1322);
#1170=PLANE('',#1323);
#1171=PLANE('',#1326);
#1172=PLANE('',#1329);
#1173=PLANE('',#1332);
#1174=PLANE('',#1335);
#1175=PLANE('',#1336);
#1176=PLANE('',#1337);
#1177=PLANE('',#1338);
#1178=PLANE('',#1339);
#1179=PLANE('',#1340);
#1180=PLANE('',#1341);
#1181=PLANE('',#1342);
#1182=PLANE('',#1343);
#1183=PLANE('',#1344);
#1184=PLANE('',#1345);
#1185=PLANE('',#1346);
#1186=PLANE('',#1347);
#1187=PLANE('',#1348);
#1188=ADVANCED_FACE('',(#1040,#1041,#1042,#1043),#1130,.T.);
#1189=ADVANCED_FACE('',(#1044,#1045),#1131,.F.);
#1190=ADVANCED_FACE('',(#1046),#1132,.F.);
#1191=ADVANCED_FACE('',(#1047),#1133,.F.);
#1192=ADVANCED_FACE('',(#1048),#1134,.T.);
#1193=ADVANCED_FACE('',(#1049),#1135,.T.);
#1194=ADVANCED_FACE('',(#1050),#1136,.F.);
#1195=ADVANCED_FACE('',(#1051,#1052,#1053,#1054,#1055,#1056),#1137,.T.);
#1196=ADVANCED_FACE('',(#1057),#1138,.F.);
#1197=ADVANCED_FACE('',(#1058),#1139,.T.);
#1198=ADVANCED_FACE('',(#1059),#1140,.T.);
#1199=ADVANCED_FACE('',(#1060),#1141,.T.);
#1200=ADVANCED_FACE('',(#1061),#1142,.F.);
#1201=ADVANCED_FACE('',(#1062),#1143,.F.);
#1202=ADVANCED_FACE('',(#1063),#1144,.F.);
#1203=ADVANCED_FACE('',(#1064),#1145,.F.);
#1204=ADVANCED_FACE('',(#1065),#1146,.F.);
#1205=ADVANCED_FACE('',(#1066),#1147,.F.);
#1206=ADVANCED_FACE('',(#1067,#1068),#12,.F.);
#1207=ADVANCED_FACE('',(#1069),#1148,.T.);
#1208=ADVANCED_FACE('',(#1070,#1071),#1149,.T.);
#1209=ADVANCED_FACE('',(#1072),#1150,.T.);
#1210=ADVANCED_FACE('',(#1073),#1151,.F.);
#1211=ADVANCED_FACE('',(#1074),#1152,.T.);
#1212=ADVANCED_FACE('',(#1075,#1076),#13,.F.);
#1213=ADVANCED_FACE('',(#1077,#1078),#1153,.T.);
#1214=ADVANCED_FACE('',(#1079),#1154,.F.);
#1215=ADVANCED_FACE('',(#1080),#1155,.T.);
#1216=ADVANCED_FACE('',(#1081,#1082),#14,.F.);
#1217=ADVANCED_FACE('',(#1083,#1084),#1156,.T.);
#1218=ADVANCED_FACE('',(#1085),#1157,.T.);
#1219=ADVANCED_FACE('',(#1086),#1158,.T.);
#1220=ADVANCED_FACE('',(#1087),#1159,.T.);
#1221=ADVANCED_FACE('',(#1088),#1160,.F.);
#1222=ADVANCED_FACE('',(#1089,#1090),#15,.F.);
#1223=ADVANCED_FACE('',(#1091),#1161,.T.);
#1224=ADVANCED_FACE('',(#1092,#1093),#1162,.T.);
#1225=ADVANCED_FACE('',(#1094),#1163,.T.);
#1226=ADVANCED_FACE('',(#1095),#1164,.F.);
#1227=ADVANCED_FACE('',(#1096),#1165,.F.);
#1228=ADVANCED_FACE('',(#1097),#1166,.T.);
#1229=ADVANCED_FACE('',(#1098),#1167,.T.);
#1230=ADVANCED_FACE('',(#1099,#1100),#1168,.T.);
#1231=ADVANCED_FACE('',(#1101,#1102),#1169,.F.);
#1232=ADVANCED_FACE('',(#1103,#1104),#1170,.T.);
#1233=ADVANCED_FACE('',(#1105,#1106),#16,.F.);
#1234=ADVANCED_FACE('',(#1107),#1171,.T.);
#1235=ADVANCED_FACE('',(#1108,#1109),#17,.F.);
#1236=ADVANCED_FACE('',(#1110),#1172,.T.);
#1237=ADVANCED_FACE('',(#1111,#1112),#18,.F.);
#1238=ADVANCED_FACE('',(#1113),#1173,.T.);
#1239=ADVANCED_FACE('',(#1114,#1115),#19,.F.);
#1240=ADVANCED_FACE('',(#1116),#1174,.T.);
#1241=ADVANCED_FACE('',(#1117),#1175,.F.);
#1242=ADVANCED_FACE('',(#1118),#1176,.T.);
#1243=ADVANCED_FACE('',(#1119),#1177,.T.);
#1244=ADVANCED_FACE('',(#1120),#1178,.F.);
#1245=ADVANCED_FACE('',(#1121),#1179,.T.);
#1246=ADVANCED_FACE('',(#1122),#1180,.F.);
#1247=ADVANCED_FACE('',(#1123),#1181,.T.);
#1248=ADVANCED_FACE('',(#1124),#1182,.T.);
#1249=ADVANCED_FACE('',(#1125),#1183,.F.);
#1250=ADVANCED_FACE('',(#1126),#1184,.T.);
#1251=ADVANCED_FACE('',(#1127),#1185,.T.);
#1252=ADVANCED_FACE('',(#1128),#1186,.F.);
#1253=ADVANCED_FACE('',(#1129),#1187,.T.);
#1254=CLOSED_SHELL('',(#1188,#1189,#1190,#1191,#1192,#1193,#1194,#1195,
#1196,#1197,#1198,#1199,#1200,#1201,#1202,#1203,#1204,#1205,#1206,#1207,
#1208,#1209,#1210,#1211,#1212,#1213,#1214,#1215,#1216,#1217,#1218,#1219,
#1220,#1221,#1222,#1223,#1224,#1225,#1226,#1227,#1228,#1229,#1230,#1231,
#1232,#1233,#1234,#1235,#1236,#1237,#1238,#1239,#1240,#1241,#1242,#1243,
#1244,#1245,#1246,#1247,#1248,#1249,#1250,#1251,#1252,#1253));
#1255=STYLED_ITEM('',(#1256),#1263);
#1256=PRESENTATION_STYLE_ASSIGNMENT((#1257));
#1257=SURFACE_STYLE_USAGE(.BOTH.,#1258);
#1258=SURFACE_SIDE_STYLE('',(#1259));
#1259=SURFACE_STYLE_FILL_AREA(#1260);
#1260=FILL_AREA_STYLE('',(#1261));
#1261=FILL_AREA_STYLE_COLOUR('',#1262);
#1262=COLOUR_RGB('',0.0666666666666667,0.0666666666666667,0.0666666666666667);
#1263=MANIFOLD_SOLID_BREP('Part 1',#1254);
#1264=SHAPE_DEFINITION_REPRESENTATION(#2020,#1265);
#1265=SHAPE_REPRESENTATION('Part 1',(#1266),#2015);
#1266=AXIS2_PLACEMENT_3D('',#1665,#1349,#1350);
#1267=AXIS2_PLACEMENT_3D('',#1666,#1351,#1352);
#1268=AXIS2_PLACEMENT_3D('',#1699,#1369,#1370);
#1269=AXIS2_PLACEMENT_3D('',#1724,#1383,#1384);
#1270=AXIS2_PLACEMENT_3D('',#1749,#1397,#1398);
#1271=AXIS2_PLACEMENT_3D('',#1783,#1416,#1417);
#1272=AXIS2_PLACEMENT_3D('',#1790,#1422,#1423);
#1273=AXIS2_PLACEMENT_3D('',#1828,#1448,#1449);
#1274=AXIS2_PLACEMENT_3D('',#1837,#1454,#1455);
#1275=AXIS2_PLACEMENT_3D('',#1838,#1456,#1457);
#1276=AXIS2_PLACEMENT_3D('',#1840,#1458,#1459);
#1277=AXIS2_PLACEMENT_3D('',#1842,#1460,#1461);
#1278=AXIS2_PLACEMENT_3D('',#1844,#1462,#1463);
#1279=AXIS2_PLACEMENT_3D('',#1863,#1474,#1475);
#1280=AXIS2_PLACEMENT_3D('',#1866,#1478,#1479);
#1281=AXIS2_PLACEMENT_3D('',#1869,#1482,#1483);
#1282=AXIS2_PLACEMENT_3D('',#1871,#1485,#1486);
#1283=AXIS2_PLACEMENT_3D('',#1873,#1488,#1489);
#1284=AXIS2_PLACEMENT_3D('',#1874,#1490,#1491);
#1285=AXIS2_PLACEMENT_3D('',#1876,#1493,#1494);
#1286=AXIS2_PLACEMENT_3D('',#1878,#1496,#1497);
#1287=AXIS2_PLACEMENT_3D('',#1880,#1499,#1500);
#1288=AXIS2_PLACEMENT_3D('',#1884,#1503,#1504);
#1289=AXIS2_PLACEMENT_3D('',#1888,#1507,#1508);
#1290=AXIS2_PLACEMENT_3D('',#1889,#1509,#1510);
#1291=AXIS2_PLACEMENT_3D('',#1891,#1511,#1512);
#1292=AXIS2_PLACEMENT_3D('',#1893,#1513,#1514);
#1293=AXIS2_PLACEMENT_3D('',#1895,#1516,#1517);
#1294=AXIS2_PLACEMENT_3D('',#1896,#1518,#1519);
#1295=AXIS2_PLACEMENT_3D('',#1900,#1522,#1523);
#1296=AXIS2_PLACEMENT_3D('',#1904,#1526,#1527);
#1297=AXIS2_PLACEMENT_3D('',#1906,#1529,#1530);
#1298=AXIS2_PLACEMENT_3D('',#1907,#1531,#1532);
#1299=AXIS2_PLACEMENT_3D('',#1909,#1533,#1534);
#1300=AXIS2_PLACEMENT_3D('',#1911,#1535,#1536);
#1301=AXIS2_PLACEMENT_3D('',#1912,#1537,#1538);
#1302=AXIS2_PLACEMENT_3D('',#1916,#1541,#1542);
#1303=AXIS2_PLACEMENT_3D('',#1918,#1544,#1545);
#1304=AXIS2_PLACEMENT_3D('',#1919,#1546,#1547);
#1305=AXIS2_PLACEMENT_3D('',#1921,#1548,#1549);
#1306=AXIS2_PLACEMENT_3D('',#1923,#1550,#1551);
#1307=AXIS2_PLACEMENT_3D('',#1924,#1552,#1553);
#1308=AXIS2_PLACEMENT_3D('',#1925,#1554,#1555);
#1309=AXIS2_PLACEMENT_3D('',#1926,#1556,#1557);
#1310=AXIS2_PLACEMENT_3D('',#1927,#1558,#1559);
#1311=AXIS2_PLACEMENT_3D('',#1931,#1562,#1563);
#1312=AXIS2_PLACEMENT_3D('',#1932,#1564,#1565);
#1313=AXIS2_PLACEMENT_3D('',#1934,#1566,#1567);
#1314=AXIS2_PLACEMENT_3D('',#1936,#1568,#1569);
#1315=AXIS2_PLACEMENT_3D('',#1938,#1571,#1572);
#1316=AXIS2_PLACEMENT_3D('',#1939,#1573,#1574);
#1317=AXIS2_PLACEMENT_3D('',#1940,#1575,#1576);
#1318=AXIS2_PLACEMENT_3D('',#1949,#1581,#1582);
#1319=AXIS2_PLACEMENT_3D('',#1955,#1586,#1587);
#1320=AXIS2_PLACEMENT_3D('',#1961,#1591,#1592);
#1321=AXIS2_PLACEMENT_3D('',#1964,#1595,#1596);
#1322=AXIS2_PLACEMENT_3D('',#1965,#1597,#1598);
#1323=AXIS2_PLACEMENT_3D('',#1966,#1599,#1600);
#1324=AXIS2_PLACEMENT_3D('',#1975,#1605,#1606);
#1325=AXIS2_PLACEMENT_3D('',#1976,#1607,#1608);
#1326=AXIS2_PLACEMENT_3D('',#1978,#1609,#1610);
#1327=AXIS2_PLACEMENT_3D('',#1979,#1611,#1612);
#1328=AXIS2_PLACEMENT_3D('',#1980,#1613,#1614);
#1329=AXIS2_PLACEMENT_3D('',#1982,#1615,#1616);
#1330=AXIS2_PLACEMENT_3D('',#1983,#1617,#1618);
#1331=AXIS2_PLACEMENT_3D('',#1984,#1619,#1620);
#1332=AXIS2_PLACEMENT_3D('',#1986,#1621,#1622);
#1333=AXIS2_PLACEMENT_3D('',#1987,#1623,#1624);
#1334=AXIS2_PLACEMENT_3D('',#1988,#1625,#1626);
#1335=AXIS2_PLACEMENT_3D('',#1990,#1627,#1628);
#1336=AXIS2_PLACEMENT_3D('',#1991,#1629,#1630);
#1337=AXIS2_PLACEMENT_3D('',#1994,#1633,#1634);
#1338=AXIS2_PLACEMENT_3D('',#1996,#1636,#1637);
#1339=AXIS2_PLACEMENT_3D('',#1998,#1639,#1640);
#1340=AXIS2_PLACEMENT_3D('',#1999,#1641,#1642);
#1341=AXIS2_PLACEMENT_3D('',#2002,#1645,#1646);
#1342=AXIS2_PLACEMENT_3D('',#2003,#1647,#1648);
#1343=AXIS2_PLACEMENT_3D('',#2004,#1649,#1650);
#1344=AXIS2_PLACEMENT_3D('',#2007,#1653,#1654);
#1345=AXIS2_PLACEMENT_3D('',#2008,#1655,#1656);
#1346=AXIS2_PLACEMENT_3D('',#2009,#1657,#1658);
#1347=AXIS2_PLACEMENT_3D('',#2012,#1661,#1662);
#1348=AXIS2_PLACEMENT_3D('',#2013,#1663,#1664);
#1349=DIRECTION('',(0.,0.,1.));
#1350=DIRECTION('',(1.,0.,0.));
#1351=DIRECTION('',(1.,0.,0.));
#1352=DIRECTION('',(0.,0.,-1.));
#1353=DIRECTION('',(0.,-1.,0.));
#1354=DIRECTION('',(0.,0.,1.));
#1355=DIRECTION('',(0.,-1.,0.));
#1356=DIRECTION('',(0.,0.,-1.));
#1357=DIRECTION('',(0.,0.,-1.));
#1358=DIRECTION('',(0.,1.,0.));
#1359=DIRECTION('',(0.,0.,-1.));
#1360=DIRECTION('',(0.,1.,0.));
#1361=DIRECTION('',(0.,0.,-1.));
#1362=DIRECTION('',(0.,1.,0.));
#1363=DIRECTION('',(0.,0.,-1.));
#1364=DIRECTION('',(0.,1.,0.));
#1365=DIRECTION('',(0.,0.,-1.));
#1366=DIRECTION('',(0.,1.,0.));
#1367=DIRECTION('',(0.,0.,-1.));
#1368=DIRECTION('',(0.,1.,0.));
#1369=DIRECTION('',(0.,1.,0.));
#1370=DIRECTION('',(0.,0.,1.));
#1371=DIRECTION('',(1.,0.,0.));
#1372=DIRECTION('',(-2.16840434497101E-16,0.,1.));
#1373=DIRECTION('',(1.,0.,0.));
#1374=DIRECTION('',(-2.16840434497101E-16,0.,1.));
#1375=DIRECTION('',(0.,0.,-1.));
#1376=DIRECTION('',(1.,0.,0.));
#1377=DIRECTION('',(0.,0.,-1.));
#1378=DIRECTION('',(1.,0.,0.));
#1379=DIRECTION('',(0.,0.,-1.));
#1380=DIRECTION('',(-1.,0.,0.));
#1381=DIRECTION('',(0.,0.,-1.));
#1382=DIRECTION('',(1.,0.,0.));
#1383=DIRECTION('',(1.45250078033586E-16,-1.,0.));
#1384=DIRECTION('',(1.,1.45250078033586E-16,0.));
#1385=DIRECTION('',(0.,0.,-1.));
#1386=DIRECTION('',(1.,0.,0.));
#1387=DIRECTION('',(0.,0.,-1.));
#1388=DIRECTION('',(-1.,-1.45250078033586E-16,0.));
#1389=DIRECTION('',(0.,0.,-1.));
#1390=DIRECTION('',(-1.,0.,0.));
#1391=DIRECTION('',(0.,0.,-1.));
#1392=DIRECTION('',(-1.,-1.45250078033586E-16,0.));
#1393=DIRECTION('',(0.,0.,-1.));
#1394=DIRECTION('',(-1.,-1.45250078033586E-16,0.));
#1395=DIRECTION('',(0.,0.,-1.));
#1396=DIRECTION('',(-1.,-1.45250078033586E-16,0.));
#1397=DIRECTION('',(1.,0.,0.));
#1398=DIRECTION('',(0.,0.,-1.));
#1399=DIRECTION('',(0.,1.,0.));
#1400=DIRECTION('',(0.,0.,-1.));
#1401=DIRECTION('',(0.,-1.,0.));
#1402=DIRECTION('',(0.,0.,-1.));
#1403=DIRECTION('',(0.,-1.,0.));
#1404=DIRECTION('',(0.,-1.,0.));
#1405=DIRECTION('',(0.,0.,-1.));
#1406=DIRECTION('',(0.,-1.,0.));
#1407=DIRECTION('',(0.,0.,-1.));
#1408=DIRECTION('',(0.,1.,0.));
#1409=DIRECTION('',(0.,0.,-1.));
#1410=DIRECTION('',(0.,-1.,0.));
#1411=DIRECTION('',(0.,0.,-1.));
#1412=DIRECTION('',(0.,1.,0.));
#1413=DIRECTION('',(0.,0.,-1.));
#1414=DIRECTION('',(0.,-1.,0.));
#1415=DIRECTION('',(0.,0.,-1.));
#1416=DIRECTION('',(1.,0.,0.));
#1417=DIRECTION('',(0.,0.,-1.));
#1418=DIRECTION('',(0.,0.,-1.));
#1419=DIRECTION('',(0.,-1.,0.));
#1420=DIRECTION('',(0.,-1.,0.));
#1421=DIRECTION('',(0.,-1.,0.));
#1422=DIRECTION('',(0.,0.,1.));
#1423=DIRECTION('',(1.,0.,0.));
#1424=DIRECTION('',(1.,0.,0.));
#1425=DIRECTION('',(1.,0.,0.));
#1426=DIRECTION('',(1.,0.,0.));
#1427=DIRECTION('',(1.,0.,0.));
#1428=DIRECTION('',(1.,0.,0.));
#1429=DIRECTION('',(1.,0.,0.));
#1430=DIRECTION('',(-1.,0.,0.));
#1431=DIRECTION('',(0.,-1.,0.));
#1432=DIRECTION('',(0.,-1.,0.));
#1433=DIRECTION('',(1.,0.,0.));
#1434=DIRECTION('',(0.,1.,0.));
#1435=DIRECTION('',(-1.,0.,0.));
#1436=DIRECTION('',(0.,1.,0.));
#1437=DIRECTION('',(0.,1.,0.));
#1438=DIRECTION('',(1.,0.,0.));
#1439=DIRECTION('',(0.,1.,0.));
#1440=DIRECTION('',(0.,1.,0.));
#1441=DIRECTION('',(-1.,0.,0.));
#1442=DIRECTION('',(0.,-1.,0.));
#1443=DIRECTION('',(1.,0.,0.));
#1444=DIRECTION('',(0.,1.,0.));
#1445=DIRECTION('',(1.,0.,0.));
#1446=DIRECTION('',(0.,-1.,0.));
#1447=DIRECTION('',(-1.,0.,0.));
#1448=DIRECTION('',(1.,0.,0.));
#1449=DIRECTION('',(0.,0.,-1.));
#1450=DIRECTION('',(0.,-1.,0.));
#1451=DIRECTION('',(0.,0.,1.));
#1452=DIRECTION('',(0.,-1.,0.));
#1453=DIRECTION('',(0.,0.,-1.));
#1454=DIRECTION('',(0.,0.,1.));
#1455=DIRECTION('',(1.,0.,0.));
#1456=DIRECTION('',(0.,0.,1.));
#1457=DIRECTION('',(1.,0.,0.));
#1458=DIRECTION('',(0.,0.,1.));
#1459=DIRECTION('',(1.,0.,0.));
#1460=DIRECTION('',(0.,0.,1.));
#1461=DIRECTION('',(1.,0.,0.));
#1462=DIRECTION('',(0.,0.,1.));
#1463=DIRECTION('',(1.,0.,0.));
#1464=DIRECTION('',(-1.,0.,0.));
#1465=DIRECTION('',(0.,1.,0.));
#1466=DIRECTION('',(1.,0.,0.));
#1467=DIRECTION('',(0.,-1.,0.));
#1468=DIRECTION('',(-1.,0.,0.));
#1469=DIRECTION('',(0.,1.,0.));
#1470=DIRECTION('',(-1.,0.,0.));
#1471=DIRECTION('',(0.,-1.,0.));
#1472=DIRECTION('',(-1.,0.,0.));
#1473=DIRECTION('',(1.,0.,0.));
#1474=DIRECTION('',(0.,0.,1.));
#1475=DIRECTION('',(1.,0.,0.));
#1476=DIRECTION('',(1.,0.,0.));
#1477=DIRECTION('',(1.,0.,0.));
#1478=DIRECTION('',(0.,1.,0.));
#1479=DIRECTION('',(0.,0.,1.));
#1480=DIRECTION('',(0.,0.,-1.));
#1481=DIRECTION('',(0.,0.,-1.));
#1482=DIRECTION('',(1.,0.,0.));
#1483=DIRECTION('',(0.,0.,-1.));
#1484=DIRECTION('',(0.,0.,-1.));
#1485=DIRECTION('',(0.,-1.,0.));
#1486=DIRECTION('',(0.,0.,-1.));
#1487=DIRECTION('',(0.,0.,-1.));
#1488=DIRECTION('',(-1.,0.,0.));
#1489=DIRECTION('',(0.,0.,1.));
#1490=DIRECTION('',(-1.,0.,0.));
#1491=DIRECTION('',(0.,0.,1.));
#1492=DIRECTION('',(0.,0.,-1.));
#1493=DIRECTION('',(0.,-1.,0.));
#1494=DIRECTION('',(0.,0.,-1.));
#1495=DIRECTION('',(0.,0.,-1.));
#1496=DIRECTION('',(1.,0.,0.));
#1497=DIRECTION('',(0.,0.,-1.));
#1498=DIRECTION('',(0.,0.,-1.));
#1499=DIRECTION('',(-1.,0.,0.));
#1500=DIRECTION('',(0.,0.,1.));
#1501=DIRECTION('',(0.,0.,-1.));
#1502=DIRECTION('',(0.,1.,0.));
#1503=DIRECTION('',(0.,-1.,0.));
#1504=DIRECTION('',(0.,0.,-1.));
#1505=DIRECTION('',(0.,0.,-1.));
#1506=DIRECTION('',(-1.,0.,0.));
#1507=DIRECTION('',(0.,0.,-1.));
#1508=DIRECTION('',(-1.,0.,0.));
#1509=DIRECTION('',(0.,0.,1.));
#1510=DIRECTION('',(1.,0.,0.));
#1511=DIRECTION('',(0.,0.,1.));
#1512=DIRECTION('',(1.,0.,0.));
#1513=DIRECTION('',(-1.,0.,0.));
#1514=DIRECTION('',(0.,0.,1.));
#1515=DIRECTION('',(0.,1.,0.));
#1516=DIRECTION('',(0.,0.,1.));
#1517=DIRECTION('',(1.,0.,0.));
#1518=DIRECTION('',(-1.,0.,0.));
#1519=DIRECTION('',(0.,0.,1.));
#1520=DIRECTION('',(0.,1.,0.));
#1521=DIRECTION('',(0.,0.,-1.));
#1522=DIRECTION('',(-1.,0.,0.));
#1523=DIRECTION('',(0.,0.,1.));
#1524=DIRECTION('',(0.,0.,-1.));
#1525=DIRECTION('',(0.,1.,0.));
#1526=DIRECTION('',(0.,1.,0.));
#1527=DIRECTION('',(0.,0.,1.));
#1528=DIRECTION('',(1.,0.,0.));
#1529=DIRECTION('',(0.,0.,-1.));
#1530=DIRECTION('',(-1.,0.,0.));
#1531=DIRECTION('',(0.,0.,1.));
#1532=DIRECTION('',(1.,0.,0.));
#1533=DIRECTION('',(0.,0.,1.));
#1534=DIRECTION('',(1.,0.,0.));
#1535=DIRECTION('',(0.,0.,1.));
#1536=DIRECTION('',(1.,0.,0.));
#1537=DIRECTION('',(1.,0.,0.));
#1538=DIRECTION('',(0.,0.,-1.));
#1539=DIRECTION('',(0.,0.,-1.));
#1540=DIRECTION('',(0.,-1.,0.));
#1541=DIRECTION('',(0.,-1.,0.));
#1542=DIRECTION('',(0.,0.,-1.));
#1543=DIRECTION('',(-1.,0.,0.));
#1544=DIRECTION('',(0.,0.,-1.));
#1545=DIRECTION('',(-1.,0.,0.));
#1546=DIRECTION('',(0.,0.,1.));
#1547=DIRECTION('',(1.,0.,0.));
#1548=DIRECTION('',(0.,0.,1.));
#1549=DIRECTION('',(1.,0.,0.));
#1550=DIRECTION('',(0.,0.,1.));
#1551=DIRECTION('',(1.,0.,0.));
#1552=DIRECTION('',(0.,0.,1.));
#1553=DIRECTION('',(1.,0.,0.));
#1554=DIRECTION('',(0.,0.,1.));
#1555=DIRECTION('',(1.,0.,0.));
#1556=DIRECTION('',(0.,0.,1.));
#1557=DIRECTION('',(1.,0.,0.));
#1558=DIRECTION('',(0.,1.,0.));
#1559=DIRECTION('',(0.,0.,1.));
#1560=DIRECTION('',(0.,0.,-1.));
#1561=DIRECTION('',(1.,0.,0.));
#1562=DIRECTION('',(0.,0.,-1.));
#1563=DIRECTION('',(-1.,0.,0.));
#1564=DIRECTION('',(0.,0.,1.));
#1565=DIRECTION('',(1.,0.,0.));
#1566=DIRECTION('',(0.,0.,1.));
#1567=DIRECTION('',(1.,0.,0.));
#1568=DIRECTION('',(1.,0.,0.));
#1569=DIRECTION('',(0.,0.,-1.));
#1570=DIRECTION('',(0.,-1.,0.));
#1571=DIRECTION('',(0.,0.,1.));
#1572=DIRECTION('',(1.,0.,0.));
#1573=DIRECTION('',(0.,0.,1.));
#1574=DIRECTION('',(1.,0.,0.));
#1575=DIRECTION('',(0.,0.,1.));
#1576=DIRECTION('',(1.,0.,0.));
#1577=DIRECTION('',(1.,0.,0.));
#1578=DIRECTION('',(0.,1.,0.));
#1579=DIRECTION('',(1.,0.,0.));
#1580=DIRECTION('',(0.,1.,0.));
#1581=DIRECTION('',(1.,0.,0.));
#1582=DIRECTION('',(0.,0.,-1.));
#1583=DIRECTION('',(0.,0.,-1.));
#1584=DIRECTION('',(0.,1.,0.));
#1585=DIRECTION('',(0.,0.,-1.));
#1586=DIRECTION('',(0.,0.,1.));
#1587=DIRECTION('',(1.,0.,0.));
#1588=DIRECTION('',(1.,0.,0.));
#1589=DIRECTION('',(0.,1.,0.));
#1590=DIRECTION('',(1.,0.,0.));
#1591=DIRECTION('',(1.,0.,0.));
#1592=DIRECTION('',(0.,0.,-1.));
#1593=DIRECTION('',(0.,0.,-1.));
#1594=DIRECTION('',(0.,0.,-1.));
#1595=DIRECTION('',(0.,-1.,0.));
#1596=DIRECTION('',(1.,0.,0.));
#1597=DIRECTION('',(0.,-1.,0.));
#1598=DIRECTION('',(1.,0.,0.));
#1599=DIRECTION('',(0.,1.,0.));
#1600=DIRECTION('',(0.,0.,1.));
#1601=DIRECTION('',(-2.16840434497101E-16,0.,1.));
#1602=DIRECTION('',(1.,0.,0.));
#1603=DIRECTION('',(-2.16840434497101E-16,0.,1.));
#1604=DIRECTION('',(1.,0.,0.));
#1605=DIRECTION('',(0.,0.,-1.));
#1606=DIRECTION('',(-1.,0.,0.));
#1607=DIRECTION('',(0.,0.,1.));
#1608=DIRECTION('',(1.,0.,0.));
#1609=DIRECTION('',(0.,0.,1.));
#1610=DIRECTION('',(1.,0.,0.));
#1611=DIRECTION('',(0.,0.,-1.));
#1612=DIRECTION('',(-1.,0.,0.));
#1613=DIRECTION('',(0.,0.,1.));
#1614=DIRECTION('',(1.,0.,0.));
#1615=DIRECTION('',(0.,0.,1.));
#1616=DIRECTION('',(1.,0.,0.));
#1617=DIRECTION('',(0.,0.,-1.));
#1618=DIRECTION('',(-1.,0.,0.));
#1619=DIRECTION('',(0.,0.,1.));
#1620=DIRECTION('',(1.,0.,0.));
#1621=DIRECTION('',(0.,0.,1.));
#1622=DIRECTION('',(1.,0.,0.));
#1623=DIRECTION('',(0.,0.,-1.));
#1624=DIRECTION('',(-1.,0.,0.));
#1625=DIRECTION('',(0.,0.,1.));
#1626=DIRECTION('',(1.,0.,0.));
#1627=DIRECTION('',(0.,0.,1.));
#1628=DIRECTION('',(1.,0.,0.));
#1629=DIRECTION('',(-1.,0.,-2.16840434497101E-16));
#1630=DIRECTION('',(-2.16840434497101E-16,0.,1.));
#1631=DIRECTION('',(0.,1.,0.));
#1632=DIRECTION('',(0.,1.,0.));
#1633=DIRECTION('',(0.,0.,1.));
#1634=DIRECTION('',(1.,0.,0.));
#1635=DIRECTION('',(0.,1.,0.));
#1636=DIRECTION('',(-1.,0.,-2.16840434497101E-16));
#1637=DIRECTION('',(-2.16840434497101E-16,0.,1.));
#1638=DIRECTION('',(0.,1.,0.));
#1639=DIRECTION('',(0.,0.,1.));
#1640=DIRECTION('',(1.,0.,0.));
#1641=DIRECTION('',(0.,0.,-1.));
#1642=DIRECTION('',(-1.,0.,0.));
#1643=DIRECTION('',(1.,0.,0.));
#1644=DIRECTION('',(1.,0.,0.));
#1645=DIRECTION('',(0.,-1.,0.));
#1646=DIRECTION('',(0.,0.,-1.));
#1647=DIRECTION('',(0.,-1.,0.));
#1648=DIRECTION('',(0.,0.,-1.));
#1649=DIRECTION('',(0.,0.,-1.));
#1650=DIRECTION('',(-1.,0.,0.));
#1651=DIRECTION('',(1.,0.,0.));
#1652=DIRECTION('',(1.,0.,0.));
#1653=DIRECTION('',(0.,-1.,0.));
#1654=DIRECTION('',(0.,0.,-1.));
#1655=DIRECTION('',(0.,-1.,0.));
#1656=DIRECTION('',(0.,0.,-1.));
#1657=DIRECTION('',(0.,0.,-1.));
#1658=DIRECTION('',(-1.,0.,0.));
#1659=DIRECTION('',(1.,0.,0.));
#1660=DIRECTION('',(1.,0.,0.));
#1661=DIRECTION('',(0.,-1.,0.));
#1662=DIRECTION('',(0.,0.,-1.));
#1663=DIRECTION('',(0.,-1.,0.));
#1664=DIRECTION('',(0.,0.,-1.));
#1665=CARTESIAN_POINT('',(0.,0.,0.));
#1666=CARTESIAN_POINT('',(0.043832913385827,0.012029982243877,0.022));
#1667=CARTESIAN_POINT('',(0.043832913385827,0.012029982243877,0.022));
#1668=CARTESIAN_POINT('',(0.043832913385827,0.045432086614173,0.022));
#1669=CARTESIAN_POINT('',(0.043832913385827,-0.0296515602149069,0.022));
#1670=CARTESIAN_POINT('',(0.043832913385827,-0.0296515602149069,0.0095));
#1671=CARTESIAN_POINT('',(0.043832913385827,-0.0296515602149069,-0.003));
#1672=CARTESIAN_POINT('',(0.043832913385827,0.012029982243877,-0.003));
#1673=CARTESIAN_POINT('',(0.043832913385827,0.045432086614173,-0.003));
#1674=CARTESIAN_POINT('',(0.043832913385827,0.045432086614173,0.022));
#1675=CARTESIAN_POINT('',(0.043832913385827,0.026,0.006));
#1676=CARTESIAN_POINT('',(0.043832913385827,0.026,0.012));
#1677=CARTESIAN_POINT('',(0.043832913385827,0.026,0.));
#1678=CARTESIAN_POINT('',(0.043832913385827,0.027,0.012));
#1679=CARTESIAN_POINT('',(0.043832913385827,0.028,0.012));
#1680=CARTESIAN_POINT('',(0.043832913385827,0.028,0.006));
#1681=CARTESIAN_POINT('',(0.043832913385827,0.028,0.));
#1682=CARTESIAN_POINT('',(0.043832913385827,0.027,0.));
#1683=CARTESIAN_POINT('',(0.043832913385827,0.022,0.006));
#1684=CARTESIAN_POINT('',(0.043832913385827,0.022,0.012));
#1685=CARTESIAN_POINT('',(0.043832913385827,0.022,0.));
#1686=CARTESIAN_POINT('',(0.043832913385827,0.023,0.012));
#1687=CARTESIAN_POINT('',(0.043832913385827,0.024,0.012));
#1688=CARTESIAN_POINT('',(0.043832913385827,0.024,0.006));
#1689=CARTESIAN_POINT('',(0.043832913385827,0.024,0.));
#1690=CARTESIAN_POINT('',(0.043832913385827,0.023,0.));
#1691=CARTESIAN_POINT('',(0.043832913385827,0.018,0.006));
#1692=CARTESIAN_POINT('',(0.043832913385827,0.018,0.012));
#1693=CARTESIAN_POINT('',(0.043832913385827,0.018,0.));
#1694=CARTESIAN_POINT('',(0.043832913385827,0.019,0.012));
#1695=CARTESIAN_POINT('',(0.043832913385827,0.02,0.012));
#1696=CARTESIAN_POINT('',(0.043832913385827,0.02,0.006));
#1697=CARTESIAN_POINT('',(0.043832913385827,0.02,0.));
#1698=CARTESIAN_POINT('',(0.043832913385827,0.019,0.));
#1699=CARTESIAN_POINT('',(0.000332913385826999,0.038432086614173,0.022));
#1700=CARTESIAN_POINT('',(0.000332913385826999,0.038432086614173,0.00367568031476571));
#1701=CARTESIAN_POINT('',(-0.00666301131965413,0.038432086614173,0.00367568031476571));
#1702=CARTESIAN_POINT('',(0.00733698868034587,0.038432086614173,0.00367568031476571));
#1703=CARTESIAN_POINT('',(-0.00666301131965414,0.038432086614173,0.022));
#1704=CARTESIAN_POINT('',(-0.00666301131965414,0.038432086614173,0.0116756803147657));
#1705=CARTESIAN_POINT('',(0.000332913385826999,0.038432086614173,0.0116756803147657));
#1706=CARTESIAN_POINT('',(0.00733698868034587,0.038432086614173,0.0116756803147657));
#1707=CARTESIAN_POINT('',(0.00733698868034586,0.038432086614173,0.022));
#1708=CARTESIAN_POINT('',(-0.039167086614173,0.038432086614173,0.022));
#1709=CARTESIAN_POINT('',(-0.039167086614173,0.038432086614173,0.022));
#1710=CARTESIAN_POINT('',(-0.039167086614173,0.038432086614173,0.0118));
#1711=CARTESIAN_POINT('',(-0.034667086614173,0.038432086614173,0.0118));
#1712=CARTESIAN_POINT('',(-0.030167086614173,0.038432086614173,0.0118));
#1713=CARTESIAN_POINT('',(-0.030167086614173,0.038432086614173,0.0118));
#1714=CARTESIAN_POINT('',(-0.030167086614173,0.038432086614173,0.));
#1715=CARTESIAN_POINT('',(0.000332913385826999,0.038432086614173,0.));
#1716=CARTESIAN_POINT('',(0.030832913385827,0.038432086614173,0.));
#1717=CARTESIAN_POINT('',(0.030832913385827,0.038432086614173,0.0118));
#1718=CARTESIAN_POINT('',(0.030832913385827,0.038432086614173,0.0118));
#1719=CARTESIAN_POINT('',(0.035332913385827,0.038432086614173,0.0118));
#1720=CARTESIAN_POINT('',(0.039832913385827,0.038432086614173,0.0118));
#1721=CARTESIAN_POINT('',(0.039832913385827,0.038432086614173,0.022));
#1722=CARTESIAN_POINT('',(0.039832913385827,0.038432086614173,0.022));
#1723=CARTESIAN_POINT('',(0.000332913385826999,0.038432086614173,0.022));
#1724=CARTESIAN_POINT('',(-0.0033380495603886,-0.011567913385827,0.022));
#1725=CARTESIAN_POINT('',(0.030832913385827,-0.011567913385827,0.0118));
#1726=CARTESIAN_POINT('',(0.030832913385827,-0.011567913385827,0.0118));
#1727=CARTESIAN_POINT('',(0.030832913385827,-0.011567913385827,0.));
#1728=CARTESIAN_POINT('',(0.026332913385827,-0.011567913385827,0.0118));
#1729=CARTESIAN_POINT('',(0.021832913385827,-0.011567913385827,0.0118));
#1730=CARTESIAN_POINT('',(0.021832913385827,-0.011567913385827,0.0118));
#1731=CARTESIAN_POINT('',(0.021832913385827,-0.011567913385827,0.));
#1732=CARTESIAN_POINT('',(-0.0033380495603886,-0.011567913385827,0.));
#1733=CARTESIAN_POINT('',(-0.021167086614173,-0.011567913385827,0.));
#1734=CARTESIAN_POINT('',(-0.021167086614173,-0.011567913385827,0.0118));
#1735=CARTESIAN_POINT('',(-0.021167086614173,-0.011567913385827,0.0118));
#1736=CARTESIAN_POINT('',(-0.025667086614173,-0.011567913385827,0.0118));
#1737=CARTESIAN_POINT('',(-0.030167086614173,-0.011567913385827,0.0118));
#1738=CARTESIAN_POINT('',(-0.030167086614173,-0.011567913385827,0.0118));
#1739=CARTESIAN_POINT('',(-0.030167086614173,-0.011567913385827,0.));
#1740=CARTESIAN_POINT('',(-0.0033380495603886,-0.011567913385827,0.));
#1741=CARTESIAN_POINT('',(-0.039167086614173,-0.011567913385827,0.));
#1742=CARTESIAN_POINT('',(-0.039167086614173,-0.011567913385827,0.022));
#1743=CARTESIAN_POINT('',(-0.039167086614173,-0.011567913385827,0.022));
#1744=CARTESIAN_POINT('',(-0.0033380495603886,-0.011567913385827,0.022));
#1745=CARTESIAN_POINT('',(0.0324909874933958,-0.011567913385827,0.022));
#1746=CARTESIAN_POINT('',(0.0324909874933958,-0.011567913385827,0.022));
#1747=CARTESIAN_POINT('',(0.0324909874933958,-0.011567913385827,0.));
#1748=CARTESIAN_POINT('',(-0.0033380495603886,-0.011567913385827,0.));
#1749=CARTESIAN_POINT('',(0.039832913385827,0.010029982243877,0.022));
#1750=CARTESIAN_POINT('',(0.039832913385827,0.010029982243877,0.012));
#1751=CARTESIAN_POINT('',(0.039832913385827,0.018,0.012));
#1752=CARTESIAN_POINT('',(0.039832913385827,0.02,0.012));
#1753=CARTESIAN_POINT('',(0.039832913385827,0.018,0.022));
#1754=CARTESIAN_POINT('',(0.039832913385827,0.018,0.));
#1755=CARTESIAN_POINT('',(0.039832913385827,0.010029982243877,0.));
#1756=CARTESIAN_POINT('',(0.039832913385827,-0.011567913385827,0.));
#1757=CARTESIAN_POINT('',(0.039832913385827,-0.011567913385827,0.022));
#1758=CARTESIAN_POINT('',(0.039832913385827,-0.011567913385827,0.022));
#1759=CARTESIAN_POINT('',(0.039832913385827,0.010029982243877,0.022));
#1760=CARTESIAN_POINT('',(0.039832913385827,0.033932086614173,0.0118));
#1761=CARTESIAN_POINT('',(0.039832913385827,0.029432086614173,0.0118));
#1762=CARTESIAN_POINT('',(0.039832913385827,0.029432086614173,0.0118));
#1763=CARTESIAN_POINT('',(0.039832913385827,0.029432086614173,0.));
#1764=CARTESIAN_POINT('',(0.039832913385827,0.010029982243877,0.));
#1765=CARTESIAN_POINT('',(0.039832913385827,0.028,0.));
#1766=CARTESIAN_POINT('',(0.039832913385827,0.028,0.022));
#1767=CARTESIAN_POINT('',(0.039832913385827,0.028,0.012));
#1768=CARTESIAN_POINT('',(0.039832913385827,0.010029982243877,0.012));
#1769=CARTESIAN_POINT('',(0.039832913385827,0.026,0.012));
#1770=CARTESIAN_POINT('',(0.039832913385827,0.026,0.022));
#1771=CARTESIAN_POINT('',(0.039832913385827,0.026,0.));
#1772=CARTESIAN_POINT('',(0.039832913385827,0.010029982243877,0.));
#1773=CARTESIAN_POINT('',(0.039832913385827,0.024,0.));
#1774=CARTESIAN_POINT('',(0.039832913385827,0.024,0.022));
#1775=CARTESIAN_POINT('',(0.039832913385827,0.024,0.012));
#1776=CARTESIAN_POINT('',(0.039832913385827,0.010029982243877,0.012));
#1777=CARTESIAN_POINT('',(0.039832913385827,0.022,0.012));
#1778=CARTESIAN_POINT('',(0.039832913385827,0.022,0.022));
#1779=CARTESIAN_POINT('',(0.039832913385827,0.022,0.));
#1780=CARTESIAN_POINT('',(0.039832913385827,0.010029982243877,0.));
#1781=CARTESIAN_POINT('',(0.039832913385827,0.02,0.));
#1782=CARTESIAN_POINT('',(0.039832913385827,0.02,0.022));
#1783=CARTESIAN_POINT('',(-0.039167086614173,0.010029982243877,0.022));
#1784=CARTESIAN_POINT('',(-0.039167086614173,0.029432086614173,0.0118));
#1785=CARTESIAN_POINT('',(-0.039167086614173,0.029432086614173,0.0118));
#1786=CARTESIAN_POINT('',(-0.039167086614173,0.029432086614173,0.));
#1787=CARTESIAN_POINT('',(-0.039167086614173,0.033932086614173,0.0118));
#1788=CARTESIAN_POINT('',(-0.039167086614173,0.010029982243877,0.022));
#1789=CARTESIAN_POINT('',(-0.039167086614173,0.010029982243877,0.));
#1790=CARTESIAN_POINT('',(0.000332913385827006,0.012029982243877,0.));
#1791=CARTESIAN_POINT('',(0.038832913385827,0.018,0.));
#1792=CARTESIAN_POINT('',(0.038832913385827,0.02,0.));
#1793=CARTESIAN_POINT('',(0.038832913385827,0.022,0.));
#1794=CARTESIAN_POINT('',(0.038832913385827,0.024,0.));
#1795=CARTESIAN_POINT('',(0.038832913385827,0.026,0.));
#1796=CARTESIAN_POINT('',(0.038832913385827,0.028,0.));
#1797=CARTESIAN_POINT('',(0.035332913385827,0.029432086614173,0.));
#1798=CARTESIAN_POINT('',(0.030832913385827,0.029432086614173,0.));
#1799=CARTESIAN_POINT('',(0.030832913385827,0.033932086614173,0.));
#1800=CARTESIAN_POINT('',(-0.030167086614173,0.033932086614173,0.));
#1801=CARTESIAN_POINT('',(-0.030167086614173,0.029432086614173,0.));
#1802=CARTESIAN_POINT('',(-0.034667086614173,0.029432086614173,0.));
#1803=CARTESIAN_POINT('',(-0.030167086614173,-0.007067913385827,0.));
#1804=CARTESIAN_POINT('',(-0.030167086614173,-0.002567913385827,0.));
#1805=CARTESIAN_POINT('',(-0.025667086614173,-0.002567913385827,0.));
#1806=CARTESIAN_POINT('',(-0.021167086614173,-0.002567913385827,0.));
#1807=CARTESIAN_POINT('',(-0.021167086614173,-0.007067913385827,0.));
#1808=CARTESIAN_POINT('',(0.021832913385827,-0.007067913385827,0.));
#1809=CARTESIAN_POINT('',(0.021832913385827,-0.002567913385827,0.));
#1810=CARTESIAN_POINT('',(0.026332913385827,-0.002567913385827,0.));
#1811=CARTESIAN_POINT('',(0.030832913385827,-0.002567913385827,0.));
#1812=CARTESIAN_POINT('',(0.030832913385827,-0.007067913385827,0.));
#1813=CARTESIAN_POINT('',(0.0324909874933958,-0.014970017756123,0.));
#1814=CARTESIAN_POINT('',(0.0324909874933958,-0.0230915602149069,0.));
#1815=CARTESIAN_POINT('',(-0.00269901250660419,-0.0230915602149069,0.));
#1816=CARTESIAN_POINT('',(-0.0378890125066042,-0.0230915602149069,0.));
#1817=CARTESIAN_POINT('',(-0.0378890125066042,-0.0241915602149069,0.));
#1818=CARTESIAN_POINT('',(-0.0378890125066042,-0.0252915602149069,0.));
#1819=CARTESIAN_POINT('',(-0.0343340125066042,-0.0252915602149069,0.));
#1820=CARTESIAN_POINT('',(-0.0307790125066042,-0.0252915602149069,0.));
#1821=CARTESIAN_POINT('',(-0.0307790125066042,-0.0262215602149069,0.));
#1822=CARTESIAN_POINT('',(-0.0307790125066042,-0.0276515602149069,0.));
#1823=CARTESIAN_POINT('',(-0.0367230495603886,-0.0276515602149069,0.));
#1824=CARTESIAN_POINT('',(0.0362609874933958,-0.0276515602149069,0.));
#1825=CARTESIAN_POINT('',(0.0362609874933958,-0.022761841170663,0.));
#1826=CARTESIAN_POINT('',(0.0362609874933958,-0.011567913385827,0.));
#1827=CARTESIAN_POINT('',(0.0380469504396114,-0.011567913385827,0.));
#1828=CARTESIAN_POINT('',(-0.043167086614173,0.012029982243877,0.022));
#1829=CARTESIAN_POINT('',(-0.043167086614173,0.012029982243877,-0.003));
#1830=CARTESIAN_POINT('',(-0.043167086614173,0.045432086614173,-0.003));
#1831=CARTESIAN_POINT('',(-0.043167086614173,-0.0296515602149069,-0.003));
#1832=CARTESIAN_POINT('',(-0.043167086614173,-0.0296515602149069,0.0095));
#1833=CARTESIAN_POINT('',(-0.043167086614173,-0.0296515602149069,0.022));
#1834=CARTESIAN_POINT('',(-0.043167086614173,0.012029982243877,0.022));
#1835=CARTESIAN_POINT('',(-0.043167086614173,0.045432086614173,0.022));
#1836=CARTESIAN_POINT('',(-0.043167086614173,0.045432086614173,0.022));
#1837=CARTESIAN_POINT('',(0.000332913385827006,0.012029982243877,0.022));
#1838=CARTESIAN_POINT('',(0.026332913385827,-0.0175489773238427,0.022));
#1839=CARTESIAN_POINT('',(0.028632913385827,-0.0175489773238427,0.022));
#1840=CARTESIAN_POINT('',(-0.036167086614173,0.041932086614173,0.022));
#1841=CARTESIAN_POINT('',(-0.033867086614173,0.041932086614173,0.022));
#1842=CARTESIAN_POINT('',(0.036832913385827,0.041932086614173,0.022));
#1843=CARTESIAN_POINT('',(0.039132913385827,0.041932086614173,0.022));
#1844=CARTESIAN_POINT('',(-0.036167086614173,-0.0175489773238427,0.022));
#1845=CARTESIAN_POINT('',(-0.033867086614173,-0.0175489773238427,0.022));
#1846=CARTESIAN_POINT('',(0.000332913385827006,-0.0276515602149069,0.022));
#1847=CARTESIAN_POINT('',(0.0362609874933958,-0.0276515602149069,0.022));
#1848=CARTESIAN_POINT('',(-0.0307790125066042,-0.0276515602149069,0.022));
#1849=CARTESIAN_POINT('',(-0.0307790125066042,-0.0262215602149069,0.022));
#1850=CARTESIAN_POINT('',(-0.0307790125066042,-0.0252915602149069,0.022));
#1851=CARTESIAN_POINT('',(-0.0343340125066042,-0.0252915602149069,0.022));
#1852=CARTESIAN_POINT('',(-0.0378890125066042,-0.0252915602149069,0.022));
#1853=CARTESIAN_POINT('',(-0.0378890125066042,-0.0241915602149069,0.022));
#1854=CARTESIAN_POINT('',(-0.0378890125066042,-0.0230915602149069,0.022));
#1855=CARTESIAN_POINT('',(-0.00269901250660419,-0.0230915602149069,0.022));
#1856=CARTESIAN_POINT('',(0.0324909874933958,-0.0230915602149069,0.022));
#1857=CARTESIAN_POINT('',(0.0324909874933958,-0.014970017756123,0.022));
#1858=CARTESIAN_POINT('',(0.0380469504396114,-0.011567913385827,0.022));
#1859=CARTESIAN_POINT('',(0.0362609874933958,-0.011567913385827,0.022));
#1860=CARTESIAN_POINT('',(0.0362609874933958,-0.022761841170663,0.022));
#1861=CARTESIAN_POINT('',(0.000332913385827006,-0.0296515602149069,0.022));
#1862=CARTESIAN_POINT('',(0.000332913385827006,0.045432086614173,0.022));
#1863=CARTESIAN_POINT('',(0.000332913385827006,0.012029982243877,-0.003));
#1864=CARTESIAN_POINT('',(0.000332913385827006,0.045432086614173,-0.003));
#1865=CARTESIAN_POINT('',(0.000332913385827003,-0.0296515602149069,-0.003));
#1866=CARTESIAN_POINT('',(-0.0343340125066042,-0.0252915602149069,0.022));
#1867=CARTESIAN_POINT('',(-0.0378890125066042,-0.0252915602149069,0.022));
#1868=CARTESIAN_POINT('',(-0.0307790125066042,-0.0252915602149069,0.022));
#1869=CARTESIAN_POINT('',(-0.0378890125066042,-0.0241915602149069,0.022));
#1870=CARTESIAN_POINT('',(-0.0378890125066042,-0.0230915602149069,0.022));
#1871=CARTESIAN_POINT('',(-0.00269901250660419,-0.0230915602149069,0.022));
#1872=CARTESIAN_POINT('',(0.0324909874933958,-0.0230915602149069,0.022));
#1873=CARTESIAN_POINT('',(0.0324909874933958,-0.014970017756123,0.022));
#1874=CARTESIAN_POINT('',(-0.0307790125066042,-0.0262215602149069,0.022));
#1875=CARTESIAN_POINT('',(-0.0307790125066042,-0.0276515602149069,0.022));
#1876=CARTESIAN_POINT('',(0.0380469504396114,-0.011567913385827,0.022));
#1877=CARTESIAN_POINT('',(0.0362609874933958,-0.011567913385827,0.022));
#1878=CARTESIAN_POINT('',(0.0362609874933958,-0.022761841170663,0.022));
#1879=CARTESIAN_POINT('',(0.0362609874933958,-0.0276515602149069,0.022));
#1880=CARTESIAN_POINT('',(-0.021167086614173,-0.007067913385827,0.0118));
#1881=CARTESIAN_POINT('',(-0.021167086614173,-0.002567913385827,0.0118));
#1882=CARTESIAN_POINT('',(-0.021167086614173,-0.002567913385827,0.0118));
#1883=CARTESIAN_POINT('',(-0.021167086614173,-0.007067913385827,0.0118));
#1884=CARTESIAN_POINT('',(-0.025667086614173,-0.002567913385827,0.0118));
#1885=CARTESIAN_POINT('',(-0.030167086614173,-0.002567913385827,0.0118));
#1886=CARTESIAN_POINT('',(-0.030167086614173,-0.002567913385827,0.0118));
#1887=CARTESIAN_POINT('',(-0.025667086614173,-0.002567913385827,0.0118));
#1888=CARTESIAN_POINT('',(-0.025667086614173,-0.007067913385827,0.0118));
#1889=CARTESIAN_POINT('',(-0.025667086614173,-0.007067913385827,0.0118));
#1890=CARTESIAN_POINT('',(-0.023367086614173,-0.007067913385827,0.0118));
#1891=CARTESIAN_POINT('',(-0.025667086614173,-0.007067913385827,0.));
#1892=CARTESIAN_POINT('',(-0.023367086614173,-0.007067913385827,0.));
#1893=CARTESIAN_POINT('',(-0.030167086614173,-0.007067913385827,0.0118));
#1894=CARTESIAN_POINT('',(-0.030167086614173,-0.007067913385827,0.0118));
#1895=CARTESIAN_POINT('',(0.000332913385826999,0.013432086614173,0.0118));
#1896=CARTESIAN_POINT('',(0.021832913385827,-0.007067913385827,0.0118));
#1897=CARTESIAN_POINT('',(0.021832913385827,-0.007067913385827,0.0118));
#1898=CARTESIAN_POINT('',(0.021832913385827,-0.002567913385827,0.0118));
#1899=CARTESIAN_POINT('',(0.021832913385827,-0.002567913385827,0.0118));
#1900=CARTESIAN_POINT('',(0.030832913385827,-0.007067913385827,0.0118));
#1901=CARTESIAN_POINT('',(0.030832913385827,-0.002567913385827,0.0118));
#1902=CARTESIAN_POINT('',(0.030832913385827,-0.002567913385827,0.0118));
#1903=CARTESIAN_POINT('',(0.030832913385827,-0.007067913385827,0.0118));
#1904=CARTESIAN_POINT('',(0.026332913385827,-0.002567913385827,0.0118));
#1905=CARTESIAN_POINT('',(0.026332913385827,-0.002567913385827,0.0118));
#1906=CARTESIAN_POINT('',(0.026332913385827,-0.007067913385827,0.0118));
#1907=CARTESIAN_POINT('',(0.026332913385827,-0.007067913385827,0.0118));
#1908=CARTESIAN_POINT('',(0.028632913385827,-0.007067913385827,0.0118));
#1909=CARTESIAN_POINT('',(0.026332913385827,-0.007067913385827,0.));
#1910=CARTESIAN_POINT('',(0.028632913385827,-0.007067913385827,0.));
#1911=CARTESIAN_POINT('',(0.000332913385826999,0.013432086614173,0.0118));
#1912=CARTESIAN_POINT('',(0.030832913385827,0.033932086614173,0.0118));
#1913=CARTESIAN_POINT('',(0.030832913385827,0.029432086614173,0.0118));
#1914=CARTESIAN_POINT('',(0.030832913385827,0.029432086614173,0.0118));
#1915=CARTESIAN_POINT('',(0.030832913385827,0.033932086614173,0.0118));
#1916=CARTESIAN_POINT('',(0.035332913385827,0.029432086614173,0.0118));
#1917=CARTESIAN_POINT('',(0.035332913385827,0.029432086614173,0.0118));
#1918=CARTESIAN_POINT('',(0.035332913385827,0.033932086614173,0.0118));
#1919=CARTESIAN_POINT('',(0.035332913385827,0.033932086614173,0.0118));
#1920=CARTESIAN_POINT('',(0.037632913385827,0.033932086614173,0.0118));
#1921=CARTESIAN_POINT('',(0.035332913385827,0.033932086614173,0.));
#1922=CARTESIAN_POINT('',(0.037632913385827,0.033932086614173,0.));
#1923=CARTESIAN_POINT('',(0.000332913385826999,0.013432086614173,0.0118));
#1924=CARTESIAN_POINT('',(0.000332913385827006,0.012029982243877,0.));
#1925=CARTESIAN_POINT('',(0.000332913385827006,0.012029982243877,0.));
#1926=CARTESIAN_POINT('',(0.000332913385827006,0.012029982243877,0.));
#1927=CARTESIAN_POINT('',(-0.034667086614173,0.029432086614173,0.0118));
#1928=CARTESIAN_POINT('',(-0.030167086614173,0.029432086614173,0.0118));
#1929=CARTESIAN_POINT('',(-0.030167086614173,0.029432086614173,0.0118));
#1930=CARTESIAN_POINT('',(-0.034667086614173,0.029432086614173,0.0118));
#1931=CARTESIAN_POINT('',(-0.034667086614173,0.033932086614173,0.0118));
#1932=CARTESIAN_POINT('',(-0.034667086614173,0.033932086614173,0.0118));
#1933=CARTESIAN_POINT('',(-0.032367086614173,0.033932086614173,0.0118));
#1934=CARTESIAN_POINT('',(-0.034667086614173,0.033932086614173,0.));
#1935=CARTESIAN_POINT('',(-0.032367086614173,0.033932086614173,0.));
#1936=CARTESIAN_POINT('',(-0.030167086614173,0.033932086614173,0.0118));
#1937=CARTESIAN_POINT('',(-0.030167086614173,0.033932086614173,0.0118));
#1938=CARTESIAN_POINT('',(0.000332913385826999,0.013432086614173,0.0118));
#1939=CARTESIAN_POINT('',(0.000332913385827006,0.012029982243877,0.));
#1940=CARTESIAN_POINT('',(0.000970987493395803,-0.0296515602149069,0.0200049933059514));
#1941=CARTESIAN_POINT('',(0.000970987493395803,-0.0276515602149069,0.0200049933059514));
#1942=CARTESIAN_POINT('',(-0.0302790125066042,-0.0276515602149069,0.0200049933059514));
#1943=CARTESIAN_POINT('',(0.0322209874933958,-0.0276515602149069,0.0200049933059514));
#1944=CARTESIAN_POINT('',(0.0322209874933958,-0.0296515602149069,0.0200049933059514));
#1945=CARTESIAN_POINT('',(0.0322209874933958,-0.0296515602149069,0.0200049933059514));
#1946=CARTESIAN_POINT('',(0.000970987493395803,-0.0296515602149069,0.0200049933059514));
#1947=CARTESIAN_POINT('',(-0.0302790125066042,-0.0296515602149069,0.0200049933059514));
#1948=CARTESIAN_POINT('',(-0.0302790125066042,-0.0296515602149069,0.0200049933059514));
#1949=CARTESIAN_POINT('',(0.0322209874933958,-0.0296515602149069,0.0110549933059514));
#1950=CARTESIAN_POINT('',(0.0322209874933958,-0.0276515602149069,0.0110549933059514));
#1951=CARTESIAN_POINT('',(0.0322209874933958,-0.0276515602149069,0.00210499330595141));
#1952=CARTESIAN_POINT('',(0.0322209874933958,-0.0296515602149069,0.00210499330595141));
#1953=CARTESIAN_POINT('',(0.0322209874933958,-0.0296515602149069,0.00210499330595141));
#1954=CARTESIAN_POINT('',(0.0322209874933958,-0.0296515602149069,0.0110549933059514));
#1955=CARTESIAN_POINT('',(0.000970987493395803,-0.0296515602149069,0.00210499330595141));
#1956=CARTESIAN_POINT('',(0.000970987493395803,-0.0276515602149069,0.00210499330595141));
#1957=CARTESIAN_POINT('',(-0.0302790125066042,-0.0276515602149069,0.00210499330595141));
#1958=CARTESIAN_POINT('',(-0.0302790125066042,-0.0296515602149069,0.00210499330595141));
#1959=CARTESIAN_POINT('',(-0.0302790125066042,-0.0296515602149069,0.00210499330595141));
#1960=CARTESIAN_POINT('',(0.000970987493395803,-0.0296515602149069,0.00210499330595141));
#1961=CARTESIAN_POINT('',(-0.0302790125066042,-0.0296515602149069,0.0110549933059514));
#1962=CARTESIAN_POINT('',(-0.0302790125066042,-0.0276515602149069,0.0110549933059514));
#1963=CARTESIAN_POINT('',(-0.0302790125066042,-0.0296515602149069,0.0110549933059514));
#1964=CARTESIAN_POINT('',(0.000332913385827006,-0.0296515602149069,0.0095));
#1965=CARTESIAN_POINT('',(0.000332913385827006,-0.0276515602149069,0.0095));
#1966=CARTESIAN_POINT('',(0.000332913385827006,0.045432086614173,0.022));
#1967=CARTESIAN_POINT('',(-0.00666301131965413,0.045432086614173,0.0076756803147657));
#1968=CARTESIAN_POINT('',(-0.00666301131965413,0.045432086614173,0.00367568031476571));
#1969=CARTESIAN_POINT('',(-0.00666301131965414,0.045432086614173,0.0116756803147657));
#1970=CARTESIAN_POINT('',(0.000336988680345867,0.045432086614173,0.00367568031476571));
#1971=CARTESIAN_POINT('',(0.00733698868034587,0.045432086614173,0.00367568031476571));
#1972=CARTESIAN_POINT('',(0.00733698868034587,0.045432086614173,0.00767568031476571));
#1973=CARTESIAN_POINT('',(0.00733698868034587,0.045432086614173,0.0116756803147657));
#1974=CARTESIAN_POINT('',(0.000336988680345865,0.045432086614173,0.0116756803147657));
#1975=CARTESIAN_POINT('',(-0.036167086614173,-0.0175489773238427,0.022));
#1976=CARTESIAN_POINT('',(-0.036167086614173,-0.0175489773238427,0.));
#1977=CARTESIAN_POINT('',(-0.033867086614173,-0.0175489773238427,0.));
#1978=CARTESIAN_POINT('',(0.000332913385827006,0.011170263199633,0.));
#1979=CARTESIAN_POINT('',(0.036832913385827,0.041932086614173,0.022));
#1980=CARTESIAN_POINT('',(0.036832913385827,0.041932086614173,0.));
#1981=CARTESIAN_POINT('',(0.039132913385827,0.041932086614173,0.));
#1982=CARTESIAN_POINT('',(0.000332913385827006,0.011170263199633,0.));
#1983=CARTESIAN_POINT('',(-0.036167086614173,0.041932086614173,0.022));
#1984=CARTESIAN_POINT('',(-0.036167086614173,0.041932086614173,0.));
#1985=CARTESIAN_POINT('',(-0.033867086614173,0.041932086614173,0.));
#1986=CARTESIAN_POINT('',(0.000332913385827006,0.011170263199633,0.));
#1987=CARTESIAN_POINT('',(0.026332913385827,-0.0175489773238427,0.022));
#1988=CARTESIAN_POINT('',(0.026332913385827,-0.0175489773238427,0.));
#1989=CARTESIAN_POINT('',(0.028632913385827,-0.0175489773238427,0.));
#1990=CARTESIAN_POINT('',(0.000332913385827006,0.011170263199633,0.));
#1991=CARTESIAN_POINT('',(-0.00666301131965413,0.037432086614173,0.0076756803147657));
#1992=CARTESIAN_POINT('',(-0.00666301131965413,0.037432086614173,0.00367568031476571));
#1993=CARTESIAN_POINT('',(-0.00666301131965414,0.037432086614173,0.0116756803147657));
#1994=CARTESIAN_POINT('',(0.000336988680345867,0.037432086614173,0.00367568031476571));
#1995=CARTESIAN_POINT('',(0.00733698868034587,0.037432086614173,0.00367568031476571));
#1996=CARTESIAN_POINT('',(0.00733698868034587,0.037432086614173,0.00767568031476571));
#1997=CARTESIAN_POINT('',(0.00733698868034587,0.037432086614173,0.0116756803147657));
#1998=CARTESIAN_POINT('',(0.000336988680345865,0.037432086614173,0.0116756803147657));
#1999=CARTESIAN_POINT('',(0.038832913385827,0.027,0.012));
#2000=CARTESIAN_POINT('',(0.038832913385827,0.028,0.012));
#2001=CARTESIAN_POINT('',(0.038832913385827,0.026,0.012));
#2002=CARTESIAN_POINT('',(0.038832913385827,0.026,0.006));
#2003=CARTESIAN_POINT('',(0.038832913385827,0.028,0.006));
#2004=CARTESIAN_POINT('',(0.038832913385827,0.023,0.012));
#2005=CARTESIAN_POINT('',(0.038832913385827,0.024,0.012));
#2006=CARTESIAN_POINT('',(0.038832913385827,0.022,0.012));
#2007=CARTESIAN_POINT('',(0.038832913385827,0.022,0.006));
#2008=CARTESIAN_POINT('',(0.038832913385827,0.024,0.006));
#2009=CARTESIAN_POINT('',(0.038832913385827,0.019,0.012));
#2010=CARTESIAN_POINT('',(0.038832913385827,0.02,0.012));
#2011=CARTESIAN_POINT('',(0.038832913385827,0.018,0.012));
#2012=CARTESIAN_POINT('',(0.038832913385827,0.018,0.006));
#2013=CARTESIAN_POINT('',(0.038832913385827,0.02,0.006));
#2014=MECHANICAL_DESIGN_GEOMETRIC_PRESENTATION_REPRESENTATION('',(#1255),
#2015);
#2015=(
GEOMETRIC_REPRESENTATION_CONTEXT(3)
GLOBAL_UNCERTAINTY_ASSIGNED_CONTEXT((#2016))
GLOBAL_UNIT_ASSIGNED_CONTEXT((#2019,#2018,#2017))
REPRESENTATION_CONTEXT('Part 1','TOP_LEVEL_ASSEMBLY_PART')
);
#2016=UNCERTAINTY_MEASURE_WITH_UNIT(LENGTH_MEASURE(1.E-8),#2019,
'DISTANCE_ACCURACY_VALUE','Maximum Tolerance applied to model');
#2017=(
NAMED_UNIT(*)
SI_UNIT($,.STERADIAN.)
SOLID_ANGLE_UNIT()
);
#2018=(
NAMED_UNIT(*)
PLANE_ANGLE_UNIT()
SI_UNIT($,.RADIAN.)
);
#2019=(
LENGTH_UNIT()
NAMED_UNIT(*)
SI_UNIT($,.METRE.)
);
#2020=PRODUCT_DEFINITION_SHAPE('','',#2021);
#2021=PRODUCT_DEFINITION('','',#2023,#2022);
#2022=PRODUCT_DEFINITION_CONTEXT('',#2029,'design');
#2023=PRODUCT_DEFINITION_FORMATION_WITH_SPECIFIED_SOURCE('','',#2025,
 .NOT_KNOWN.);
#2024=PRODUCT_RELATED_PRODUCT_CATEGORY('','',(#2025));
#2025=PRODUCT('Part 1','Part 1','Part 1',(#2027));
#2026=PRODUCT_CATEGORY('','');
#2027=PRODUCT_CONTEXT('',#2029,'mechanical');
#2028=APPLICATION_PROTOCOL_DEFINITION('international standard',
'ap242_managed_model_based_3d_engineering',2020,#2029);
#2029=APPLICATION_CONTEXT('managed model based 3d engineering');
ENDSEC;
END-ISO-10303-21;
