ISO-10303-21;
HEADER;
/* Generated by software containing ST-Developer
 * from STEP Tools, Inc. (www.steptools.com) 
 */
/* OPTION: using custom renumber hook */

FILE_DESCRIPTION(
/* description */ ('STEP AP242 Edition 2',
'CAx-IF Rec.Pracs.---Representation and Presentation of Product Manufa
cturing Information (PMI)---4.0---2014-10-13',
'CAx-IF Rec.Pracs.---3D Tessellated Geometry---0.4---2014-09-14','2;1',
'CAx-IF Rec.Pracs.---User Defined Attributes---1.5---2016-08-15'),
/* implementation_level */ '2;1');

FILE_NAME(
/* name */ 'Assembly 1 - Part 2',
/* time_stamp */ '2026-09-06T10:38:51Z',
/* author */ (''),
/* organization */ (''),
/* preprocessor_version */ 'ST-DEVELOPER v20',
/* originating_system */ 'ONSHAPE BY PTC INC, 1.220',
/* authorisation */ '  ');

FILE_SCHEMA (('AP242_MANAGED_MODEL_BASED_3D_ENGINEERING_MIM_LF { 1 0 10303 442 3 1 4 }'));
ENDSEC;

DATA;
#10=SHAPE_REPRESENTATION_RELATIONSHIP('','',#1177,#11);
#11=ADVANCED_BREP_SHAPE_REPRESENTATION('',(#1175),#1943);
#12=B_SPLINE_SURFACE_WITH_KNOTS('',3,1,((#1711,#1712),(#1713,#1714),(#1715,
#1716),(#1717,#1718)),.SURF_OF_LINEAR_EXTRUSION.,.F.,.F.,.F.,(4,4),(2,2),
(0.,1.),(0.,1.),.PIECEWISE_BEZIER_KNOTS.);
#13=B_SPLINE_SURFACE_WITH_KNOTS('',3,1,((#1738,#1739),(#1740,#1741),(#1742,
#1743),(#1744,#1745)),.SURF_OF_LINEAR_EXTRUSION.,.F.,.F.,.F.,(4,4),(2,2),
(0.,1.),(0.,1.),.PIECEWISE_BEZIER_KNOTS.);
#14=B_SPLINE_SURFACE_WITH_KNOTS('',3,1,((#1755,#1756),(#1757,#1758),(#1759,
#1760),(#1761,#1762)),.SURF_OF_LINEAR_EXTRUSION.,.F.,.F.,.F.,(4,4),(2,2),
(0.,1.),(0.,1.),.PIECEWISE_BEZIER_KNOTS.);
#15=B_SPLINE_SURFACE_WITH_KNOTS('',3,1,((#1772,#1773),(#1774,#1775),(#1776,
#1777),(#1778,#1779)),.SURF_OF_LINEAR_EXTRUSION.,.F.,.F.,.F.,(4,4),(2,2),
(0.,1.),(0.,1.),.PIECEWISE_BEZIER_KNOTS.);
#16=B_SPLINE_SURFACE_WITH_KNOTS('',3,1,((#1788,#1789),(#1790,#1791),(#1792,
#1793),(#1794,#1795)),.SURF_OF_LINEAR_EXTRUSION.,.F.,.F.,.F.,(4,4),(2,2),
(0.,1.),(0.,1.),.PIECEWISE_BEZIER_KNOTS.);
#17=B_SPLINE_SURFACE_WITH_KNOTS('',3,1,((#1815,#1816),(#1817,#1818),(#1819,
#1820),(#1821,#1822)),.SURF_OF_LINEAR_EXTRUSION.,.F.,.F.,.F.,(4,4),(2,2),
(0.,1.),(0.,1.),.PIECEWISE_BEZIER_KNOTS.);
#18=B_SPLINE_SURFACE_WITH_KNOTS('',3,1,((#1832,#1833),(#1834,#1835),(#1836,
#1837),(#1838,#1839)),.SURF_OF_LINEAR_EXTRUSION.,.F.,.F.,.F.,(4,4),(2,2),
(0.,1.),(0.,1.),.PIECEWISE_BEZIER_KNOTS.);
#19=B_SPLINE_SURFACE_WITH_KNOTS('',3,1,((#1849,#1850),(#1851,#1852),(#1853,
#1854),(#1855,#1856)),.SURF_OF_LINEAR_EXTRUSION.,.F.,.F.,.F.,(4,4),(2,2),
(0.,1.),(0.,1.),.PIECEWISE_BEZIER_KNOTS.);
#20=B_SPLINE_SURFACE_WITH_KNOTS('',3,1,((#1865,#1866),(#1867,#1868),(#1869,
#1870),(#1871,#1872)),.SURF_OF_LINEAR_EXTRUSION.,.F.,.F.,.F.,(4,4),(2,2),
(0.,1.),(0.,1.),.PIECEWISE_BEZIER_KNOTS.);
#21=B_SPLINE_SURFACE_WITH_KNOTS('',3,1,((#1892,#1893),(#1894,#1895),(#1896,
#1897),(#1898,#1899)),.SURF_OF_LINEAR_EXTRUSION.,.F.,.F.,.F.,(4,4),(2,2),
(0.,1.),(0.,1.),.PIECEWISE_BEZIER_KNOTS.);
#22=B_SPLINE_SURFACE_WITH_KNOTS('',3,1,((#1909,#1910),(#1911,#1912),(#1913,
#1914),(#1915,#1916)),.SURF_OF_LINEAR_EXTRUSION.,.F.,.F.,.F.,(4,4),(2,2),
(0.,1.),(0.,1.),.PIECEWISE_BEZIER_KNOTS.);
#23=B_SPLINE_SURFACE_WITH_KNOTS('',3,1,((#1926,#1927),(#1928,#1929),(#1930,
#1931),(#1932,#1933)),.SURF_OF_LINEAR_EXTRUSION.,.F.,.F.,.F.,(4,4),(2,2),
(0.,1.),(0.,1.),.PIECEWISE_BEZIER_KNOTS.);
#24=CYLINDRICAL_SURFACE('',#1190,0.0023);
#25=CYLINDRICAL_SURFACE('',#1192,0.0023);
#26=CYLINDRICAL_SURFACE('',#1194,0.0023);
#27=CYLINDRICAL_SURFACE('',#1198,0.0023);
#28=B_SPLINE_CURVE_WITH_KNOTS('',2,(#1534,#1535,#1536),.UNSPECIFIED.,.F.,
 .F.,(3,3),(0.,1.),.PIECEWISE_BEZIER_KNOTS.);
#29=B_SPLINE_CURVE_WITH_KNOTS('',2,(#1540,#1541,#1542),.UNSPECIFIED.,.F.,
 .F.,(3,3),(0.,1.),.PIECEWISE_BEZIER_KNOTS.);
#30=B_SPLINE_CURVE_WITH_KNOTS('',2,(#1546,#1547,#1548),.UNSPECIFIED.,.F.,
 .F.,(3,3),(0.,1.),.PIECEWISE_BEZIER_KNOTS.);
#31=B_SPLINE_CURVE_WITH_KNOTS('',2,(#1552,#1553,#1554),.UNSPECIFIED.,.F.,
 .F.,(3,3),(0.,1.),.PIECEWISE_BEZIER_KNOTS.);
#32=B_SPLINE_CURVE_WITH_KNOTS('',2,(#1562,#1563,#1564),.UNSPECIFIED.,.F.,
 .F.,(3,3),(0.,1.),.PIECEWISE_BEZIER_KNOTS.);
#33=B_SPLINE_CURVE_WITH_KNOTS('',2,(#1568,#1569,#1570),.UNSPECIFIED.,.F.,
 .F.,(3,3),(0.,1.),.PIECEWISE_BEZIER_KNOTS.);
#34=B_SPLINE_CURVE_WITH_KNOTS('',2,(#1574,#1575,#1576),.UNSPECIFIED.,.F.,
 .F.,(3,3),(0.,1.),.PIECEWISE_BEZIER_KNOTS.);
#35=B_SPLINE_CURVE_WITH_KNOTS('',2,(#1580,#1581,#1582),.UNSPECIFIED.,.F.,
 .F.,(3,3),(0.,1.),.PIECEWISE_BEZIER_KNOTS.);
#36=B_SPLINE_CURVE_WITH_KNOTS('',2,(#1590,#1591,#1592),.UNSPECIFIED.,.F.,
 .F.,(3,3),(0.,1.),.PIECEWISE_BEZIER_KNOTS.);
#37=B_SPLINE_CURVE_WITH_KNOTS('',2,(#1596,#1597,#1598),.UNSPECIFIED.,.F.,
 .F.,(3,3),(0.,1.),.PIECEWISE_BEZIER_KNOTS.);
#38=B_SPLINE_CURVE_WITH_KNOTS('',2,(#1602,#1603,#1604),.UNSPECIFIED.,.F.,
 .F.,(3,3),(0.,1.),.PIECEWISE_BEZIER_KNOTS.);
#39=B_SPLINE_CURVE_WITH_KNOTS('',2,(#1608,#1609,#1610),.UNSPECIFIED.,.F.,
 .F.,(3,3),(0.,1.),.PIECEWISE_BEZIER_KNOTS.);
#40=B_SPLINE_CURVE_WITH_KNOTS('',2,(#1721,#1722,#1723),.UNSPECIFIED.,.F.,
 .F.,(3,3),(0.,1.),.PIECEWISE_BEZIER_KNOTS.);
#41=B_SPLINE_CURVE_WITH_KNOTS('',2,(#1748,#1749,#1750),.UNSPECIFIED.,.F.,
 .F.,(3,3),(0.,1.),.PIECEWISE_BEZIER_KNOTS.);
#42=B_SPLINE_CURVE_WITH_KNOTS('',2,(#1765,#1766,#1767),.UNSPECIFIED.,.F.,
 .F.,(3,3),(0.,1.),.PIECEWISE_BEZIER_KNOTS.);
#43=B_SPLINE_CURVE_WITH_KNOTS('',2,(#1782,#1783,#1784),.UNSPECIFIED.,.F.,
 .F.,(3,3),(0.,1.),.PIECEWISE_BEZIER_KNOTS.);
#44=B_SPLINE_CURVE_WITH_KNOTS('',2,(#1798,#1799,#1800),.UNSPECIFIED.,.F.,
 .F.,(3,3),(0.,1.),.PIECEWISE_BEZIER_KNOTS.);
#45=B_SPLINE_CURVE_WITH_KNOTS('',2,(#1825,#1826,#1827),.UNSPECIFIED.,.F.,
 .F.,(3,3),(0.,1.),.PIECEWISE_BEZIER_KNOTS.);
#46=B_SPLINE_CURVE_WITH_KNOTS('',2,(#1842,#1843,#1844),.UNSPECIFIED.,.F.,
 .F.,(3,3),(0.,1.),.PIECEWISE_BEZIER_KNOTS.);
#47=B_SPLINE_CURVE_WITH_KNOTS('',2,(#1859,#1860,#1861),.UNSPECIFIED.,.F.,
 .F.,(3,3),(0.,1.),.PIECEWISE_BEZIER_KNOTS.);
#48=B_SPLINE_CURVE_WITH_KNOTS('',2,(#1875,#1876,#1877),.UNSPECIFIED.,.F.,
 .F.,(3,3),(0.,1.),.PIECEWISE_BEZIER_KNOTS.);
#49=B_SPLINE_CURVE_WITH_KNOTS('',2,(#1902,#1903,#1904),.UNSPECIFIED.,.F.,
 .F.,(3,3),(0.,1.),.PIECEWISE_BEZIER_KNOTS.);
#50=B_SPLINE_CURVE_WITH_KNOTS('',2,(#1919,#1920,#1921),.UNSPECIFIED.,.F.,
 .F.,(3,3),(0.,1.),.PIECEWISE_BEZIER_KNOTS.);
#51=B_SPLINE_CURVE_WITH_KNOTS('',2,(#1936,#1937,#1938),.UNSPECIFIED.,.F.,
 .F.,(3,3),(0.,1.),.PIECEWISE_BEZIER_KNOTS.);
#52=CIRCLE('',#1180,0.0023);
#53=CIRCLE('',#1181,0.0023);
#54=CIRCLE('',#1182,0.0023);
#55=CIRCLE('',#1183,0.0023);
#56=CIRCLE('',#1191,0.0023);
#57=CIRCLE('',#1193,0.0023);
#58=CIRCLE('',#1195,0.0023);
#59=CIRCLE('',#1199,0.0023);
#60=ORIENTED_EDGE('',*,*,#376,.F.);
#61=ORIENTED_EDGE('',*,*,#377,.T.);
#62=ORIENTED_EDGE('',*,*,#378,.F.);
#63=ORIENTED_EDGE('',*,*,#379,.F.);
#64=ORIENTED_EDGE('',*,*,#380,.F.);
#65=ORIENTED_EDGE('',*,*,#381,.T.);
#66=ORIENTED_EDGE('',*,*,#382,.T.);
#67=ORIENTED_EDGE('',*,*,#383,.F.);
#68=ORIENTED_EDGE('',*,*,#384,.F.);
#69=ORIENTED_EDGE('',*,*,#385,.F.);
#70=ORIENTED_EDGE('',*,*,#386,.F.);
#71=ORIENTED_EDGE('',*,*,#387,.F.);
#72=ORIENTED_EDGE('',*,*,#388,.T.);
#73=ORIENTED_EDGE('',*,*,#389,.T.);
#74=ORIENTED_EDGE('',*,*,#390,.T.);
#75=ORIENTED_EDGE('',*,*,#391,.T.);
#76=ORIENTED_EDGE('',*,*,#392,.T.);
#77=ORIENTED_EDGE('',*,*,#393,.T.);
#78=ORIENTED_EDGE('',*,*,#394,.T.);
#79=ORIENTED_EDGE('',*,*,#395,.T.);
#80=ORIENTED_EDGE('',*,*,#396,.T.);
#81=ORIENTED_EDGE('',*,*,#397,.T.);
#82=ORIENTED_EDGE('',*,*,#398,.T.);
#83=ORIENTED_EDGE('',*,*,#399,.T.);
#84=ORIENTED_EDGE('',*,*,#400,.T.);
#85=ORIENTED_EDGE('',*,*,#401,.T.);
#86=ORIENTED_EDGE('',*,*,#402,.T.);
#87=ORIENTED_EDGE('',*,*,#403,.T.);
#88=ORIENTED_EDGE('',*,*,#404,.T.);
#89=ORIENTED_EDGE('',*,*,#405,.T.);
#90=ORIENTED_EDGE('',*,*,#406,.T.);
#91=ORIENTED_EDGE('',*,*,#407,.T.);
#92=ORIENTED_EDGE('',*,*,#408,.T.);
#93=ORIENTED_EDGE('',*,*,#409,.T.);
#94=ORIENTED_EDGE('',*,*,#410,.T.);
#95=ORIENTED_EDGE('',*,*,#411,.T.);
#96=ORIENTED_EDGE('',*,*,#412,.T.);
#97=ORIENTED_EDGE('',*,*,#413,.T.);
#98=ORIENTED_EDGE('',*,*,#414,.T.);
#99=ORIENTED_EDGE('',*,*,#415,.T.);
#100=ORIENTED_EDGE('',*,*,#416,.T.);
#101=ORIENTED_EDGE('',*,*,#417,.T.);
#102=ORIENTED_EDGE('',*,*,#418,.T.);
#103=ORIENTED_EDGE('',*,*,#419,.T.);
#104=ORIENTED_EDGE('',*,*,#420,.T.);
#105=ORIENTED_EDGE('',*,*,#421,.T.);
#106=ORIENTED_EDGE('',*,*,#422,.T.);
#107=ORIENTED_EDGE('',*,*,#423,.T.);
#108=ORIENTED_EDGE('',*,*,#424,.T.);
#109=ORIENTED_EDGE('',*,*,#425,.T.);
#110=ORIENTED_EDGE('',*,*,#426,.T.);
#111=ORIENTED_EDGE('',*,*,#427,.T.);
#112=ORIENTED_EDGE('',*,*,#428,.T.);
#113=ORIENTED_EDGE('',*,*,#429,.T.);
#114=ORIENTED_EDGE('',*,*,#430,.F.);
#115=ORIENTED_EDGE('',*,*,#431,.F.);
#116=ORIENTED_EDGE('',*,*,#380,.T.);
#117=ORIENTED_EDGE('',*,*,#432,.T.);
#118=ORIENTED_EDGE('',*,*,#433,.T.);
#119=ORIENTED_EDGE('',*,*,#434,.F.);
#120=ORIENTED_EDGE('',*,*,#381,.F.);
#121=ORIENTED_EDGE('',*,*,#431,.T.);
#122=ORIENTED_EDGE('',*,*,#435,.T.);
#123=ORIENTED_EDGE('',*,*,#436,.F.);
#124=ORIENTED_EDGE('',*,*,#382,.F.);
#125=ORIENTED_EDGE('',*,*,#434,.T.);
#126=ORIENTED_EDGE('',*,*,#437,.F.);
#127=ORIENTED_EDGE('',*,*,#438,.F.);
#128=ORIENTED_EDGE('',*,*,#376,.T.);
#129=ORIENTED_EDGE('',*,*,#439,.T.);
#130=ORIENTED_EDGE('',*,*,#440,.T.);
#131=ORIENTED_EDGE('',*,*,#441,.F.);
#132=ORIENTED_EDGE('',*,*,#377,.F.);
#133=ORIENTED_EDGE('',*,*,#438,.T.);
#134=ORIENTED_EDGE('',*,*,#442,.F.);
#135=ORIENTED_EDGE('',*,*,#443,.F.);
#136=ORIENTED_EDGE('',*,*,#378,.T.);
#137=ORIENTED_EDGE('',*,*,#441,.T.);
#138=ORIENTED_EDGE('',*,*,#386,.T.);
#139=ORIENTED_EDGE('',*,*,#444,.F.);
#140=ORIENTED_EDGE('',*,*,#385,.T.);
#141=ORIENTED_EDGE('',*,*,#445,.F.);
#142=ORIENTED_EDGE('',*,*,#384,.T.);
#143=ORIENTED_EDGE('',*,*,#446,.F.);
#144=ORIENTED_EDGE('',*,*,#447,.F.);
#145=ORIENTED_EDGE('',*,*,#432,.F.);
#146=ORIENTED_EDGE('',*,*,#383,.T.);
#147=ORIENTED_EDGE('',*,*,#436,.T.);
#148=ORIENTED_EDGE('',*,*,#448,.F.);
#149=ORIENTED_EDGE('',*,*,#439,.F.);
#150=ORIENTED_EDGE('',*,*,#379,.T.);
#151=ORIENTED_EDGE('',*,*,#443,.T.);
#152=ORIENTED_EDGE('',*,*,#387,.T.);
#153=ORIENTED_EDGE('',*,*,#449,.F.);
#154=ORIENTED_EDGE('',*,*,#437,.T.);
#155=ORIENTED_EDGE('',*,*,#448,.T.);
#156=ORIENTED_EDGE('',*,*,#442,.T.);
#157=ORIENTED_EDGE('',*,*,#440,.F.);
#158=ORIENTED_EDGE('',*,*,#430,.T.);
#159=ORIENTED_EDGE('',*,*,#447,.T.);
#160=ORIENTED_EDGE('',*,*,#435,.F.);
#161=ORIENTED_EDGE('',*,*,#433,.F.);
#162=ORIENTED_EDGE('',*,*,#446,.T.);
#163=ORIENTED_EDGE('',*,*,#445,.T.);
#164=ORIENTED_EDGE('',*,*,#444,.T.);
#165=ORIENTED_EDGE('',*,*,#449,.T.);
#166=ORIENTED_EDGE('',*,*,#389,.F.);
#167=ORIENTED_EDGE('',*,*,#450,.F.);
#168=ORIENTED_EDGE('',*,*,#451,.T.);
#169=ORIENTED_EDGE('',*,*,#452,.T.);
#170=ORIENTED_EDGE('',*,*,#388,.F.);
#171=ORIENTED_EDGE('',*,*,#453,.F.);
#172=ORIENTED_EDGE('',*,*,#454,.T.);
#173=ORIENTED_EDGE('',*,*,#450,.T.);
#174=ORIENTED_EDGE('',*,*,#391,.F.);
#175=ORIENTED_EDGE('',*,*,#455,.F.);
#176=ORIENTED_EDGE('',*,*,#456,.T.);
#177=ORIENTED_EDGE('',*,*,#453,.T.);
#178=ORIENTED_EDGE('',*,*,#390,.F.);
#179=ORIENTED_EDGE('',*,*,#452,.F.);
#180=ORIENTED_EDGE('',*,*,#457,.T.);
#181=ORIENTED_EDGE('',*,*,#455,.T.);
#182=ORIENTED_EDGE('',*,*,#451,.F.);
#183=ORIENTED_EDGE('',*,*,#454,.F.);
#184=ORIENTED_EDGE('',*,*,#456,.F.);
#185=ORIENTED_EDGE('',*,*,#457,.F.);
#186=ORIENTED_EDGE('',*,*,#393,.F.);
#187=ORIENTED_EDGE('',*,*,#458,.F.);
#188=ORIENTED_EDGE('',*,*,#459,.T.);
#189=ORIENTED_EDGE('',*,*,#460,.T.);
#190=ORIENTED_EDGE('',*,*,#392,.F.);
#191=ORIENTED_EDGE('',*,*,#461,.F.);
#192=ORIENTED_EDGE('',*,*,#462,.T.);
#193=ORIENTED_EDGE('',*,*,#458,.T.);
#194=ORIENTED_EDGE('',*,*,#395,.F.);
#195=ORIENTED_EDGE('',*,*,#463,.F.);
#196=ORIENTED_EDGE('',*,*,#464,.T.);
#197=ORIENTED_EDGE('',*,*,#461,.T.);
#198=ORIENTED_EDGE('',*,*,#394,.F.);
#199=ORIENTED_EDGE('',*,*,#460,.F.);
#200=ORIENTED_EDGE('',*,*,#465,.T.);
#201=ORIENTED_EDGE('',*,*,#463,.T.);
#202=ORIENTED_EDGE('',*,*,#459,.F.);
#203=ORIENTED_EDGE('',*,*,#462,.F.);
#204=ORIENTED_EDGE('',*,*,#464,.F.);
#205=ORIENTED_EDGE('',*,*,#465,.F.);
#206=ORIENTED_EDGE('',*,*,#397,.F.);
#207=ORIENTED_EDGE('',*,*,#466,.F.);
#208=ORIENTED_EDGE('',*,*,#467,.T.);
#209=ORIENTED_EDGE('',*,*,#468,.T.);
#210=ORIENTED_EDGE('',*,*,#396,.F.);
#211=ORIENTED_EDGE('',*,*,#469,.F.);
#212=ORIENTED_EDGE('',*,*,#470,.T.);
#213=ORIENTED_EDGE('',*,*,#466,.T.);
#214=ORIENTED_EDGE('',*,*,#399,.F.);
#215=ORIENTED_EDGE('',*,*,#471,.F.);
#216=ORIENTED_EDGE('',*,*,#472,.T.);
#217=ORIENTED_EDGE('',*,*,#469,.T.);
#218=ORIENTED_EDGE('',*,*,#398,.F.);
#219=ORIENTED_EDGE('',*,*,#468,.F.);
#220=ORIENTED_EDGE('',*,*,#473,.T.);
#221=ORIENTED_EDGE('',*,*,#471,.T.);
#222=ORIENTED_EDGE('',*,*,#467,.F.);
#223=ORIENTED_EDGE('',*,*,#470,.F.);
#224=ORIENTED_EDGE('',*,*,#472,.F.);
#225=ORIENTED_EDGE('',*,*,#473,.F.);
#226=ORIENTED_EDGE('',*,*,#401,.F.);
#227=ORIENTED_EDGE('',*,*,#474,.F.);
#228=ORIENTED_EDGE('',*,*,#475,.T.);
#229=ORIENTED_EDGE('',*,*,#476,.T.);
#230=ORIENTED_EDGE('',*,*,#400,.F.);
#231=ORIENTED_EDGE('',*,*,#477,.F.);
#232=ORIENTED_EDGE('',*,*,#478,.T.);
#233=ORIENTED_EDGE('',*,*,#474,.T.);
#234=ORIENTED_EDGE('',*,*,#409,.F.);
#235=ORIENTED_EDGE('',*,*,#479,.F.);
#236=ORIENTED_EDGE('',*,*,#480,.T.);
#237=ORIENTED_EDGE('',*,*,#477,.T.);
#238=ORIENTED_EDGE('',*,*,#408,.F.);
#239=ORIENTED_EDGE('',*,*,#481,.F.);
#240=ORIENTED_EDGE('',*,*,#482,.T.);
#241=ORIENTED_EDGE('',*,*,#479,.T.);
#242=ORIENTED_EDGE('',*,*,#407,.F.);
#243=ORIENTED_EDGE('',*,*,#483,.F.);
#244=ORIENTED_EDGE('',*,*,#484,.T.);
#245=ORIENTED_EDGE('',*,*,#481,.T.);
#246=ORIENTED_EDGE('',*,*,#406,.F.);
#247=ORIENTED_EDGE('',*,*,#485,.F.);
#248=ORIENTED_EDGE('',*,*,#486,.T.);
#249=ORIENTED_EDGE('',*,*,#483,.T.);
#250=ORIENTED_EDGE('',*,*,#405,.F.);
#251=ORIENTED_EDGE('',*,*,#487,.F.);
#252=ORIENTED_EDGE('',*,*,#488,.T.);
#253=ORIENTED_EDGE('',*,*,#485,.T.);
#254=ORIENTED_EDGE('',*,*,#404,.F.);
#255=ORIENTED_EDGE('',*,*,#489,.F.);
#256=ORIENTED_EDGE('',*,*,#490,.T.);
#257=ORIENTED_EDGE('',*,*,#487,.T.);
#258=ORIENTED_EDGE('',*,*,#403,.F.);
#259=ORIENTED_EDGE('',*,*,#491,.F.);
#260=ORIENTED_EDGE('',*,*,#492,.T.);
#261=ORIENTED_EDGE('',*,*,#489,.T.);
#262=ORIENTED_EDGE('',*,*,#402,.F.);
#263=ORIENTED_EDGE('',*,*,#476,.F.);
#264=ORIENTED_EDGE('',*,*,#493,.T.);
#265=ORIENTED_EDGE('',*,*,#491,.T.);
#266=ORIENTED_EDGE('',*,*,#475,.F.);
#267=ORIENTED_EDGE('',*,*,#478,.F.);
#268=ORIENTED_EDGE('',*,*,#480,.F.);
#269=ORIENTED_EDGE('',*,*,#482,.F.);
#270=ORIENTED_EDGE('',*,*,#484,.F.);
#271=ORIENTED_EDGE('',*,*,#486,.F.);
#272=ORIENTED_EDGE('',*,*,#488,.F.);
#273=ORIENTED_EDGE('',*,*,#490,.F.);
#274=ORIENTED_EDGE('',*,*,#492,.F.);
#275=ORIENTED_EDGE('',*,*,#493,.F.);
#276=ORIENTED_EDGE('',*,*,#411,.F.);
#277=ORIENTED_EDGE('',*,*,#494,.F.);
#278=ORIENTED_EDGE('',*,*,#495,.T.);
#279=ORIENTED_EDGE('',*,*,#496,.T.);
#280=ORIENTED_EDGE('',*,*,#410,.F.);
#281=ORIENTED_EDGE('',*,*,#497,.F.);
#282=ORIENTED_EDGE('',*,*,#498,.T.);
#283=ORIENTED_EDGE('',*,*,#494,.T.);
#284=ORIENTED_EDGE('',*,*,#419,.F.);
#285=ORIENTED_EDGE('',*,*,#499,.F.);
#286=ORIENTED_EDGE('',*,*,#500,.T.);
#287=ORIENTED_EDGE('',*,*,#497,.T.);
#288=ORIENTED_EDGE('',*,*,#418,.F.);
#289=ORIENTED_EDGE('',*,*,#501,.F.);
#290=ORIENTED_EDGE('',*,*,#502,.T.);
#291=ORIENTED_EDGE('',*,*,#499,.T.);
#292=ORIENTED_EDGE('',*,*,#417,.F.);
#293=ORIENTED_EDGE('',*,*,#503,.F.);
#294=ORIENTED_EDGE('',*,*,#504,.T.);
#295=ORIENTED_EDGE('',*,*,#501,.T.);
#296=ORIENTED_EDGE('',*,*,#416,.F.);
#297=ORIENTED_EDGE('',*,*,#505,.F.);
#298=ORIENTED_EDGE('',*,*,#506,.T.);
#299=ORIENTED_EDGE('',*,*,#503,.T.);
#300=ORIENTED_EDGE('',*,*,#415,.F.);
#301=ORIENTED_EDGE('',*,*,#507,.F.);
#302=ORIENTED_EDGE('',*,*,#508,.T.);
#303=ORIENTED_EDGE('',*,*,#505,.T.);
#304=ORIENTED_EDGE('',*,*,#414,.F.);
#305=ORIENTED_EDGE('',*,*,#509,.F.);
#306=ORIENTED_EDGE('',*,*,#510,.T.);
#307=ORIENTED_EDGE('',*,*,#507,.T.);
#308=ORIENTED_EDGE('',*,*,#413,.F.);
#309=ORIENTED_EDGE('',*,*,#511,.F.);
#310=ORIENTED_EDGE('',*,*,#512,.T.);
#311=ORIENTED_EDGE('',*,*,#509,.T.);
#312=ORIENTED_EDGE('',*,*,#412,.F.);
#313=ORIENTED_EDGE('',*,*,#496,.F.);
#314=ORIENTED_EDGE('',*,*,#513,.T.);
#315=ORIENTED_EDGE('',*,*,#511,.T.);
#316=ORIENTED_EDGE('',*,*,#495,.F.);
#317=ORIENTED_EDGE('',*,*,#498,.F.);
#318=ORIENTED_EDGE('',*,*,#500,.F.);
#319=ORIENTED_EDGE('',*,*,#502,.F.);
#320=ORIENTED_EDGE('',*,*,#504,.F.);
#321=ORIENTED_EDGE('',*,*,#506,.F.);
#322=ORIENTED_EDGE('',*,*,#508,.F.);
#323=ORIENTED_EDGE('',*,*,#510,.F.);
#324=ORIENTED_EDGE('',*,*,#512,.F.);
#325=ORIENTED_EDGE('',*,*,#513,.F.);
#326=ORIENTED_EDGE('',*,*,#421,.F.);
#327=ORIENTED_EDGE('',*,*,#514,.F.);
#328=ORIENTED_EDGE('',*,*,#515,.T.);
#329=ORIENTED_EDGE('',*,*,#516,.T.);
#330=ORIENTED_EDGE('',*,*,#420,.F.);
#331=ORIENTED_EDGE('',*,*,#517,.F.);
#332=ORIENTED_EDGE('',*,*,#518,.T.);
#333=ORIENTED_EDGE('',*,*,#514,.T.);
#334=ORIENTED_EDGE('',*,*,#429,.F.);
#335=ORIENTED_EDGE('',*,*,#519,.F.);
#336=ORIENTED_EDGE('',*,*,#520,.T.);
#337=ORIENTED_EDGE('',*,*,#517,.T.);
#338=ORIENTED_EDGE('',*,*,#428,.F.);
#339=ORIENTED_EDGE('',*,*,#521,.F.);
#340=ORIENTED_EDGE('',*,*,#522,.T.);
#341=ORIENTED_EDGE('',*,*,#519,.T.);
#342=ORIENTED_EDGE('',*,*,#427,.F.);
#343=ORIENTED_EDGE('',*,*,#523,.F.);
#344=ORIENTED_EDGE('',*,*,#524,.T.);
#345=ORIENTED_EDGE('',*,*,#521,.T.);
#346=ORIENTED_EDGE('',*,*,#426,.F.);
#347=ORIENTED_EDGE('',*,*,#525,.F.);
#348=ORIENTED_EDGE('',*,*,#526,.T.);
#349=ORIENTED_EDGE('',*,*,#523,.T.);
#350=ORIENTED_EDGE('',*,*,#425,.F.);
#351=ORIENTED_EDGE('',*,*,#527,.F.);
#352=ORIENTED_EDGE('',*,*,#528,.T.);
#353=ORIENTED_EDGE('',*,*,#525,.T.);
#354=ORIENTED_EDGE('',*,*,#424,.F.);
#355=ORIENTED_EDGE('',*,*,#529,.F.);
#356=ORIENTED_EDGE('',*,*,#530,.T.);
#357=ORIENTED_EDGE('',*,*,#527,.T.);
#358=ORIENTED_EDGE('',*,*,#423,.F.);
#359=ORIENTED_EDGE('',*,*,#531,.F.);
#360=ORIENTED_EDGE('',*,*,#532,.T.);
#361=ORIENTED_EDGE('',*,*,#529,.T.);
#362=ORIENTED_EDGE('',*,*,#422,.F.);
#363=ORIENTED_EDGE('',*,*,#516,.F.);
#364=ORIENTED_EDGE('',*,*,#533,.T.);
#365=ORIENTED_EDGE('',*,*,#531,.T.);
#366=ORIENTED_EDGE('',*,*,#515,.F.);
#367=ORIENTED_EDGE('',*,*,#518,.F.);
#368=ORIENTED_EDGE('',*,*,#520,.F.);
#369=ORIENTED_EDGE('',*,*,#522,.F.);
#370=ORIENTED_EDGE('',*,*,#524,.F.);
#371=ORIENTED_EDGE('',*,*,#526,.F.);
#372=ORIENTED_EDGE('',*,*,#528,.F.);
#373=ORIENTED_EDGE('',*,*,#530,.F.);
#374=ORIENTED_EDGE('',*,*,#532,.F.);
#375=ORIENTED_EDGE('',*,*,#533,.F.);
#376=EDGE_CURVE('',#534,#535,#642,.T.);
#377=EDGE_CURVE('',#534,#536,#643,.T.);
#378=EDGE_CURVE('',#537,#536,#644,.T.);
#379=EDGE_CURVE('',#535,#537,#645,.T.);
#380=EDGE_CURVE('',#538,#539,#646,.T.);
#381=EDGE_CURVE('',#538,#540,#647,.T.);
#382=EDGE_CURVE('',#540,#541,#648,.T.);
#383=EDGE_CURVE('',#539,#541,#649,.T.);
#384=EDGE_CURVE('',#542,#542,#52,.T.);
#385=EDGE_CURVE('',#543,#543,#53,.T.);
#386=EDGE_CURVE('',#544,#544,#54,.T.);
#387=EDGE_CURVE('',#545,#545,#55,.T.);
#388=EDGE_CURVE('',#546,#547,#650,.T.);
#389=EDGE_CURVE('',#547,#548,#651,.T.);
#390=EDGE_CURVE('',#548,#549,#652,.T.);
#391=EDGE_CURVE('',#549,#546,#653,.T.);
#392=EDGE_CURVE('',#550,#551,#654,.T.);
#393=EDGE_CURVE('',#551,#552,#655,.T.);
#394=EDGE_CURVE('',#552,#553,#656,.T.);
#395=EDGE_CURVE('',#553,#550,#657,.T.);
#396=EDGE_CURVE('',#554,#555,#658,.T.);
#397=EDGE_CURVE('',#555,#556,#659,.T.);
#398=EDGE_CURVE('',#556,#557,#660,.T.);
#399=EDGE_CURVE('',#557,#554,#661,.T.);
#400=EDGE_CURVE('',#558,#559,#662,.T.);
#401=EDGE_CURVE('',#559,#560,#28,.T.);
#402=EDGE_CURVE('',#560,#561,#663,.T.);
#403=EDGE_CURVE('',#561,#562,#29,.T.);
#404=EDGE_CURVE('',#562,#563,#664,.T.);
#405=EDGE_CURVE('',#563,#564,#30,.T.);
#406=EDGE_CURVE('',#564,#565,#665,.T.);
#407=EDGE_CURVE('',#565,#566,#31,.T.);
#408=EDGE_CURVE('',#566,#567,#666,.T.);
#409=EDGE_CURVE('',#567,#558,#667,.T.);
#410=EDGE_CURVE('',#568,#569,#668,.T.);
#411=EDGE_CURVE('',#569,#570,#32,.T.);
#412=EDGE_CURVE('',#570,#571,#669,.T.);
#413=EDGE_CURVE('',#571,#572,#33,.T.);
#414=EDGE_CURVE('',#572,#573,#670,.T.);
#415=EDGE_CURVE('',#573,#574,#34,.T.);
#416=EDGE_CURVE('',#574,#575,#671,.T.);
#417=EDGE_CURVE('',#575,#576,#35,.T.);
#418=EDGE_CURVE('',#576,#577,#672,.T.);
#419=EDGE_CURVE('',#577,#568,#673,.T.);
#420=EDGE_CURVE('',#578,#579,#674,.T.);
#421=EDGE_CURVE('',#579,#580,#36,.T.);
#422=EDGE_CURVE('',#580,#581,#675,.T.);
#423=EDGE_CURVE('',#581,#582,#37,.T.);
#424=EDGE_CURVE('',#582,#583,#676,.T.);
#425=EDGE_CURVE('',#583,#584,#38,.T.);
#426=EDGE_CURVE('',#584,#585,#677,.T.);
#427=EDGE_CURVE('',#585,#586,#39,.T.);
#428=EDGE_CURVE('',#586,#587,#678,.T.);
#429=EDGE_CURVE('',#587,#578,#679,.T.);
#430=EDGE_CURVE('',#588,#589,#680,.T.);
#431=EDGE_CURVE('',#538,#588,#681,.T.);
#432=EDGE_CURVE('',#539,#589,#682,.T.);
#433=EDGE_CURVE('',#588,#590,#683,.T.);
#434=EDGE_CURVE('',#540,#590,#684,.T.);
#435=EDGE_CURVE('',#590,#591,#685,.T.);
#436=EDGE_CURVE('',#541,#591,#686,.T.);
#437=EDGE_CURVE('',#592,#593,#687,.T.);
#438=EDGE_CURVE('',#534,#592,#688,.T.);
#439=EDGE_CURVE('',#535,#593,#689,.T.);
#440=EDGE_CURVE('',#592,#594,#690,.T.);
#441=EDGE_CURVE('',#536,#594,#691,.T.);
#442=EDGE_CURVE('',#595,#594,#692,.T.);
#443=EDGE_CURVE('',#537,#595,#693,.T.);
#444=EDGE_CURVE('',#596,#596,#56,.T.);
#445=EDGE_CURVE('',#597,#597,#57,.T.);
#446=EDGE_CURVE('',#598,#598,#58,.T.);
#447=EDGE_CURVE('',#589,#591,#694,.T.);
#448=EDGE_CURVE('',#593,#595,#695,.T.);
#449=EDGE_CURVE('',#599,#599,#59,.T.);
#450=EDGE_CURVE('',#600,#547,#696,.T.);
#451=EDGE_CURVE('',#600,#601,#697,.T.);
#452=EDGE_CURVE('',#601,#548,#698,.T.);
#453=EDGE_CURVE('',#602,#546,#699,.T.);
#454=EDGE_CURVE('',#602,#600,#700,.T.);
#455=EDGE_CURVE('',#603,#549,#701,.T.);
#456=EDGE_CURVE('',#603,#602,#702,.T.);
#457=EDGE_CURVE('',#601,#603,#703,.T.);
#458=EDGE_CURVE('',#604,#551,#704,.T.);
#459=EDGE_CURVE('',#604,#605,#705,.T.);
#460=EDGE_CURVE('',#605,#552,#706,.T.);
#461=EDGE_CURVE('',#606,#550,#707,.T.);
#462=EDGE_CURVE('',#606,#604,#708,.T.);
#463=EDGE_CURVE('',#607,#553,#709,.T.);
#464=EDGE_CURVE('',#607,#606,#710,.T.);
#465=EDGE_CURVE('',#605,#607,#711,.T.);
#466=EDGE_CURVE('',#608,#555,#712,.T.);
#467=EDGE_CURVE('',#608,#609,#713,.T.);
#468=EDGE_CURVE('',#609,#556,#714,.T.);
#469=EDGE_CURVE('',#610,#554,#715,.T.);
#470=EDGE_CURVE('',#610,#608,#716,.T.);
#471=EDGE_CURVE('',#611,#557,#717,.T.);
#472=EDGE_CURVE('',#611,#610,#718,.T.);
#473=EDGE_CURVE('',#609,#611,#719,.T.);
#474=EDGE_CURVE('',#612,#559,#720,.T.);
#475=EDGE_CURVE('',#612,#613,#40,.T.);
#476=EDGE_CURVE('',#613,#560,#721,.T.);
#477=EDGE_CURVE('',#614,#558,#722,.T.);
#478=EDGE_CURVE('',#614,#612,#723,.T.);
#479=EDGE_CURVE('',#615,#567,#724,.T.);
#480=EDGE_CURVE('',#615,#614,#725,.T.);
#481=EDGE_CURVE('',#616,#566,#726,.T.);
#482=EDGE_CURVE('',#616,#615,#727,.T.);
#483=EDGE_CURVE('',#617,#565,#728,.T.);
#484=EDGE_CURVE('',#617,#616,#41,.T.);
#485=EDGE_CURVE('',#618,#564,#729,.T.);
#486=EDGE_CURVE('',#618,#617,#730,.T.);
#487=EDGE_CURVE('',#619,#563,#731,.T.);
#488=EDGE_CURVE('',#619,#618,#42,.T.);
#489=EDGE_CURVE('',#620,#562,#732,.T.);
#490=EDGE_CURVE('',#620,#619,#733,.T.);
#491=EDGE_CURVE('',#621,#561,#734,.T.);
#492=EDGE_CURVE('',#621,#620,#43,.T.);
#493=EDGE_CURVE('',#613,#621,#735,.T.);
#494=EDGE_CURVE('',#622,#569,#736,.T.);
#495=EDGE_CURVE('',#622,#623,#44,.T.);
#496=EDGE_CURVE('',#623,#570,#737,.T.);
#497=EDGE_CURVE('',#624,#568,#738,.T.);
#498=EDGE_CURVE('',#624,#622,#739,.T.);
#499=EDGE_CURVE('',#625,#577,#740,.T.);
#500=EDGE_CURVE('',#625,#624,#741,.T.);
#501=EDGE_CURVE('',#626,#576,#742,.T.);
#502=EDGE_CURVE('',#626,#625,#743,.T.);
#503=EDGE_CURVE('',#627,#575,#744,.T.);
#504=EDGE_CURVE('',#627,#626,#45,.T.);
#505=EDGE_CURVE('',#628,#574,#745,.T.);
#506=EDGE_CURVE('',#628,#627,#746,.T.);
#507=EDGE_CURVE('',#629,#573,#747,.T.);
#508=EDGE_CURVE('',#629,#628,#46,.T.);
#509=EDGE_CURVE('',#630,#572,#748,.T.);
#510=EDGE_CURVE('',#630,#629,#749,.T.);
#511=EDGE_CURVE('',#631,#571,#750,.T.);
#512=EDGE_CURVE('',#631,#630,#47,.T.);
#513=EDGE_CURVE('',#623,#631,#751,.T.);
#514=EDGE_CURVE('',#632,#579,#752,.T.);
#515=EDGE_CURVE('',#632,#633,#48,.T.);
#516=EDGE_CURVE('',#633,#580,#753,.T.);
#517=EDGE_CURVE('',#634,#578,#754,.T.);
#518=EDGE_CURVE('',#634,#632,#755,.T.);
#519=EDGE_CURVE('',#635,#587,#756,.T.);
#520=EDGE_CURVE('',#635,#634,#757,.T.);
#521=EDGE_CURVE('',#636,#586,#758,.T.);
#522=EDGE_CURVE('',#636,#635,#759,.T.);
#523=EDGE_CURVE('',#637,#585,#760,.T.);
#524=EDGE_CURVE('',#637,#636,#49,.T.);
#525=EDGE_CURVE('',#638,#584,#761,.T.);
#526=EDGE_CURVE('',#638,#637,#762,.T.);
#527=EDGE_CURVE('',#639,#583,#763,.T.);
#528=EDGE_CURVE('',#639,#638,#50,.T.);
#529=EDGE_CURVE('',#640,#582,#764,.T.);
#530=EDGE_CURVE('',#640,#639,#765,.T.);
#531=EDGE_CURVE('',#641,#581,#766,.T.);
#532=EDGE_CURVE('',#641,#640,#51,.T.);
#533=EDGE_CURVE('',#633,#641,#767,.T.);
#534=VERTEX_POINT('',#1484);
#535=VERTEX_POINT('',#1485);
#536=VERTEX_POINT('',#1487);
#537=VERTEX_POINT('',#1489);
#538=VERTEX_POINT('',#1492);
#539=VERTEX_POINT('',#1493);
#540=VERTEX_POINT('',#1495);
#541=VERTEX_POINT('',#1497);
#542=VERTEX_POINT('',#1500);
#543=VERTEX_POINT('',#1502);
#544=VERTEX_POINT('',#1504);
#545=VERTEX_POINT('',#1506);
#546=VERTEX_POINT('',#1508);
#547=VERTEX_POINT('',#1509);
#548=VERTEX_POINT('',#1511);
#549=VERTEX_POINT('',#1513);
#550=VERTEX_POINT('',#1516);
#551=VERTEX_POINT('',#1517);
#552=VERTEX_POINT('',#1519);
#553=VERTEX_POINT('',#1521);
#554=VERTEX_POINT('',#1524);
#555=VERTEX_POINT('',#1525);
#556=VERTEX_POINT('',#1527);
#557=VERTEX_POINT('',#1529);
#558=VERTEX_POINT('',#1532);
#559=VERTEX_POINT('',#1533);
#560=VERTEX_POINT('',#1537);
#561=VERTEX_POINT('',#1539);
#562=VERTEX_POINT('',#1543);
#563=VERTEX_POINT('',#1545);
#564=VERTEX_POINT('',#1549);
#565=VERTEX_POINT('',#1551);
#566=VERTEX_POINT('',#1555);
#567=VERTEX_POINT('',#1557);
#568=VERTEX_POINT('',#1560);
#569=VERTEX_POINT('',#1561);
#570=VERTEX_POINT('',#1565);
#571=VERTEX_POINT('',#1567);
#572=VERTEX_POINT('',#1571);
#573=VERTEX_POINT('',#1573);
#574=VERTEX_POINT('',#1577);
#575=VERTEX_POINT('',#1579);
#576=VERTEX_POINT('',#1583);
#577=VERTEX_POINT('',#1585);
#578=VERTEX_POINT('',#1588);
#579=VERTEX_POINT('',#1589);
#580=VERTEX_POINT('',#1593);
#581=VERTEX_POINT('',#1595);
#582=VERTEX_POINT('',#1599);
#583=VERTEX_POINT('',#1601);
#584=VERTEX_POINT('',#1605);
#585=VERTEX_POINT('',#1607);
#586=VERTEX_POINT('',#1611);
#587=VERTEX_POINT('',#1613);
#588=VERTEX_POINT('',#1617);
#589=VERTEX_POINT('',#1618);
#590=VERTEX_POINT('',#1623);
#591=VERTEX_POINT('',#1627);
#592=VERTEX_POINT('',#1631);
#593=VERTEX_POINT('',#1632);
#594=VERTEX_POINT('',#1637);
#595=VERTEX_POINT('',#1641);
#596=VERTEX_POINT('',#1645);
#597=VERTEX_POINT('',#1648);
#598=VERTEX_POINT('',#1651);
#599=VERTEX_POINT('',#1658);
#600=VERTEX_POINT('',#1662);
#601=VERTEX_POINT('',#1664);
#602=VERTEX_POINT('',#1668);
#603=VERTEX_POINT('',#1672);
#604=VERTEX_POINT('',#1679);
#605=VERTEX_POINT('',#1681);
#606=VERTEX_POINT('',#1685);
#607=VERTEX_POINT('',#1689);
#608=VERTEX_POINT('',#1696);
#609=VERTEX_POINT('',#1698);
#610=VERTEX_POINT('',#1702);
#611=VERTEX_POINT('',#1706);
#612=VERTEX_POINT('',#1720);
#613=VERTEX_POINT('',#1724);
#614=VERTEX_POINT('',#1728);
#615=VERTEX_POINT('',#1732);
#616=VERTEX_POINT('',#1736);
#617=VERTEX_POINT('',#1747);
#618=VERTEX_POINT('',#1753);
#619=VERTEX_POINT('',#1764);
#620=VERTEX_POINT('',#1770);
#621=VERTEX_POINT('',#1781);
#622=VERTEX_POINT('',#1797);
#623=VERTEX_POINT('',#1801);
#624=VERTEX_POINT('',#1805);
#625=VERTEX_POINT('',#1809);
#626=VERTEX_POINT('',#1813);
#627=VERTEX_POINT('',#1824);
#628=VERTEX_POINT('',#1830);
#629=VERTEX_POINT('',#1841);
#630=VERTEX_POINT('',#1847);
#631=VERTEX_POINT('',#1858);
#632=VERTEX_POINT('',#1874);
#633=VERTEX_POINT('',#1878);
#634=VERTEX_POINT('',#1882);
#635=VERTEX_POINT('',#1886);
#636=VERTEX_POINT('',#1890);
#637=VERTEX_POINT('',#1901);
#638=VERTEX_POINT('',#1907);
#639=VERTEX_POINT('',#1918);
#640=VERTEX_POINT('',#1924);
#641=VERTEX_POINT('',#1935);
#642=LINE('',#1483,#768);
#643=LINE('',#1486,#769);
#644=LINE('',#1488,#770);
#645=LINE('',#1490,#771);
#646=LINE('',#1491,#772);
#647=LINE('',#1494,#773);
#648=LINE('',#1496,#774);
#649=LINE('',#1498,#775);
#650=LINE('',#1507,#776);
#651=LINE('',#1510,#777);
#652=LINE('',#1512,#778);
#653=LINE('',#1514,#779);
#654=LINE('',#1515,#780);
#655=LINE('',#1518,#781);
#656=LINE('',#1520,#782);
#657=LINE('',#1522,#783);
#658=LINE('',#1523,#784);
#659=LINE('',#1526,#785);
#660=LINE('',#1528,#786);
#661=LINE('',#1530,#787);
#662=LINE('',#1531,#788);
#663=LINE('',#1538,#789);
#664=LINE('',#1544,#790);
#665=LINE('',#1550,#791);
#666=LINE('',#1556,#792);
#667=LINE('',#1558,#793);
#668=LINE('',#1559,#794);
#669=LINE('',#1566,#795);
#670=LINE('',#1572,#796);
#671=LINE('',#1578,#797);
#672=LINE('',#1584,#798);
#673=LINE('',#1586,#799);
#674=LINE('',#1587,#800);
#675=LINE('',#1594,#801);
#676=LINE('',#1600,#802);
#677=LINE('',#1606,#803);
#678=LINE('',#1612,#804);
#679=LINE('',#1614,#805);
#680=LINE('',#1616,#806);
#681=LINE('',#1619,#807);
#682=LINE('',#1620,#808);
#683=LINE('',#1622,#809);
#684=LINE('',#1624,#810);
#685=LINE('',#1626,#811);
#686=LINE('',#1628,#812);
#687=LINE('',#1630,#813);
#688=LINE('',#1633,#814);
#689=LINE('',#1634,#815);
#690=LINE('',#1636,#816);
#691=LINE('',#1638,#817);
#692=LINE('',#1640,#818);
#693=LINE('',#1642,#819);
#694=LINE('',#1653,#820);
#695=LINE('',#1655,#821);
#696=LINE('',#1661,#822);
#697=LINE('',#1663,#823);
#698=LINE('',#1665,#824);
#699=LINE('',#1667,#825);
#700=LINE('',#1669,#826);
#701=LINE('',#1671,#827);
#702=LINE('',#1673,#828);
#703=LINE('',#1675,#829);
#704=LINE('',#1678,#830);
#705=LINE('',#1680,#831);
#706=LINE('',#1682,#832);
#707=LINE('',#1684,#833);
#708=LINE('',#1686,#834);
#709=LINE('',#1688,#835);
#710=LINE('',#1690,#836);
#711=LINE('',#1692,#837);
#712=LINE('',#1695,#838);
#713=LINE('',#1697,#839);
#714=LINE('',#1699,#840);
#715=LINE('',#1701,#841);
#716=LINE('',#1703,#842);
#717=LINE('',#1705,#843);
#718=LINE('',#1707,#844);
#719=LINE('',#1709,#845);
#720=LINE('',#1719,#846);
#721=LINE('',#1725,#847);
#722=LINE('',#1727,#848);
#723=LINE('',#1729,#849);
#724=LINE('',#1731,#850);
#725=LINE('',#1733,#851);
#726=LINE('',#1735,#852);
#727=LINE('',#1737,#853);
#728=LINE('',#1746,#854);
#729=LINE('',#1752,#855);
#730=LINE('',#1754,#856);
#731=LINE('',#1763,#857);
#732=LINE('',#1769,#858);
#733=LINE('',#1771,#859);
#734=LINE('',#1780,#860);
#735=LINE('',#1786,#861);
#736=LINE('',#1796,#862);
#737=LINE('',#1802,#863);
#738=LINE('',#1804,#864);
#739=LINE('',#1806,#865);
#740=LINE('',#1808,#866);
#741=LINE('',#1810,#867);
#742=LINE('',#1812,#868);
#743=LINE('',#1814,#869);
#744=LINE('',#1823,#870);
#745=LINE('',#1829,#871);
#746=LINE('',#1831,#872);
#747=LINE('',#1840,#873);
#748=LINE('',#1846,#874);
#749=LINE('',#1848,#875);
#750=LINE('',#1857,#876);
#751=LINE('',#1863,#877);
#752=LINE('',#1873,#878);
#753=LINE('',#1879,#879);
#754=LINE('',#1881,#880);
#755=LINE('',#1883,#881);
#756=LINE('',#1885,#882);
#757=LINE('',#1887,#883);
#758=LINE('',#1889,#884);
#759=LINE('',#1891,#885);
#760=LINE('',#1900,#886);
#761=LINE('',#1906,#887);
#762=LINE('',#1908,#888);
#763=LINE('',#1917,#889);
#764=LINE('',#1923,#890);
#765=LINE('',#1925,#891);
#766=LINE('',#1934,#892);
#767=LINE('',#1940,#893);
#768=VECTOR('',#1241,1.);
#769=VECTOR('',#1242,1.);
#770=VECTOR('',#1243,1.);
#771=VECTOR('',#1244,1.);
#772=VECTOR('',#1245,1.);
#773=VECTOR('',#1246,1.);
#774=VECTOR('',#1247,1.);
#775=VECTOR('',#1248,1.);
#776=VECTOR('',#1257,1.);
#777=VECTOR('',#1258,1.);
#778=VECTOR('',#1259,1.);
#779=VECTOR('',#1260,1.);
#780=VECTOR('',#1261,1.);
#781=VECTOR('',#1262,1.);
#782=VECTOR('',#1263,1.);
#783=VECTOR('',#1264,1.);
#784=VECTOR('',#1265,1.);
#785=VECTOR('',#1266,1.);
#786=VECTOR('',#1267,1.);
#787=VECTOR('',#1268,1.);
#788=VECTOR('',#1269,1.);
#789=VECTOR('',#1270,1.);
#790=VECTOR('',#1271,1.);
#791=VECTOR('',#1272,1.);
#792=VECTOR('',#1273,1.);
#793=VECTOR('',#1274,1.);
#794=VECTOR('',#1275,1.);
#795=VECTOR('',#1276,1.);
#796=VECTOR('',#1277,1.);
#797=VECTOR('',#1278,1.);
#798=VECTOR('',#1279,1.);
#799=VECTOR('',#1280,1.);
#800=VECTOR('',#1281,1.);
#801=VECTOR('',#1282,1.);
#802=VECTOR('',#1283,1.);
#803=VECTOR('',#1284,1.);
#804=VECTOR('',#1285,1.);
#805=VECTOR('',#1286,1.);
#806=VECTOR('',#1289,1.);
#807=VECTOR('',#1290,1.);
#808=VECTOR('',#1291,1.);
#809=VECTOR('',#1294,1.);
#810=VECTOR('',#1295,1.);
#811=VECTOR('',#1298,1.);
#812=VECTOR('',#1299,1.);
#813=VECTOR('',#1302,1.);
#814=VECTOR('',#1303,1.);
#815=VECTOR('',#1304,1.);
#816=VECTOR('',#1307,1.);
#817=VECTOR('',#1308,1.);
#818=VECTOR('',#1311,1.);
#819=VECTOR('',#1312,1.);
#820=VECTOR('',#1327,1.);
#821=VECTOR('',#1330,1.);
#822=VECTOR('',#1339,1.);
#823=VECTOR('',#1340,1.);
#824=VECTOR('',#1341,1.);
#825=VECTOR('',#1344,1.);
#826=VECTOR('',#1345,1.);
#827=VECTOR('',#1348,1.);
#828=VECTOR('',#1349,1.);
#829=VECTOR('',#1352,1.);
#830=VECTOR('',#1357,1.);
#831=VECTOR('',#1358,1.);
#832=VECTOR('',#1359,1.);
#833=VECTOR('',#1362,1.);
#834=VECTOR('',#1363,1.);
#835=VECTOR('',#1366,1.);
#836=VECTOR('',#1367,1.);
#837=VECTOR('',#1370,1.);
#838=VECTOR('',#1375,1.);
#839=VECTOR('',#1376,1.);
#840=VECTOR('',#1377,1.);
#841=VECTOR('',#1380,1.);
#842=VECTOR('',#1381,1.);
#843=VECTOR('',#1384,1.);
#844=VECTOR('',#1385,1.);
#845=VECTOR('',#1388,1.);
#846=VECTOR('',#1391,1.);
#847=VECTOR('',#1392,1.);
#848=VECTOR('',#1395,1.);
#849=VECTOR('',#1396,1.);
#850=VECTOR('',#1399,1.);
#851=VECTOR('',#1400,1.);
#852=VECTOR('',#1403,1.);
#853=VECTOR('',#1404,1.);
#854=VECTOR('',#1405,1.);
#855=VECTOR('',#1408,1.);
#856=VECTOR('',#1409,1.);
#857=VECTOR('',#1410,1.);
#858=VECTOR('',#1413,1.);
#859=VECTOR('',#1414,1.);
#860=VECTOR('',#1415,1.);
#861=VECTOR('',#1418,1.);
#862=VECTOR('',#1421,1.);
#863=VECTOR('',#1422,1.);
#864=VECTOR('',#1425,1.);
#865=VECTOR('',#1426,1.);
#866=VECTOR('',#1429,1.);
#867=VECTOR('',#1430,1.);
#868=VECTOR('',#1433,1.);
#869=VECTOR('',#1434,1.);
#870=VECTOR('',#1435,1.);
#871=VECTOR('',#1438,1.);
#872=VECTOR('',#1439,1.);
#873=VECTOR('',#1440,1.);
#874=VECTOR('',#1443,1.);
#875=VECTOR('',#1444,1.);
#876=VECTOR('',#1445,1.);
#877=VECTOR('',#1448,1.);
#878=VECTOR('',#1451,1.);
#879=VECTOR('',#1452,1.);
#880=VECTOR('',#1455,1.);
#881=VECTOR('',#1456,1.);
#882=VECTOR('',#1459,1.);
#883=VECTOR('',#1460,1.);
#884=VECTOR('',#1463,1.);
#885=VECTOR('',#1464,1.);
#886=VECTOR('',#1465,1.);
#887=VECTOR('',#1468,1.);
#888=VECTOR('',#1469,1.);
#889=VECTOR('',#1470,1.);
#890=VECTOR('',#1473,1.);
#891=VECTOR('',#1474,1.);
#892=VECTOR('',#1475,1.);
#893=VECTOR('',#1478,1.);
#894=EDGE_LOOP('',(#60,#61,#62,#63));
#895=EDGE_LOOP('',(#64,#65,#66,#67));
#896=EDGE_LOOP('',(#68));
#897=EDGE_LOOP('',(#69));
#898=EDGE_LOOP('',(#70));
#899=EDGE_LOOP('',(#71));
#900=EDGE_LOOP('',(#72,#73,#74,#75));
#901=EDGE_LOOP('',(#76,#77,#78,#79));
#902=EDGE_LOOP('',(#80,#81,#82,#83));
#903=EDGE_LOOP('',(#84,#85,#86,#87,#88,#89,#90,#91,#92,#93));
#904=EDGE_LOOP('',(#94,#95,#96,#97,#98,#99,#100,#101,#102,#103));
#905=EDGE_LOOP('',(#104,#105,#106,#107,#108,#109,#110,#111,#112,#113));
#906=EDGE_LOOP('',(#114,#115,#116,#117));
#907=EDGE_LOOP('',(#118,#119,#120,#121));
#908=EDGE_LOOP('',(#122,#123,#124,#125));
#909=EDGE_LOOP('',(#126,#127,#128,#129));
#910=EDGE_LOOP('',(#130,#131,#132,#133));
#911=EDGE_LOOP('',(#134,#135,#136,#137));
#912=EDGE_LOOP('',(#138));
#913=EDGE_LOOP('',(#139));
#914=EDGE_LOOP('',(#140));
#915=EDGE_LOOP('',(#141));
#916=EDGE_LOOP('',(#142));
#917=EDGE_LOOP('',(#143));
#918=EDGE_LOOP('',(#144,#145,#146,#147));
#919=EDGE_LOOP('',(#148,#149,#150,#151));
#920=EDGE_LOOP('',(#152));
#921=EDGE_LOOP('',(#153));
#922=EDGE_LOOP('',(#154,#155,#156,#157));
#923=EDGE_LOOP('',(#158,#159,#160,#161));
#924=EDGE_LOOP('',(#162));
#925=EDGE_LOOP('',(#163));
#926=EDGE_LOOP('',(#164));
#927=EDGE_LOOP('',(#165));
#928=EDGE_LOOP('',(#166,#167,#168,#169));
#929=EDGE_LOOP('',(#170,#171,#172,#173));
#930=EDGE_LOOP('',(#174,#175,#176,#177));
#931=EDGE_LOOP('',(#178,#179,#180,#181));
#932=EDGE_LOOP('',(#182,#183,#184,#185));
#933=EDGE_LOOP('',(#186,#187,#188,#189));
#934=EDGE_LOOP('',(#190,#191,#192,#193));
#935=EDGE_LOOP('',(#194,#195,#196,#197));
#936=EDGE_LOOP('',(#198,#199,#200,#201));
#937=EDGE_LOOP('',(#202,#203,#204,#205));
#938=EDGE_LOOP('',(#206,#207,#208,#209));
#939=EDGE_LOOP('',(#210,#211,#212,#213));
#940=EDGE_LOOP('',(#214,#215,#216,#217));
#941=EDGE_LOOP('',(#218,#219,#220,#221));
#942=EDGE_LOOP('',(#222,#223,#224,#225));
#943=EDGE_LOOP('',(#226,#227,#228,#229));
#944=EDGE_LOOP('',(#230,#231,#232,#233));
#945=EDGE_LOOP('',(#234,#235,#236,#237));
#946=EDGE_LOOP('',(#238,#239,#240,#241));
#947=EDGE_LOOP('',(#242,#243,#244,#245));
#948=EDGE_LOOP('',(#246,#247,#248,#249));
#949=EDGE_LOOP('',(#250,#251,#252,#253));
#950=EDGE_LOOP('',(#254,#255,#256,#257));
#951=EDGE_LOOP('',(#258,#259,#260,#261));
#952=EDGE_LOOP('',(#262,#263,#264,#265));
#953=EDGE_LOOP('',(#266,#267,#268,#269,#270,#271,#272,#273,#274,#275));
#954=EDGE_LOOP('',(#276,#277,#278,#279));
#955=EDGE_LOOP('',(#280,#281,#282,#283));
#956=EDGE_LOOP('',(#284,#285,#286,#287));
#957=EDGE_LOOP('',(#288,#289,#290,#291));
#958=EDGE_LOOP('',(#292,#293,#294,#295));
#959=EDGE_LOOP('',(#296,#297,#298,#299));
#960=EDGE_LOOP('',(#300,#301,#302,#303));
#961=EDGE_LOOP('',(#304,#305,#306,#307));
#962=EDGE_LOOP('',(#308,#309,#310,#311));
#963=EDGE_LOOP('',(#312,#313,#314,#315));
#964=EDGE_LOOP('',(#316,#317,#318,#319,#320,#321,#322,#323,#324,#325));
#965=EDGE_LOOP('',(#326,#327,#328,#329));
#966=EDGE_LOOP('',(#330,#331,#332,#333));
#967=EDGE_LOOP('',(#334,#335,#336,#337));
#968=EDGE_LOOP('',(#338,#339,#340,#341));
#969=EDGE_LOOP('',(#342,#343,#344,#345));
#970=EDGE_LOOP('',(#346,#347,#348,#349));
#971=EDGE_LOOP('',(#350,#351,#352,#353));
#972=EDGE_LOOP('',(#354,#355,#356,#357));
#973=EDGE_LOOP('',(#358,#359,#360,#361));
#974=EDGE_LOOP('',(#362,#363,#364,#365));
#975=EDGE_LOOP('',(#366,#367,#368,#369,#370,#371,#372,#373,#374,#375));
#976=FACE_BOUND('',#894,.T.);
#977=FACE_BOUND('',#895,.T.);
#978=FACE_BOUND('',#896,.T.);
#979=FACE_BOUND('',#897,.T.);
#980=FACE_BOUND('',#898,.T.);
#981=FACE_BOUND('',#899,.T.);
#982=FACE_BOUND('',#900,.T.);
#983=FACE_BOUND('',#901,.T.);
#984=FACE_BOUND('',#902,.T.);
#985=FACE_BOUND('',#903,.T.);
#986=FACE_BOUND('',#904,.T.);
#987=FACE_BOUND('',#905,.T.);
#988=FACE_BOUND('',#906,.T.);
#989=FACE_BOUND('',#907,.T.);
#990=FACE_BOUND('',#908,.T.);
#991=FACE_BOUND('',#909,.T.);
#992=FACE_BOUND('',#910,.T.);
#993=FACE_BOUND('',#911,.T.);
#994=FACE_BOUND('',#912,.T.);
#995=FACE_BOUND('',#913,.T.);
#996=FACE_BOUND('',#914,.T.);
#997=FACE_BOUND('',#915,.T.);
#998=FACE_BOUND('',#916,.T.);
#999=FACE_BOUND('',#917,.T.);
#1000=FACE_BOUND('',#918,.T.);
#1001=FACE_BOUND('',#919,.T.);
#1002=FACE_BOUND('',#920,.T.);
#1003=FACE_BOUND('',#921,.T.);
#1004=FACE_BOUND('',#922,.T.);
#1005=FACE_BOUND('',#923,.T.);
#1006=FACE_BOUND('',#924,.T.);
#1007=FACE_BOUND('',#925,.T.);
#1008=FACE_BOUND('',#926,.T.);
#1009=FACE_BOUND('',#927,.T.);
#1010=FACE_BOUND('',#928,.T.);
#1011=FACE_BOUND('',#929,.T.);
#1012=FACE_BOUND('',#930,.T.);
#1013=FACE_BOUND('',#931,.T.);
#1014=FACE_BOUND('',#932,.T.);
#1015=FACE_BOUND('',#933,.T.);
#1016=FACE_BOUND('',#934,.T.);
#1017=FACE_BOUND('',#935,.T.);
#1018=FACE_BOUND('',#936,.T.);
#1019=FACE_BOUND('',#937,.T.);
#1020=FACE_BOUND('',#938,.T.);
#1021=FACE_BOUND('',#939,.T.);
#1022=FACE_BOUND('',#940,.T.);
#1023=FACE_BOUND('',#941,.T.);
#1024=FACE_BOUND('',#942,.T.);
#1025=FACE_BOUND('',#943,.T.);
#1026=FACE_BOUND('',#944,.T.);
#1027=FACE_BOUND('',#945,.T.);
#1028=FACE_BOUND('',#946,.T.);
#1029=FACE_BOUND('',#947,.T.);
#1030=FACE_BOUND('',#948,.T.);
#1031=FACE_BOUND('',#949,.T.);
#1032=FACE_BOUND('',#950,.T.);
#1033=FACE_BOUND('',#951,.T.);
#1034=FACE_BOUND('',#952,.T.);
#1035=FACE_BOUND('',#953,.T.);
#1036=FACE_BOUND('',#954,.T.);
#1037=FACE_BOUND('',#955,.T.);
#1038=FACE_BOUND('',#956,.T.);
#1039=FACE_BOUND('',#957,.T.);
#1040=FACE_BOUND('',#958,.T.);
#1041=FACE_BOUND('',#959,.T.);
#1042=FACE_BOUND('',#960,.T.);
#1043=FACE_BOUND('',#961,.T.);
#1044=FACE_BOUND('',#962,.T.);
#1045=FACE_BOUND('',#963,.T.);
#1046=FACE_BOUND('',#964,.T.);
#1047=FACE_BOUND('',#965,.T.);
#1048=FACE_BOUND('',#966,.T.);
#1049=FACE_BOUND('',#967,.T.);
#1050=FACE_BOUND('',#968,.T.);
#1051=FACE_BOUND('',#969,.T.);
#1052=FACE_BOUND('',#970,.T.);
#1053=FACE_BOUND('',#971,.T.);
#1054=FACE_BOUND('',#972,.T.);
#1055=FACE_BOUND('',#973,.T.);
#1056=FACE_BOUND('',#974,.T.);
#1057=FACE_BOUND('',#975,.T.);
#1058=PLANE('',#1179);
#1059=PLANE('',#1184);
#1060=PLANE('',#1185);
#1061=PLANE('',#1186);
#1062=PLANE('',#1187);
#1063=PLANE('',#1188);
#1064=PLANE('',#1189);
#1065=PLANE('',#1196);
#1066=PLANE('',#1197);
#1067=PLANE('',#1200);
#1068=PLANE('',#1201);
#1069=PLANE('',#1202);
#1070=PLANE('',#1203);
#1071=PLANE('',#1204);
#1072=PLANE('',#1205);
#1073=PLANE('',#1206);
#1074=PLANE('',#1207);
#1075=PLANE('',#1208);
#1076=PLANE('',#1209);
#1077=PLANE('',#1210);
#1078=PLANE('',#1211);
#1079=PLANE('',#1212);
#1080=PLANE('',#1213);
#1081=PLANE('',#1214);
#1082=PLANE('',#1215);
#1083=PLANE('',#1216);
#1084=PLANE('',#1217);
#1085=PLANE('',#1218);
#1086=PLANE('',#1219);
#1087=PLANE('',#1220);
#1088=PLANE('',#1221);
#1089=PLANE('',#1222);
#1090=PLANE('',#1223);
#1091=PLANE('',#1224);
#1092=PLANE('',#1225);
#1093=PLANE('',#1226);
#1094=PLANE('',#1227);
#1095=PLANE('',#1228);
#1096=PLANE('',#1229);
#1097=PLANE('',#1230);
#1098=PLANE('',#1231);
#1099=PLANE('',#1232);
#1100=PLANE('',#1233);
#1101=PLANE('',#1234);
#1102=PLANE('',#1235);
#1103=PLANE('',#1236);
#1104=ADVANCED_FACE('',(#976,#977,#978,#979,#980,#981,#982,#983,#984,#985,
#986,#987),#1058,.T.);
#1105=ADVANCED_FACE('',(#988),#1059,.T.);
#1106=ADVANCED_FACE('',(#989),#1060,.F.);
#1107=ADVANCED_FACE('',(#990),#1061,.F.);
#1108=ADVANCED_FACE('',(#991),#1062,.T.);
#1109=ADVANCED_FACE('',(#992),#1063,.F.);
#1110=ADVANCED_FACE('',(#993),#1064,.T.);
#1111=ADVANCED_FACE('',(#994,#995),#24,.F.);
#1112=ADVANCED_FACE('',(#996,#997),#25,.F.);
#1113=ADVANCED_FACE('',(#998,#999),#26,.F.);
#1114=ADVANCED_FACE('',(#1000),#1065,.T.);
#1115=ADVANCED_FACE('',(#1001),#1066,.T.);
#1116=ADVANCED_FACE('',(#1002,#1003),#27,.F.);
#1117=ADVANCED_FACE('',(#1004,#1005,#1006,#1007,#1008,#1009),#1067,.F.);
#1118=ADVANCED_FACE('',(#1010),#1068,.T.);
#1119=ADVANCED_FACE('',(#1011),#1069,.T.);
#1120=ADVANCED_FACE('',(#1012),#1070,.T.);
#1121=ADVANCED_FACE('',(#1013),#1071,.T.);
#1122=ADVANCED_FACE('',(#1014),#1072,.T.);
#1123=ADVANCED_FACE('',(#1015),#1073,.T.);
#1124=ADVANCED_FACE('',(#1016),#1074,.T.);
#1125=ADVANCED_FACE('',(#1017),#1075,.T.);
#1126=ADVANCED_FACE('',(#1018),#1076,.T.);
#1127=ADVANCED_FACE('',(#1019),#1077,.T.);
#1128=ADVANCED_FACE('',(#1020),#1078,.T.);
#1129=ADVANCED_FACE('',(#1021),#1079,.T.);
#1130=ADVANCED_FACE('',(#1022),#1080,.T.);
#1131=ADVANCED_FACE('',(#1023),#1081,.T.);
#1132=ADVANCED_FACE('',(#1024),#1082,.T.);
#1133=ADVANCED_FACE('',(#1025),#12,.T.);
#1134=ADVANCED_FACE('',(#1026),#1083,.T.);
#1135=ADVANCED_FACE('',(#1027),#1084,.T.);
#1136=ADVANCED_FACE('',(#1028),#1085,.T.);
#1137=ADVANCED_FACE('',(#1029),#13,.T.);
#1138=ADVANCED_FACE('',(#1030),#1086,.T.);
#1139=ADVANCED_FACE('',(#1031),#14,.T.);
#1140=ADVANCED_FACE('',(#1032),#1087,.T.);
#1141=ADVANCED_FACE('',(#1033),#15,.T.);
#1142=ADVANCED_FACE('',(#1034),#1088,.T.);
#1143=ADVANCED_FACE('',(#1035),#1089,.T.);
#1144=ADVANCED_FACE('',(#1036),#16,.T.);
#1145=ADVANCED_FACE('',(#1037),#1090,.T.);
#1146=ADVANCED_FACE('',(#1038),#1091,.T.);
#1147=ADVANCED_FACE('',(#1039),#1092,.T.);
#1148=ADVANCED_FACE('',(#1040),#17,.T.);
#1149=ADVANCED_FACE('',(#1041),#1093,.T.);
#1150=ADVANCED_FACE('',(#1042),#18,.T.);
#1151=ADVANCED_FACE('',(#1043),#1094,.T.);
#1152=ADVANCED_FACE('',(#1044),#19,.T.);
#1153=ADVANCED_FACE('',(#1045),#1095,.T.);
#1154=ADVANCED_FACE('',(#1046),#1096,.T.);
#1155=ADVANCED_FACE('',(#1047),#20,.T.);
#1156=ADVANCED_FACE('',(#1048),#1097,.T.);
#1157=ADVANCED_FACE('',(#1049),#1098,.T.);
#1158=ADVANCED_FACE('',(#1050),#1099,.T.);
#1159=ADVANCED_FACE('',(#1051),#21,.T.);
#1160=ADVANCED_FACE('',(#1052),#1100,.T.);
#1161=ADVANCED_FACE('',(#1053),#22,.T.);
#1162=ADVANCED_FACE('',(#1054),#1101,.T.);
#1163=ADVANCED_FACE('',(#1055),#23,.T.);
#1164=ADVANCED_FACE('',(#1056),#1102,.T.);
#1165=ADVANCED_FACE('',(#1057),#1103,.T.);
#1166=CLOSED_SHELL('',(#1104,#1105,#1106,#1107,#1108,#1109,#1110,#1111,
#1112,#1113,#1114,#1115,#1116,#1117,#1118,#1119,#1120,#1121,#1122,#1123,
#1124,#1125,#1126,#1127,#1128,#1129,#1130,#1131,#1132,#1133,#1134,#1135,
#1136,#1137,#1138,#1139,#1140,#1141,#1142,#1143,#1144,#1145,#1146,#1147,
#1148,#1149,#1150,#1151,#1152,#1153,#1154,#1155,#1156,#1157,#1158,#1159,
#1160,#1161,#1162,#1163,#1164,#1165));
#1167=STYLED_ITEM('',(#1168),#1175);
#1168=PRESENTATION_STYLE_ASSIGNMENT((#1169));
#1169=SURFACE_STYLE_USAGE(.BOTH.,#1170);
#1170=SURFACE_SIDE_STYLE('',(#1171));
#1171=SURFACE_STYLE_FILL_AREA(#1172);
#1172=FILL_AREA_STYLE('',(#1173));
#1173=FILL_AREA_STYLE_COLOUR('',#1174);
#1174=COLOUR_RGB('',0.0666666666666667,0.0666666666666667,0.0666666666666667);
#1175=MANIFOLD_SOLID_BREP('Part 2',#1166);
#1176=SHAPE_DEFINITION_REPRESENTATION(#1948,#1177);
#1177=SHAPE_REPRESENTATION('Part 2',(#1178),#1943);
#1178=AXIS2_PLACEMENT_3D('',#1481,#1237,#1238);
#1179=AXIS2_PLACEMENT_3D('',#1482,#1239,#1240);
#1180=AXIS2_PLACEMENT_3D('',#1499,#1249,#1250);
#1181=AXIS2_PLACEMENT_3D('',#1501,#1251,#1252);
#1182=AXIS2_PLACEMENT_3D('',#1503,#1253,#1254);
#1183=AXIS2_PLACEMENT_3D('',#1505,#1255,#1256);
#1184=AXIS2_PLACEMENT_3D('',#1615,#1287,#1288);
#1185=AXIS2_PLACEMENT_3D('',#1621,#1292,#1293);
#1186=AXIS2_PLACEMENT_3D('',#1625,#1296,#1297);
#1187=AXIS2_PLACEMENT_3D('',#1629,#1300,#1301);
#1188=AXIS2_PLACEMENT_3D('',#1635,#1305,#1306);
#1189=AXIS2_PLACEMENT_3D('',#1639,#1309,#1310);
#1190=AXIS2_PLACEMENT_3D('',#1643,#1313,#1314);
#1191=AXIS2_PLACEMENT_3D('',#1644,#1315,#1316);
#1192=AXIS2_PLACEMENT_3D('',#1646,#1317,#1318);
#1193=AXIS2_PLACEMENT_3D('',#1647,#1319,#1320);
#1194=AXIS2_PLACEMENT_3D('',#1649,#1321,#1322);
#1195=AXIS2_PLACEMENT_3D('',#1650,#1323,#1324);
#1196=AXIS2_PLACEMENT_3D('',#1652,#1325,#1326);
#1197=AXIS2_PLACEMENT_3D('',#1654,#1328,#1329);
#1198=AXIS2_PLACEMENT_3D('',#1656,#1331,#1332);
#1199=AXIS2_PLACEMENT_3D('',#1657,#1333,#1334);
#1200=AXIS2_PLACEMENT_3D('',#1659,#1335,#1336);
#1201=AXIS2_PLACEMENT_3D('',#1660,#1337,#1338);
#1202=AXIS2_PLACEMENT_3D('',#1666,#1342,#1343);
#1203=AXIS2_PLACEMENT_3D('',#1670,#1346,#1347);
#1204=AXIS2_PLACEMENT_3D('',#1674,#1350,#1351);
#1205=AXIS2_PLACEMENT_3D('',#1676,#1353,#1354);
#1206=AXIS2_PLACEMENT_3D('',#1677,#1355,#1356);
#1207=AXIS2_PLACEMENT_3D('',#1683,#1360,#1361);
#1208=AXIS2_PLACEMENT_3D('',#1687,#1364,#1365);
#1209=AXIS2_PLACEMENT_3D('',#1691,#1368,#1369);
#1210=AXIS2_PLACEMENT_3D('',#1693,#1371,#1372);
#1211=AXIS2_PLACEMENT_3D('',#1694,#1373,#1374);
#1212=AXIS2_PLACEMENT_3D('',#1700,#1378,#1379);
#1213=AXIS2_PLACEMENT_3D('',#1704,#1382,#1383);
#1214=AXIS2_PLACEMENT_3D('',#1708,#1386,#1387);
#1215=AXIS2_PLACEMENT_3D('',#1710,#1389,#1390);
#1216=AXIS2_PLACEMENT_3D('',#1726,#1393,#1394);
#1217=AXIS2_PLACEMENT_3D('',#1730,#1397,#1398);
#1218=AXIS2_PLACEMENT_3D('',#1734,#1401,#1402);
#1219=AXIS2_PLACEMENT_3D('',#1751,#1406,#1407);
#1220=AXIS2_PLACEMENT_3D('',#1768,#1411,#1412);
#1221=AXIS2_PLACEMENT_3D('',#1785,#1416,#1417);
#1222=AXIS2_PLACEMENT_3D('',#1787,#1419,#1420);
#1223=AXIS2_PLACEMENT_3D('',#1803,#1423,#1424);
#1224=AXIS2_PLACEMENT_3D('',#1807,#1427,#1428);
#1225=AXIS2_PLACEMENT_3D('',#1811,#1431,#1432);
#1226=AXIS2_PLACEMENT_3D('',#1828,#1436,#1437);
#1227=AXIS2_PLACEMENT_3D('',#1845,#1441,#1442);
#1228=AXIS2_PLACEMENT_3D('',#1862,#1446,#1447);
#1229=AXIS2_PLACEMENT_3D('',#1864,#1449,#1450);
#1230=AXIS2_PLACEMENT_3D('',#1880,#1453,#1454);
#1231=AXIS2_PLACEMENT_3D('',#1884,#1457,#1458);
#1232=AXIS2_PLACEMENT_3D('',#1888,#1461,#1462);
#1233=AXIS2_PLACEMENT_3D('',#1905,#1466,#1467);
#1234=AXIS2_PLACEMENT_3D('',#1922,#1471,#1472);
#1235=AXIS2_PLACEMENT_3D('',#1939,#1476,#1477);
#1236=AXIS2_PLACEMENT_3D('',#1941,#1479,#1480);
#1237=DIRECTION('',(0.,0.,1.));
#1238=DIRECTION('',(1.,0.,0.));
#1239=DIRECTION('',(0.,0.,1.));
#1240=DIRECTION('',(1.,0.,0.));
#1241=DIRECTION('',(1.,0.,0.));
#1242=DIRECTION('',(0.,-1.,0.));
#1243=DIRECTION('',(-1.,0.,0.));
#1244=DIRECTION('',(0.,-1.,0.));
#1245=DIRECTION('',(0.,-1.,0.));
#1246=DIRECTION('',(1.,0.,0.));
#1247=DIRECTION('',(0.,-1.,0.));
#1248=DIRECTION('',(1.,0.,0.));
#1249=DIRECTION('',(0.,0.,1.));
#1250=DIRECTION('',(1.,0.,0.));
#1251=DIRECTION('',(0.,0.,1.));
#1252=DIRECTION('',(1.,0.,0.));
#1253=DIRECTION('',(0.,0.,1.));
#1254=DIRECTION('',(1.,0.,0.));
#1255=DIRECTION('',(0.,0.,1.));
#1256=DIRECTION('',(1.,0.,0.));
#1257=DIRECTION('',(-1.,0.,0.));
#1258=DIRECTION('',(0.,1.,0.));
#1259=DIRECTION('',(1.,0.,0.));
#1260=DIRECTION('',(0.,-1.,0.));
#1261=DIRECTION('',(-1.,0.,0.));
#1262=DIRECTION('',(0.,1.,0.));
#1263=DIRECTION('',(1.,0.,0.));
#1264=DIRECTION('',(0.,-1.,0.));
#1265=DIRECTION('',(-1.,0.,0.));
#1266=DIRECTION('',(0.,1.,0.));
#1267=DIRECTION('',(1.,0.,0.));
#1268=DIRECTION('',(0.,-1.,0.));
#1269=DIRECTION('',(0.,1.,0.));
#1270=DIRECTION('',(0.,1.,0.));
#1271=DIRECTION('',(1.,0.,0.));
#1272=DIRECTION('',(0.,-1.,0.));
#1273=DIRECTION('',(0.,-1.,0.));
#1274=DIRECTION('',(-1.,0.,0.));
#1275=DIRECTION('',(0.,-1.,0.));
#1276=DIRECTION('',(0.,-1.,0.));
#1277=DIRECTION('',(-1.,0.,0.));
#1278=DIRECTION('',(0.,1.,0.));
#1279=DIRECTION('',(0.,1.,0.));
#1280=DIRECTION('',(1.,0.,0.));
#1281=DIRECTION('',(1.,0.,0.));
#1282=DIRECTION('',(1.,0.,0.));
#1283=DIRECTION('',(0.,-1.,0.));
#1284=DIRECTION('',(-1.,0.,0.));
#1285=DIRECTION('',(-1.,0.,0.));
#1286=DIRECTION('',(0.,1.,0.));
#1287=DIRECTION('',(1.,0.,0.));
#1288=DIRECTION('',(0.,0.,-1.));
#1289=DIRECTION('',(0.,-1.,0.));
#1290=DIRECTION('',(0.,0.,-1.));
#1291=DIRECTION('',(0.,0.,-1.));
#1292=DIRECTION('',(0.,1.,0.));
#1293=DIRECTION('',(0.,0.,1.));
#1294=DIRECTION('',(1.,0.,0.));
#1295=DIRECTION('',(0.,0.,-1.));
#1296=DIRECTION('',(1.,0.,0.));
#1297=DIRECTION('',(0.,0.,-1.));
#1298=DIRECTION('',(0.,-1.,0.));
#1299=DIRECTION('',(0.,0.,-1.));
#1300=DIRECTION('',(0.,1.,0.));
#1301=DIRECTION('',(0.,0.,1.));
#1302=DIRECTION('',(1.,0.,0.));
#1303=DIRECTION('',(0.,0.,-1.));
#1304=DIRECTION('',(0.,0.,-1.));
#1305=DIRECTION('',(1.,0.,0.));
#1306=DIRECTION('',(0.,0.,-1.));
#1307=DIRECTION('',(0.,-1.,0.));
#1308=DIRECTION('',(0.,0.,-1.));
#1309=DIRECTION('',(0.,-1.,0.));
#1310=DIRECTION('',(0.,0.,-1.));
#1311=DIRECTION('',(-1.,0.,0.));
#1312=DIRECTION('',(0.,0.,-1.));
#1313=DIRECTION('',(0.,0.,-1.));
#1314=DIRECTION('',(-1.,0.,0.));
#1315=DIRECTION('',(0.,0.,1.));
#1316=DIRECTION('',(1.,0.,0.));
#1317=DIRECTION('',(0.,0.,-1.));
#1318=DIRECTION('',(-1.,0.,0.));
#1319=DIRECTION('',(0.,0.,1.));
#1320=DIRECTION('',(1.,0.,0.));
#1321=DIRECTION('',(0.,0.,-1.));
#1322=DIRECTION('',(-1.,0.,0.));
#1323=DIRECTION('',(0.,0.,1.));
#1324=DIRECTION('',(1.,0.,0.));
#1325=DIRECTION('',(0.,1.,0.));
#1326=DIRECTION('',(0.,0.,1.));
#1327=DIRECTION('',(1.,0.,0.));
#1328=DIRECTION('',(1.,0.,0.));
#1329=DIRECTION('',(0.,0.,-1.));
#1330=DIRECTION('',(0.,-1.,0.));
#1331=DIRECTION('',(0.,0.,-1.));
#1332=DIRECTION('',(-1.,0.,0.));
#1333=DIRECTION('',(0.,0.,1.));
#1334=DIRECTION('',(1.,0.,0.));
#1335=DIRECTION('',(0.,0.,1.));
#1336=DIRECTION('',(1.,0.,0.));
#1337=DIRECTION('',(1.,0.,0.));
#1338=DIRECTION('',(0.,0.,-1.));
#1339=DIRECTION('',(0.,0.,1.));
#1340=DIRECTION('',(0.,1.,0.));
#1341=DIRECTION('',(0.,0.,1.));
#1342=DIRECTION('',(0.,1.,0.));
#1343=DIRECTION('',(0.,0.,1.));
#1344=DIRECTION('',(0.,0.,1.));
#1345=DIRECTION('',(-1.,0.,0.));
#1346=DIRECTION('',(-1.,0.,0.));
#1347=DIRECTION('',(0.,0.,1.));
#1348=DIRECTION('',(0.,0.,1.));
#1349=DIRECTION('',(0.,-1.,0.));
#1350=DIRECTION('',(0.,-1.,0.));
#1351=DIRECTION('',(0.,0.,-1.));
#1352=DIRECTION('',(1.,0.,0.));
#1353=DIRECTION('',(0.,0.,1.));
#1354=DIRECTION('',(1.,0.,0.));
#1355=DIRECTION('',(1.,0.,0.));
#1356=DIRECTION('',(0.,0.,-1.));
#1357=DIRECTION('',(0.,0.,1.));
#1358=DIRECTION('',(0.,1.,0.));
#1359=DIRECTION('',(0.,0.,1.));
#1360=DIRECTION('',(0.,1.,0.));
#1361=DIRECTION('',(0.,0.,1.));
#1362=DIRECTION('',(0.,0.,1.));
#1363=DIRECTION('',(-1.,0.,0.));
#1364=DIRECTION('',(-1.,0.,0.));
#1365=DIRECTION('',(0.,0.,1.));
#1366=DIRECTION('',(0.,0.,1.));
#1367=DIRECTION('',(0.,-1.,0.));
#1368=DIRECTION('',(0.,-1.,0.));
#1369=DIRECTION('',(0.,0.,-1.));
#1370=DIRECTION('',(1.,0.,0.));
#1371=DIRECTION('',(0.,0.,1.));
#1372=DIRECTION('',(1.,0.,0.));
#1373=DIRECTION('',(1.,0.,0.));
#1374=DIRECTION('',(0.,0.,-1.));
#1375=DIRECTION('',(0.,0.,1.));
#1376=DIRECTION('',(0.,1.,0.));
#1377=DIRECTION('',(0.,0.,1.));
#1378=DIRECTION('',(0.,1.,0.));
#1379=DIRECTION('',(0.,0.,1.));
#1380=DIRECTION('',(0.,0.,1.));
#1381=DIRECTION('',(-1.,0.,0.));
#1382=DIRECTION('',(-1.,0.,0.));
#1383=DIRECTION('',(0.,0.,1.));
#1384=DIRECTION('',(0.,0.,1.));
#1385=DIRECTION('',(0.,-1.,0.));
#1386=DIRECTION('',(0.,-1.,0.));
#1387=DIRECTION('',(0.,0.,-1.));
#1388=DIRECTION('',(1.,0.,0.));
#1389=DIRECTION('',(0.,0.,1.));
#1390=DIRECTION('',(1.,0.,0.));
#1391=DIRECTION('',(0.,0.,1.));
#1392=DIRECTION('',(0.,0.,1.));
#1393=DIRECTION('',(1.,0.,0.));
#1394=DIRECTION('',(0.,0.,-1.));
#1395=DIRECTION('',(0.,0.,1.));
#1396=DIRECTION('',(0.,1.,0.));
#1397=DIRECTION('',(0.,1.,0.));
#1398=DIRECTION('',(0.,0.,1.));
#1399=DIRECTION('',(0.,0.,1.));
#1400=DIRECTION('',(-1.,0.,0.));
#1401=DIRECTION('',(-1.,0.,0.));
#1402=DIRECTION('',(0.,0.,1.));
#1403=DIRECTION('',(0.,0.,1.));
#1404=DIRECTION('',(0.,-1.,0.));
#1405=DIRECTION('',(0.,0.,1.));
#1406=DIRECTION('',(-1.,0.,0.));
#1407=DIRECTION('',(0.,0.,1.));
#1408=DIRECTION('',(0.,0.,1.));
#1409=DIRECTION('',(0.,-1.,0.));
#1410=DIRECTION('',(0.,0.,1.));
#1411=DIRECTION('',(0.,-1.,0.));
#1412=DIRECTION('',(0.,0.,-1.));
#1413=DIRECTION('',(0.,0.,1.));
#1414=DIRECTION('',(1.,0.,0.));
#1415=DIRECTION('',(0.,0.,1.));
#1416=DIRECTION('',(1.,0.,0.));
#1417=DIRECTION('',(0.,0.,-1.));
#1418=DIRECTION('',(0.,1.,0.));
#1419=DIRECTION('',(0.,0.,1.));
#1420=DIRECTION('',(1.,0.,0.));
#1421=DIRECTION('',(0.,0.,1.));
#1422=DIRECTION('',(0.,0.,1.));
#1423=DIRECTION('',(-1.,0.,0.));
#1424=DIRECTION('',(0.,0.,1.));
#1425=DIRECTION('',(0.,0.,1.));
#1426=DIRECTION('',(0.,-1.,0.));
#1427=DIRECTION('',(0.,-1.,0.));
#1428=DIRECTION('',(0.,0.,-1.));
#1429=DIRECTION('',(0.,0.,1.));
#1430=DIRECTION('',(1.,0.,0.));
#1431=DIRECTION('',(1.,0.,0.));
#1432=DIRECTION('',(0.,0.,-1.));
#1433=DIRECTION('',(0.,0.,1.));
#1434=DIRECTION('',(0.,1.,0.));
#1435=DIRECTION('',(0.,0.,1.));
#1436=DIRECTION('',(1.,0.,0.));
#1437=DIRECTION('',(0.,0.,-1.));
#1438=DIRECTION('',(0.,0.,1.));
#1439=DIRECTION('',(0.,1.,0.));
#1440=DIRECTION('',(0.,0.,1.));
#1441=DIRECTION('',(0.,1.,0.));
#1442=DIRECTION('',(0.,0.,1.));
#1443=DIRECTION('',(0.,0.,1.));
#1444=DIRECTION('',(-1.,0.,0.));
#1445=DIRECTION('',(0.,0.,1.));
#1446=DIRECTION('',(-1.,0.,0.));
#1447=DIRECTION('',(0.,0.,1.));
#1448=DIRECTION('',(0.,-1.,0.));
#1449=DIRECTION('',(0.,0.,1.));
#1450=DIRECTION('',(1.,0.,0.));
#1451=DIRECTION('',(0.,0.,1.));
#1452=DIRECTION('',(0.,0.,1.));
#1453=DIRECTION('',(0.,-1.,0.));
#1454=DIRECTION('',(0.,0.,-1.));
#1455=DIRECTION('',(0.,0.,1.));
#1456=DIRECTION('',(1.,0.,0.));
#1457=DIRECTION('',(1.,0.,0.));
#1458=DIRECTION('',(0.,0.,-1.));
#1459=DIRECTION('',(0.,0.,1.));
#1460=DIRECTION('',(0.,1.,0.));
#1461=DIRECTION('',(0.,1.,0.));
#1462=DIRECTION('',(0.,0.,1.));
#1463=DIRECTION('',(0.,0.,1.));
#1464=DIRECTION('',(-1.,0.,0.));
#1465=DIRECTION('',(0.,0.,1.));
#1466=DIRECTION('',(0.,1.,0.));
#1467=DIRECTION('',(0.,0.,1.));
#1468=DIRECTION('',(0.,0.,1.));
#1469=DIRECTION('',(-1.,0.,0.));
#1470=DIRECTION('',(0.,0.,1.));
#1471=DIRECTION('',(-1.,0.,0.));
#1472=DIRECTION('',(0.,0.,1.));
#1473=DIRECTION('',(0.,0.,1.));
#1474=DIRECTION('',(0.,-1.,0.));
#1475=DIRECTION('',(0.,0.,1.));
#1476=DIRECTION('',(0.,-1.,0.));
#1477=DIRECTION('',(0.,0.,-1.));
#1478=DIRECTION('',(1.,0.,0.));
#1479=DIRECTION('',(0.,0.,1.));
#1480=DIRECTION('',(1.,0.,0.));
#1481=CARTESIAN_POINT('',(0.,0.,0.));
#1482=CARTESIAN_POINT('',(0.000332913385827006,0.00789026319963304,0.025));
#1483=CARTESIAN_POINT('',(0.000332913385827006,0.045432086614173,0.025));
#1484=CARTESIAN_POINT('',(-0.043167086614173,0.045432086614173,0.025));
#1485=CARTESIAN_POINT('',(0.043832913385827,0.045432086614173,0.025));
#1486=CARTESIAN_POINT('',(-0.043167086614173,0.00789026319963303,0.025));
#1487=CARTESIAN_POINT('',(-0.043167086614173,-0.0296515602149069,0.025));
#1488=CARTESIAN_POINT('',(0.000332913385827006,-0.0296515602149069,0.025));
#1489=CARTESIAN_POINT('',(0.043832913385827,-0.029651560214907,0.025));
#1490=CARTESIAN_POINT('',(0.043832913385827,0.00789026319963303,0.025));
#1491=CARTESIAN_POINT('',(-0.0376501782788469,0.006724988419993,0.025));
#1492=CARTESIAN_POINT('',(-0.0376501782788469,0.016074905514698,0.025));
#1493=CARTESIAN_POINT('',(-0.0376501782788469,-0.002624928674712,0.025));
#1494=CARTESIAN_POINT('',(0.000275083981572388,0.016074905514698,0.025));
#1495=CARTESIAN_POINT('',(0.0382003462419917,0.016074905514698,0.025));
#1496=CARTESIAN_POINT('',(0.0382003462419917,0.006724988419993,0.025));
#1497=CARTESIAN_POINT('',(0.0382003462419917,-0.002624928674712,0.025));
#1498=CARTESIAN_POINT('',(0.000275083981572388,-0.002624928674712,0.025));
#1499=CARTESIAN_POINT('',(0.036832913385827,0.041932086614173,0.025));
#1500=CARTESIAN_POINT('',(0.039132913385827,0.041932086614173,0.025));
#1501=CARTESIAN_POINT('',(0.026332913385827,-0.0175489773238427,0.025));
#1502=CARTESIAN_POINT('',(0.028632913385827,-0.0175489773238427,0.025));
#1503=CARTESIAN_POINT('',(-0.036167086614173,-0.0175489773238427,0.025));
#1504=CARTESIAN_POINT('',(-0.033867086614173,-0.0175489773238427,0.025));
#1505=CARTESIAN_POINT('',(-0.036167086614173,0.041932086614173,0.025));
#1506=CARTESIAN_POINT('',(-0.033867086614173,0.041932086614173,0.025));
#1507=CARTESIAN_POINT('',(-0.0283442164289238,-0.00510625,0.025));
#1508=CARTESIAN_POINT('',(-0.0269935219844794,-0.00510625,0.025));
#1509=CARTESIAN_POINT('',(-0.0296949108733683,-0.00510625,0.025));
#1510=CARTESIAN_POINT('',(-0.0296949108733683,-0.00490572916666667,0.025));
#1511=CARTESIAN_POINT('',(-0.0296949108733683,-0.00470520833333334,0.025));
#1512=CARTESIAN_POINT('',(-0.0283442164289238,-0.00470520833333334,0.025));
#1513=CARTESIAN_POINT('',(-0.0269935219844794,-0.00470520833333334,0.025));
#1514=CARTESIAN_POINT('',(-0.0269935219844794,-0.00490572916666667,0.025));
#1515=CARTESIAN_POINT('',(-0.0283442164289238,-0.00703767361111112,0.025));
#1516=CARTESIAN_POINT('',(-0.0269935219844794,-0.00703767361111112,0.025));
#1517=CARTESIAN_POINT('',(-0.0296949108733683,-0.00703767361111112,0.025));
#1518=CARTESIAN_POINT('',(-0.0296949108733683,-0.00683845486111112,0.025));
#1519=CARTESIAN_POINT('',(-0.0296949108733683,-0.00663923611111112,0.025));
#1520=CARTESIAN_POINT('',(-0.0283442164289238,-0.00663923611111112,0.025));
#1521=CARTESIAN_POINT('',(-0.0269935219844794,-0.00663923611111112,0.025));
#1522=CARTESIAN_POINT('',(-0.0269935219844794,-0.00683845486111112,0.025));
#1523=CARTESIAN_POINT('',(-0.0283442164289238,-0.00607239583333334,0.025));
#1524=CARTESIAN_POINT('',(-0.0269935219844794,-0.00607239583333334,0.025));
#1525=CARTESIAN_POINT('',(-0.0296949108733683,-0.00607239583333334,0.025));
#1526=CARTESIAN_POINT('',(-0.0296949108733683,-0.00587144097222223,0.025));
#1527=CARTESIAN_POINT('',(-0.0296949108733683,-0.00567048611111112,0.025));
#1528=CARTESIAN_POINT('',(-0.0283442164289238,-0.00567048611111112,0.025));
#1529=CARTESIAN_POINT('',(-0.0269935219844794,-0.00567048611111112,0.025));
#1530=CARTESIAN_POINT('',(-0.0269935219844794,-0.00587144097222223,0.025));
#1531=CARTESIAN_POINT('',(-0.00915934885056339,-0.00653001808318264,0.025));
#1532=CARTESIAN_POINT('',(-0.00915934885056339,-0.00820687160940326,0.025));
#1533=CARTESIAN_POINT('',(-0.00915934885056339,-0.00485316455696203,0.025));
#1534=CARTESIAN_POINT('',(-0.00915934885056339,-0.00485316455696203,0.025));
#1535=CARTESIAN_POINT('',(-0.00939045192470444,-0.005049547920434,0.025));
#1536=CARTESIAN_POINT('',(-0.00982770328094314,-0.00525678119349006,0.025));
#1537=CARTESIAN_POINT('',(-0.00982770328094314,-0.00525678119349006,0.025));
#1538=CARTESIAN_POINT('',(-0.00982770328094314,-0.00513471971066908,0.025));
#1539=CARTESIAN_POINT('',(-0.00982770328094314,-0.0050126582278481,0.025));
#1540=CARTESIAN_POINT('',(-0.00982770328094314,-0.0050126582278481,0.025));
#1541=CARTESIAN_POINT('',(-0.00931884252144947,-0.00458191681735986,0.025));
#1542=CARTESIAN_POINT('',(-0.00907471955580751,-0.00409692585895117,0.025));
#1543=CARTESIAN_POINT('',(-0.00907471955580751,-0.00409692585895117,0.025));
#1544=CARTESIAN_POINT('',(-0.00901396006213663,-0.00409692585895117,0.025));
#1545=CARTESIAN_POINT('',(-0.00895320056846574,-0.00409692585895117,0.025));
#1546=CARTESIAN_POINT('',(-0.00895320056846574,-0.00409692585895117,0.025));
#1547=CARTESIAN_POINT('',(-0.00870907760282379,-0.00458191681735986,0.025));
#1548=CARTESIAN_POINT('',(-0.00820021684333012,-0.0050126582278481,0.025));
#1549=CARTESIAN_POINT('',(-0.00820021684333012,-0.0050126582278481,0.025));
#1550=CARTESIAN_POINT('',(-0.00820021684333012,-0.00513471971066908,0.025));
#1551=CARTESIAN_POINT('',(-0.00820021684333012,-0.00525678119349006,0.025));
#1552=CARTESIAN_POINT('',(-0.00820021684333012,-0.00525678119349006,0.025));
#1553=CARTESIAN_POINT('',(-0.00863746819956882,-0.005049547920434,0.025));
#1554=CARTESIAN_POINT('',(-0.00886857127370986,-0.00485316455696203,0.025));
#1555=CARTESIAN_POINT('',(-0.00886857127370986,-0.00485316455696203,0.025));
#1556=CARTESIAN_POINT('',(-0.00886857127370986,-0.00653001808318264,0.025));
#1557=CARTESIAN_POINT('',(-0.00886857127370986,-0.00820687160940326,0.025));
#1558=CARTESIAN_POINT('',(-0.00901396006213663,-0.00820687160940326,0.025));
#1559=CARTESIAN_POINT('',(0.0101814287262901,-0.00577377938517179,0.025));
#1560=CARTESIAN_POINT('',(0.0101814287262901,-0.00409692585895117,0.025));
#1561=CARTESIAN_POINT('',(0.0101814287262901,-0.00745063291139241,0.025));
#1562=CARTESIAN_POINT('',(0.0101814287262901,-0.00745063291139241,0.025));
#1563=CARTESIAN_POINT('',(0.0104125318004312,-0.00725750452079566,0.025));
#1564=CARTESIAN_POINT('',(0.0108497831566699,-0.00704701627486438,0.025));
#1565=CARTESIAN_POINT('',(0.0108497831566699,-0.00704701627486438,0.025));
#1566=CARTESIAN_POINT('',(0.0108497831566699,-0.00716907775768536,0.025));
#1567=CARTESIAN_POINT('',(0.0108497831566699,-0.00729113924050633,0.025));
#1568=CARTESIAN_POINT('',(0.0108497831566699,-0.00729113924050633,0.025));
#1569=CARTESIAN_POINT('',(0.0103409223971762,-0.00772188065099458,0.025));
#1570=CARTESIAN_POINT('',(0.0100967994315343,-0.00820687160940326,0.025));
#1571=CARTESIAN_POINT('',(0.0100967994315343,-0.00820687160940326,0.025));
#1572=CARTESIAN_POINT('',(0.0100360399378634,-0.00820687160940326,0.025));
#1573=CARTESIAN_POINT('',(0.0099752804441925,-0.00820687160940326,0.025));
#1574=CARTESIAN_POINT('',(0.0099752804441925,-0.00820687160940326,0.025));
#1575=CARTESIAN_POINT('',(0.00973115747855054,-0.00772188065099458,0.025));
#1576=CARTESIAN_POINT('',(0.00922229671905687,-0.00729113924050633,0.025));
#1577=CARTESIAN_POINT('',(0.00922229671905687,-0.00729113924050633,0.025));
#1578=CARTESIAN_POINT('',(0.00922229671905687,-0.00716907775768536,0.025));
#1579=CARTESIAN_POINT('',(0.00922229671905687,-0.00704701627486438,0.025));
#1580=CARTESIAN_POINT('',(0.00922229671905687,-0.00704701627486438,0.025));
#1581=CARTESIAN_POINT('',(0.00965954807529557,-0.00725750452079566,0.025));
#1582=CARTESIAN_POINT('',(0.00989065114943662,-0.00745063291139241,0.025));
#1583=CARTESIAN_POINT('',(0.00989065114943662,-0.00745063291139241,0.025));
#1584=CARTESIAN_POINT('',(0.00989065114943662,-0.00577377938517179,0.025));
#1585=CARTESIAN_POINT('',(0.00989065114943662,-0.00409692585895117,0.025));
#1586=CARTESIAN_POINT('',(0.0100360399378634,-0.00409692585895117,0.025));
#1587=CARTESIAN_POINT('',(0.0289553061405206,-0.005801171875,0.025));
#1588=CARTESIAN_POINT('',(0.0272783313141318,-0.005801171875,0.025));
#1589=CARTESIAN_POINT('',(0.0306322809669095,-0.005801171875,0.025));
#1590=CARTESIAN_POINT('',(0.0306322809669095,-0.005801171875,0.025));
#1591=CARTESIAN_POINT('',(0.0304391386057984,-0.00557113715277778,0.025));
#1592=CARTESIAN_POINT('',(0.0302286351335762,-0.00513276909722222,0.025));
#1593=CARTESIAN_POINT('',(0.0302286351335762,-0.00513276909722222,0.025));
#1594=CARTESIAN_POINT('',(0.0303507054460762,-0.00513276909722222,0.025));
#1595=CARTESIAN_POINT('',(0.0304727757585762,-0.00513276909722222,0.025));
#1596=CARTESIAN_POINT('',(0.0304727757585762,-0.00513276909722222,0.025));
#1597=CARTESIAN_POINT('',(0.0309035483280206,-0.00564166666666667,0.025));
#1598=CARTESIAN_POINT('',(0.0313885743696873,-0.00588580729166667,0.025));
#1599=CARTESIAN_POINT('',(0.0313885743696873,-0.00588580729166666,0.025));
#1600=CARTESIAN_POINT('',(0.0313885743696873,-0.00594711371527778,0.025));
#1601=CARTESIAN_POINT('',(0.0313885743696873,-0.00600842013888889,0.025));
#1602=CARTESIAN_POINT('',(0.0313885743696873,-0.00600842013888889,0.025));
#1603=CARTESIAN_POINT('',(0.0309035483280206,-0.00625256076388889,0.025));
#1604=CARTESIAN_POINT('',(0.0304727757585762,-0.00676037326388889,0.025));
#1605=CARTESIAN_POINT('',(0.0304727757585762,-0.00676037326388889,0.025));
#1606=CARTESIAN_POINT('',(0.0303507054460762,-0.00676037326388889,0.025));
#1607=CARTESIAN_POINT('',(0.0302286351335762,-0.00676037326388889,0.025));
#1608=CARTESIAN_POINT('',(0.0302286351335762,-0.00676037326388889,0.025));
#1609=CARTESIAN_POINT('',(0.0304391386057984,-0.00632309027777778,0.025));
#1610=CARTESIAN_POINT('',(0.0306322809669095,-0.00609305555555555,0.025));
#1611=CARTESIAN_POINT('',(0.0306322809669095,-0.00609305555555555,0.025));
#1612=CARTESIAN_POINT('',(0.0289553061405206,-0.00609305555555555,0.025));
#1613=CARTESIAN_POINT('',(0.0272783313141318,-0.00609305555555555,0.025));
#1614=CARTESIAN_POINT('',(0.0272783313141318,-0.00594711371527778,0.025));
#1615=CARTESIAN_POINT('',(-0.0376501782788469,0.006724988419993,0.025));
#1616=CARTESIAN_POINT('',(-0.0376501782788469,0.006724988419993,0.022));
#1617=CARTESIAN_POINT('',(-0.0376501782788469,0.016074905514698,0.022));
#1618=CARTESIAN_POINT('',(-0.0376501782788469,-0.002624928674712,0.022));
#1619=CARTESIAN_POINT('',(-0.0376501782788469,0.016074905514698,0.025));
#1620=CARTESIAN_POINT('',(-0.0376501782788469,-0.002624928674712,0.025));
#1621=CARTESIAN_POINT('',(0.000275083981572388,0.016074905514698,0.025));
#1622=CARTESIAN_POINT('',(0.000275083981572388,0.016074905514698,0.022));
#1623=CARTESIAN_POINT('',(0.0382003462419917,0.016074905514698,0.022));
#1624=CARTESIAN_POINT('',(0.0382003462419917,0.016074905514698,0.025));
#1625=CARTESIAN_POINT('',(0.0382003462419917,0.006724988419993,0.025));
#1626=CARTESIAN_POINT('',(0.0382003462419917,0.006724988419993,0.022));
#1627=CARTESIAN_POINT('',(0.0382003462419917,-0.002624928674712,0.022));
#1628=CARTESIAN_POINT('',(0.0382003462419917,-0.002624928674712,0.025));
#1629=CARTESIAN_POINT('',(0.000332913385827006,0.045432086614173,0.025));
#1630=CARTESIAN_POINT('',(0.000332913385827006,0.045432086614173,0.022));
#1631=CARTESIAN_POINT('',(-0.043167086614173,0.045432086614173,0.022));
#1632=CARTESIAN_POINT('',(0.043832913385827,0.045432086614173,0.022));
#1633=CARTESIAN_POINT('',(-0.043167086614173,0.045432086614173,0.025));
#1634=CARTESIAN_POINT('',(0.043832913385827,0.045432086614173,0.025));
#1635=CARTESIAN_POINT('',(-0.043167086614173,0.00789026319963303,0.025));
#1636=CARTESIAN_POINT('',(-0.043167086614173,0.00789026319963303,0.022));
#1637=CARTESIAN_POINT('',(-0.043167086614173,-0.0296515602149069,0.022));
#1638=CARTESIAN_POINT('',(-0.043167086614173,-0.0296515602149069,0.025));
#1639=CARTESIAN_POINT('',(0.000332913385827006,-0.0296515602149069,0.025));
#1640=CARTESIAN_POINT('',(0.000332913385827006,-0.0296515602149069,0.022));
#1641=CARTESIAN_POINT('',(0.043832913385827,-0.029651560214907,0.022));
#1642=CARTESIAN_POINT('',(0.043832913385827,-0.029651560214907,0.025));
#1643=CARTESIAN_POINT('',(-0.036167086614173,-0.0175489773238427,0.025));
#1644=CARTESIAN_POINT('',(-0.036167086614173,-0.0175489773238427,0.022));
#1645=CARTESIAN_POINT('',(-0.033867086614173,-0.0175489773238427,0.022));
#1646=CARTESIAN_POINT('',(0.026332913385827,-0.0175489773238427,0.025));
#1647=CARTESIAN_POINT('',(0.026332913385827,-0.0175489773238427,0.022));
#1648=CARTESIAN_POINT('',(0.028632913385827,-0.0175489773238427,0.022));
#1649=CARTESIAN_POINT('',(0.036832913385827,0.041932086614173,0.025));
#1650=CARTESIAN_POINT('',(0.036832913385827,0.041932086614173,0.022));
#1651=CARTESIAN_POINT('',(0.039132913385827,0.041932086614173,0.022));
#1652=CARTESIAN_POINT('',(0.000275083981572388,-0.002624928674712,0.025));
#1653=CARTESIAN_POINT('',(0.000275083981572388,-0.002624928674712,0.022));
#1654=CARTESIAN_POINT('',(0.043832913385827,0.00789026319963303,0.025));
#1655=CARTESIAN_POINT('',(0.043832913385827,0.00789026319963303,0.022));
#1656=CARTESIAN_POINT('',(-0.036167086614173,0.041932086614173,0.025));
#1657=CARTESIAN_POINT('',(-0.036167086614173,0.041932086614173,0.022));
#1658=CARTESIAN_POINT('',(-0.033867086614173,0.041932086614173,0.022));
#1659=CARTESIAN_POINT('',(0.000332913385827006,0.00789026319963304,0.022));
#1660=CARTESIAN_POINT('',(-0.0296949108733683,-0.00490572916666667,0.024));
#1661=CARTESIAN_POINT('',(-0.0296949108733683,-0.00510625,0.024));
#1662=CARTESIAN_POINT('',(-0.0296949108733683,-0.00510625,0.024));
#1663=CARTESIAN_POINT('',(-0.0296949108733683,-0.00490572916666667,0.024));
#1664=CARTESIAN_POINT('',(-0.0296949108733683,-0.00470520833333334,0.024));
#1665=CARTESIAN_POINT('',(-0.0296949108733683,-0.00470520833333334,0.024));
#1666=CARTESIAN_POINT('',(-0.0283442164289238,-0.00510625,0.024));
#1667=CARTESIAN_POINT('',(-0.0269935219844794,-0.00510625,0.024));
#1668=CARTESIAN_POINT('',(-0.0269935219844794,-0.00510625,0.024));
#1669=CARTESIAN_POINT('',(-0.0283442164289238,-0.00510625,0.024));
#1670=CARTESIAN_POINT('',(-0.0269935219844794,-0.00490572916666667,0.024));
#1671=CARTESIAN_POINT('',(-0.0269935219844794,-0.00470520833333334,0.024));
#1672=CARTESIAN_POINT('',(-0.0269935219844794,-0.00470520833333334,0.024));
#1673=CARTESIAN_POINT('',(-0.0269935219844794,-0.00490572916666667,0.024));
#1674=CARTESIAN_POINT('',(-0.0283442164289238,-0.00470520833333334,0.024));
#1675=CARTESIAN_POINT('',(-0.0283442164289238,-0.00470520833333334,0.024));
#1676=CARTESIAN_POINT('',(0.00027505440440951,-0.00441589317512838,0.024));
#1677=CARTESIAN_POINT('',(-0.0296949108733683,-0.00683845486111112,0.024));
#1678=CARTESIAN_POINT('',(-0.0296949108733683,-0.00703767361111112,0.024));
#1679=CARTESIAN_POINT('',(-0.0296949108733683,-0.00703767361111112,0.024));
#1680=CARTESIAN_POINT('',(-0.0296949108733683,-0.00683845486111112,0.024));
#1681=CARTESIAN_POINT('',(-0.0296949108733683,-0.00663923611111112,0.024));
#1682=CARTESIAN_POINT('',(-0.0296949108733683,-0.00663923611111112,0.024));
#1683=CARTESIAN_POINT('',(-0.0283442164289238,-0.00703767361111112,0.024));
#1684=CARTESIAN_POINT('',(-0.0269935219844794,-0.00703767361111112,0.024));
#1685=CARTESIAN_POINT('',(-0.0269935219844794,-0.00703767361111112,0.024));
#1686=CARTESIAN_POINT('',(-0.0283442164289238,-0.00703767361111112,0.024));
#1687=CARTESIAN_POINT('',(-0.0269935219844794,-0.00683845486111112,0.024));
#1688=CARTESIAN_POINT('',(-0.0269935219844794,-0.00663923611111112,0.024));
#1689=CARTESIAN_POINT('',(-0.0269935219844794,-0.00663923611111112,0.024));
#1690=CARTESIAN_POINT('',(-0.0269935219844794,-0.00683845486111112,0.024));
#1691=CARTESIAN_POINT('',(-0.0283442164289238,-0.00663923611111112,0.024));
#1692=CARTESIAN_POINT('',(-0.0283442164289238,-0.00663923611111112,0.024));
#1693=CARTESIAN_POINT('',(0.00027505440440951,-0.00441589317512838,0.024));
#1694=CARTESIAN_POINT('',(-0.0296949108733683,-0.00587144097222223,0.024));
#1695=CARTESIAN_POINT('',(-0.0296949108733683,-0.00607239583333334,0.024));
#1696=CARTESIAN_POINT('',(-0.0296949108733683,-0.00607239583333334,0.024));
#1697=CARTESIAN_POINT('',(-0.0296949108733683,-0.00587144097222223,0.024));
#1698=CARTESIAN_POINT('',(-0.0296949108733683,-0.00567048611111112,0.024));
#1699=CARTESIAN_POINT('',(-0.0296949108733683,-0.00567048611111112,0.024));
#1700=CARTESIAN_POINT('',(-0.0283442164289238,-0.00607239583333334,0.024));
#1701=CARTESIAN_POINT('',(-0.0269935219844794,-0.00607239583333334,0.024));
#1702=CARTESIAN_POINT('',(-0.0269935219844794,-0.00607239583333334,0.024));
#1703=CARTESIAN_POINT('',(-0.0283442164289238,-0.00607239583333334,0.024));
#1704=CARTESIAN_POINT('',(-0.0269935219844794,-0.00587144097222223,0.024));
#1705=CARTESIAN_POINT('',(-0.0269935219844794,-0.00567048611111112,0.024));
#1706=CARTESIAN_POINT('',(-0.0269935219844794,-0.00567048611111112,0.024));
#1707=CARTESIAN_POINT('',(-0.0269935219844794,-0.00587144097222223,0.024));
#1708=CARTESIAN_POINT('',(-0.0283442164289238,-0.00567048611111112,0.024));
#1709=CARTESIAN_POINT('',(-0.0283442164289238,-0.00567048611111112,0.024));
#1710=CARTESIAN_POINT('',(0.00027505440440951,-0.00441589317512838,0.024));
#1711=CARTESIAN_POINT('',(-0.00915934885056339,-0.00485316455696203,0.024));
#1712=CARTESIAN_POINT('',(-0.00915934885056339,-0.00485316455696203,0.025));
#1713=CARTESIAN_POINT('',(-0.00931341756665743,-0.00498408679927668,0.024));
#1714=CARTESIAN_POINT('',(-0.00931341756665743,-0.00498408679927668,0.025));
#1715=CARTESIAN_POINT('',(-0.00953620237678401,-0.00511862567811935,0.024));
#1716=CARTESIAN_POINT('',(-0.00953620237678401,-0.00511862567811935,0.025));
#1717=CARTESIAN_POINT('',(-0.00982770328094314,-0.00525678119349006,0.024));
#1718=CARTESIAN_POINT('',(-0.00982770328094314,-0.00525678119349006,0.025));
#1719=CARTESIAN_POINT('',(-0.00915934885056339,-0.00485316455696203,0.024));
#1720=CARTESIAN_POINT('',(-0.00915934885056339,-0.00485316455696203,0.024));
#1721=CARTESIAN_POINT('',(-0.00915934885056339,-0.00485316455696203,0.024));
#1722=CARTESIAN_POINT('',(-0.00939045192470444,-0.005049547920434,0.024));
#1723=CARTESIAN_POINT('',(-0.00982770328094314,-0.00525678119349006,0.024));
#1724=CARTESIAN_POINT('',(-0.00982770328094314,-0.00525678119349006,0.024));
#1725=CARTESIAN_POINT('',(-0.00982770328094314,-0.00525678119349006,0.024));
#1726=CARTESIAN_POINT('',(-0.00915934885056339,-0.00653001808318264,0.024));
#1727=CARTESIAN_POINT('',(-0.00915934885056339,-0.00820687160940326,0.024));
#1728=CARTESIAN_POINT('',(-0.00915934885056339,-0.00820687160940326,0.024));
#1729=CARTESIAN_POINT('',(-0.00915934885056339,-0.00653001808318264,0.024));
#1730=CARTESIAN_POINT('',(-0.00901396006213663,-0.00820687160940326,0.024));
#1731=CARTESIAN_POINT('',(-0.00886857127370986,-0.00820687160940326,0.024));
#1732=CARTESIAN_POINT('',(-0.00886857127370986,-0.00820687160940326,0.024));
#1733=CARTESIAN_POINT('',(-0.00901396006213663,-0.00820687160940326,0.024));
#1734=CARTESIAN_POINT('',(-0.00886857127370986,-0.00653001808318264,0.024));
#1735=CARTESIAN_POINT('',(-0.00886857127370986,-0.00485316455696203,0.024));
#1736=CARTESIAN_POINT('',(-0.00886857127370986,-0.00485316455696203,0.024));
#1737=CARTESIAN_POINT('',(-0.00886857127370986,-0.00653001808318264,0.024));
#1738=CARTESIAN_POINT('',(-0.00820021684333012,-0.00525678119349006,0.024));
#1739=CARTESIAN_POINT('',(-0.00820021684333012,-0.00525678119349006,0.025));
#1740=CARTESIAN_POINT('',(-0.00849171774748925,-0.00511862567811935,0.024));
#1741=CARTESIAN_POINT('',(-0.00849171774748925,-0.00511862567811935,0.025));
#1742=CARTESIAN_POINT('',(-0.00871450255761583,-0.00498408679927668,0.024));
#1743=CARTESIAN_POINT('',(-0.00871450255761583,-0.00498408679927668,0.025));
#1744=CARTESIAN_POINT('',(-0.00886857127370986,-0.00485316455696203,0.024));
#1745=CARTESIAN_POINT('',(-0.00886857127370986,-0.00485316455696203,0.025));
#1746=CARTESIAN_POINT('',(-0.00820021684333012,-0.00525678119349006,0.024));
#1747=CARTESIAN_POINT('',(-0.00820021684333012,-0.00525678119349006,0.024));
#1748=CARTESIAN_POINT('',(-0.00820021684333012,-0.00525678119349006,0.024));
#1749=CARTESIAN_POINT('',(-0.00863746819956882,-0.005049547920434,0.024));
#1750=CARTESIAN_POINT('',(-0.00886857127370986,-0.00485316455696203,0.024));
#1751=CARTESIAN_POINT('',(-0.00820021684333012,-0.00513471971066908,0.024));
#1752=CARTESIAN_POINT('',(-0.00820021684333012,-0.0050126582278481,0.024));
#1753=CARTESIAN_POINT('',(-0.00820021684333012,-0.0050126582278481,0.024));
#1754=CARTESIAN_POINT('',(-0.00820021684333012,-0.00513471971066908,0.024));
#1755=CARTESIAN_POINT('',(-0.00895320056846574,-0.00409692585895117,0.024));
#1756=CARTESIAN_POINT('',(-0.00895320056846574,-0.00409692585895117,0.025));
#1757=CARTESIAN_POINT('',(-0.00879045192470444,-0.00442025316455697,0.024));
#1758=CARTESIAN_POINT('',(-0.00879045192470444,-0.00442025316455697,0.025));
#1759=CARTESIAN_POINT('',(-0.00853945734965923,-0.00472549728752261,0.024));
#1760=CARTESIAN_POINT('',(-0.00853945734965923,-0.00472549728752261,0.025));
#1761=CARTESIAN_POINT('',(-0.00820021684333012,-0.0050126582278481,0.024));
#1762=CARTESIAN_POINT('',(-0.00820021684333012,-0.0050126582278481,0.025));
#1763=CARTESIAN_POINT('',(-0.00895320056846574,-0.00409692585895117,0.024));
#1764=CARTESIAN_POINT('',(-0.00895320056846574,-0.00409692585895117,0.024));
#1765=CARTESIAN_POINT('',(-0.00895320056846574,-0.00409692585895117,0.024));
#1766=CARTESIAN_POINT('',(-0.00870907760282379,-0.00458191681735986,0.024));
#1767=CARTESIAN_POINT('',(-0.00820021684333012,-0.0050126582278481,0.024));
#1768=CARTESIAN_POINT('',(-0.00901396006213663,-0.00409692585895117,0.024));
#1769=CARTESIAN_POINT('',(-0.00907471955580751,-0.00409692585895117,0.024));
#1770=CARTESIAN_POINT('',(-0.00907471955580751,-0.00409692585895117,0.024));
#1771=CARTESIAN_POINT('',(-0.00901396006213663,-0.00409692585895117,0.024));
#1772=CARTESIAN_POINT('',(-0.00982770328094314,-0.0050126582278481,0.024));
#1773=CARTESIAN_POINT('',(-0.00982770328094314,-0.0050126582278481,0.025));
#1774=CARTESIAN_POINT('',(-0.00948846277461403,-0.00472549728752261,0.024));
#1775=CARTESIAN_POINT('',(-0.00948846277461403,-0.00472549728752261,0.025));
#1776=CARTESIAN_POINT('',(-0.00923746819956882,-0.00442025316455697,0.024));
#1777=CARTESIAN_POINT('',(-0.00923746819956882,-0.00442025316455697,0.025));
#1778=CARTESIAN_POINT('',(-0.00907471955580751,-0.00409692585895117,0.024));
#1779=CARTESIAN_POINT('',(-0.00907471955580751,-0.00409692585895117,0.025));
#1780=CARTESIAN_POINT('',(-0.00982770328094314,-0.0050126582278481,0.024));
#1781=CARTESIAN_POINT('',(-0.00982770328094314,-0.0050126582278481,0.024));
#1782=CARTESIAN_POINT('',(-0.00982770328094314,-0.0050126582278481,0.024));
#1783=CARTESIAN_POINT('',(-0.00931884252144947,-0.00458191681735986,0.024));
#1784=CARTESIAN_POINT('',(-0.00907471955580751,-0.00409692585895117,0.024));
#1785=CARTESIAN_POINT('',(-0.00982770328094314,-0.00513471971066908,0.024));
#1786=CARTESIAN_POINT('',(-0.00982770328094314,-0.00513471971066908,0.024));
#1787=CARTESIAN_POINT('',(0.00027505440440951,-0.00441589317512838,0.024));
#1788=CARTESIAN_POINT('',(0.0101814287262901,-0.00745063291139241,0.024));
#1789=CARTESIAN_POINT('',(0.0101814287262901,-0.00745063291139241,0.025));
#1790=CARTESIAN_POINT('',(0.0103354974423842,-0.00732188065099458,0.024));
#1791=CARTESIAN_POINT('',(0.0103354974423842,-0.00732188065099458,0.025));
#1792=CARTESIAN_POINT('',(0.0105582822525108,-0.0071873417721519,0.024));
#1793=CARTESIAN_POINT('',(0.0105582822525108,-0.0071873417721519,0.025));
#1794=CARTESIAN_POINT('',(0.0108497831566699,-0.00704701627486438,0.024));
#1795=CARTESIAN_POINT('',(0.0108497831566699,-0.00704701627486438,0.025));
#1796=CARTESIAN_POINT('',(0.0101814287262901,-0.00745063291139241,0.024));
#1797=CARTESIAN_POINT('',(0.0101814287262901,-0.00745063291139241,0.024));
#1798=CARTESIAN_POINT('',(0.0101814287262901,-0.00745063291139241,0.024));
#1799=CARTESIAN_POINT('',(0.0104125318004312,-0.00725750452079566,0.024));
#1800=CARTESIAN_POINT('',(0.0108497831566699,-0.00704701627486438,0.024));
#1801=CARTESIAN_POINT('',(0.0108497831566699,-0.00704701627486438,0.024));
#1802=CARTESIAN_POINT('',(0.0108497831566699,-0.00704701627486438,0.024));
#1803=CARTESIAN_POINT('',(0.0101814287262901,-0.00577377938517179,0.024));
#1804=CARTESIAN_POINT('',(0.0101814287262901,-0.00409692585895117,0.024));
#1805=CARTESIAN_POINT('',(0.0101814287262901,-0.00409692585895117,0.024));
#1806=CARTESIAN_POINT('',(0.0101814287262901,-0.00577377938517179,0.024));
#1807=CARTESIAN_POINT('',(0.0100360399378634,-0.00409692585895117,0.024));
#1808=CARTESIAN_POINT('',(0.00989065114943662,-0.00409692585895117,0.024));
#1809=CARTESIAN_POINT('',(0.00989065114943662,-0.00409692585895117,0.024));
#1810=CARTESIAN_POINT('',(0.0100360399378634,-0.00409692585895117,0.024));
#1811=CARTESIAN_POINT('',(0.00989065114943662,-0.00577377938517179,0.024));
#1812=CARTESIAN_POINT('',(0.00989065114943662,-0.00745063291139241,0.024));
#1813=CARTESIAN_POINT('',(0.00989065114943662,-0.00745063291139241,0.024));
#1814=CARTESIAN_POINT('',(0.00989065114943662,-0.00577377938517179,0.024));
#1815=CARTESIAN_POINT('',(0.00922229671905687,-0.00704701627486438,0.024));
#1816=CARTESIAN_POINT('',(0.00922229671905687,-0.00704701627486438,0.025));
#1817=CARTESIAN_POINT('',(0.009513797623216,-0.0071873417721519,0.024));
#1818=CARTESIAN_POINT('',(0.009513797623216,-0.0071873417721519,0.025));
#1819=CARTESIAN_POINT('',(0.00973658243334259,-0.00732188065099458,0.024));
#1820=CARTESIAN_POINT('',(0.00973658243334259,-0.00732188065099458,0.025));
#1821=CARTESIAN_POINT('',(0.00989065114943662,-0.00745063291139241,0.024));
#1822=CARTESIAN_POINT('',(0.00989065114943662,-0.00745063291139241,0.025));
#1823=CARTESIAN_POINT('',(0.00922229671905687,-0.00704701627486438,0.024));
#1824=CARTESIAN_POINT('',(0.00922229671905687,-0.00704701627486438,0.024));
#1825=CARTESIAN_POINT('',(0.00922229671905687,-0.00704701627486438,0.024));
#1826=CARTESIAN_POINT('',(0.00965954807529557,-0.00725750452079566,0.024));
#1827=CARTESIAN_POINT('',(0.00989065114943662,-0.00745063291139241,0.024));
#1828=CARTESIAN_POINT('',(0.00922229671905687,-0.00716907775768536,0.024));
#1829=CARTESIAN_POINT('',(0.00922229671905687,-0.00729113924050633,0.024));
#1830=CARTESIAN_POINT('',(0.00922229671905687,-0.00729113924050633,0.024));
#1831=CARTESIAN_POINT('',(0.00922229671905687,-0.00716907775768536,0.024));
#1832=CARTESIAN_POINT('',(0.0099752804441925,-0.00820687160940326,0.024));
#1833=CARTESIAN_POINT('',(0.0099752804441925,-0.00820687160940326,0.025));
#1834=CARTESIAN_POINT('',(0.00981253180043119,-0.00788354430379747,0.024));
#1835=CARTESIAN_POINT('',(0.00981253180043119,-0.00788354430379747,0.025));
#1836=CARTESIAN_POINT('',(0.00956153722538598,-0.00757830018083183,0.024));
#1837=CARTESIAN_POINT('',(0.00956153722538598,-0.00757830018083183,0.025));
#1838=CARTESIAN_POINT('',(0.00922229671905687,-0.00729113924050633,0.024));
#1839=CARTESIAN_POINT('',(0.00922229671905687,-0.00729113924050633,0.025));
#1840=CARTESIAN_POINT('',(0.0099752804441925,-0.00820687160940326,0.024));
#1841=CARTESIAN_POINT('',(0.0099752804441925,-0.00820687160940326,0.024));
#1842=CARTESIAN_POINT('',(0.0099752804441925,-0.00820687160940326,0.024));
#1843=CARTESIAN_POINT('',(0.00973115747855054,-0.00772188065099458,0.024));
#1844=CARTESIAN_POINT('',(0.00922229671905687,-0.00729113924050633,0.024));
#1845=CARTESIAN_POINT('',(0.0100360399378634,-0.00820687160940326,0.024));
#1846=CARTESIAN_POINT('',(0.0100967994315343,-0.00820687160940326,0.024));
#1847=CARTESIAN_POINT('',(0.0100967994315343,-0.00820687160940326,0.024));
#1848=CARTESIAN_POINT('',(0.0100360399378634,-0.00820687160940326,0.024));
#1849=CARTESIAN_POINT('',(0.0108497831566699,-0.00729113924050633,0.024));
#1850=CARTESIAN_POINT('',(0.0108497831566699,-0.00729113924050633,0.025));
#1851=CARTESIAN_POINT('',(0.0105105426503408,-0.00757830018083183,0.024));
#1852=CARTESIAN_POINT('',(0.0105105426503408,-0.00757830018083183,0.025));
#1853=CARTESIAN_POINT('',(0.0102595480752956,-0.00788354430379747,0.024));
#1854=CARTESIAN_POINT('',(0.0102595480752956,-0.00788354430379747,0.025));
#1855=CARTESIAN_POINT('',(0.0100967994315343,-0.00820687160940326,0.024));
#1856=CARTESIAN_POINT('',(0.0100967994315343,-0.00820687160940326,0.025));
#1857=CARTESIAN_POINT('',(0.0108497831566699,-0.00729113924050633,0.024));
#1858=CARTESIAN_POINT('',(0.0108497831566699,-0.00729113924050633,0.024));
#1859=CARTESIAN_POINT('',(0.0108497831566699,-0.00729113924050633,0.024));
#1860=CARTESIAN_POINT('',(0.0103409223971762,-0.00772188065099458,0.024));
#1861=CARTESIAN_POINT('',(0.0100967994315343,-0.00820687160940326,0.024));
#1862=CARTESIAN_POINT('',(0.0108497831566699,-0.00716907775768536,0.024));
#1863=CARTESIAN_POINT('',(0.0108497831566699,-0.00716907775768536,0.024));
#1864=CARTESIAN_POINT('',(0.00027505440440951,-0.00441589317512838,0.024));
#1865=CARTESIAN_POINT('',(0.0306322809669095,-0.005801171875,0.024));
#1866=CARTESIAN_POINT('',(0.0306322809669095,-0.005801171875,0.025));
#1867=CARTESIAN_POINT('',(0.0305035193928354,-0.00564781539351852,0.024));
#1868=CARTESIAN_POINT('',(0.0305035193928354,-0.00564781539351852,0.025));
#1869=CARTESIAN_POINT('',(0.0303689707817243,-0.00542501446759259,0.024));
#1870=CARTESIAN_POINT('',(0.0303689707817243,-0.00542501446759259,0.025));
#1871=CARTESIAN_POINT('',(0.0302286351335762,-0.00513276909722222,0.024));
#1872=CARTESIAN_POINT('',(0.0302286351335762,-0.00513276909722222,0.025));
#1873=CARTESIAN_POINT('',(0.0306322809669095,-0.005801171875,0.024));
#1874=CARTESIAN_POINT('',(0.0306322809669095,-0.005801171875,0.024));
#1875=CARTESIAN_POINT('',(0.0306322809669095,-0.005801171875,0.024));
#1876=CARTESIAN_POINT('',(0.0304391386057984,-0.00557113715277778,0.024));
#1877=CARTESIAN_POINT('',(0.0302286351335762,-0.00513276909722222,0.024));
#1878=CARTESIAN_POINT('',(0.0302286351335762,-0.00513276909722222,0.024));
#1879=CARTESIAN_POINT('',(0.0302286351335762,-0.00513276909722222,0.024));
#1880=CARTESIAN_POINT('',(0.0289553061405206,-0.005801171875,0.024));
#1881=CARTESIAN_POINT('',(0.0272783313141318,-0.005801171875,0.024));
#1882=CARTESIAN_POINT('',(0.0272783313141318,-0.005801171875,0.024));
#1883=CARTESIAN_POINT('',(0.0289553061405206,-0.005801171875,0.024));
#1884=CARTESIAN_POINT('',(0.0272783313141318,-0.00594711371527778,0.024));
#1885=CARTESIAN_POINT('',(0.0272783313141318,-0.00609305555555555,0.024));
#1886=CARTESIAN_POINT('',(0.0272783313141318,-0.00609305555555555,0.024));
#1887=CARTESIAN_POINT('',(0.0272783313141318,-0.00594711371527778,0.024));
#1888=CARTESIAN_POINT('',(0.0289553061405206,-0.00609305555555555,0.024));
#1889=CARTESIAN_POINT('',(0.0306322809669095,-0.00609305555555555,0.024));
#1890=CARTESIAN_POINT('',(0.0306322809669095,-0.00609305555555555,0.024));
#1891=CARTESIAN_POINT('',(0.0289553061405206,-0.00609305555555555,0.024));
#1892=CARTESIAN_POINT('',(0.0302286351335762,-0.00676037326388889,0.024));
#1893=CARTESIAN_POINT('',(0.0302286351335762,-0.00676037326388889,0.025));
#1894=CARTESIAN_POINT('',(0.0303689707817243,-0.00646885127314815,0.024));
#1895=CARTESIAN_POINT('',(0.0303689707817243,-0.00646885127314815,0.025));
#1896=CARTESIAN_POINT('',(0.0305035193928354,-0.00624641203703704,0.024));
#1897=CARTESIAN_POINT('',(0.0305035193928354,-0.00624641203703704,0.025));
#1898=CARTESIAN_POINT('',(0.0306322809669095,-0.00609305555555555,0.024));
#1899=CARTESIAN_POINT('',(0.0306322809669095,-0.00609305555555555,0.025));
#1900=CARTESIAN_POINT('',(0.0302286351335762,-0.00676037326388889,0.024));
#1901=CARTESIAN_POINT('',(0.0302286351335762,-0.00676037326388889,0.024));
#1902=CARTESIAN_POINT('',(0.0302286351335762,-0.00676037326388889,0.024));
#1903=CARTESIAN_POINT('',(0.0304391386057984,-0.00632309027777778,0.024));
#1904=CARTESIAN_POINT('',(0.0306322809669095,-0.00609305555555555,0.024));
#1905=CARTESIAN_POINT('',(0.0303507054460762,-0.00676037326388889,0.024));
#1906=CARTESIAN_POINT('',(0.0304727757585762,-0.00676037326388889,0.024));
#1907=CARTESIAN_POINT('',(0.0304727757585762,-0.00676037326388889,0.024));
#1908=CARTESIAN_POINT('',(0.0303507054460762,-0.00676037326388889,0.024));
#1909=CARTESIAN_POINT('',(0.0313885743696873,-0.00600842013888889,0.024));
#1910=CARTESIAN_POINT('',(0.0313885743696873,-0.00600842013888889,0.025));
#1911=CARTESIAN_POINT('',(0.0310652236752428,-0.00617118055555556,0.024));
#1912=CARTESIAN_POINT('',(0.0310652236752428,-0.00617118055555556,0.025));
#1913=CARTESIAN_POINT('',(0.0307599574715391,-0.00642183159722222,0.024));
#1914=CARTESIAN_POINT('',(0.0307599574715391,-0.00642183159722222,0.025));
#1915=CARTESIAN_POINT('',(0.0304727757585762,-0.00676037326388889,0.024));
#1916=CARTESIAN_POINT('',(0.0304727757585762,-0.00676037326388889,0.025));
#1917=CARTESIAN_POINT('',(0.0313885743696873,-0.00600842013888889,0.024));
#1918=CARTESIAN_POINT('',(0.0313885743696873,-0.00600842013888889,0.024));
#1919=CARTESIAN_POINT('',(0.0313885743696873,-0.00600842013888889,0.024));
#1920=CARTESIAN_POINT('',(0.0309035483280206,-0.00625256076388889,0.024));
#1921=CARTESIAN_POINT('',(0.0304727757585762,-0.00676037326388889,0.024));
#1922=CARTESIAN_POINT('',(0.0313885743696873,-0.00594711371527778,0.024));
#1923=CARTESIAN_POINT('',(0.0313885743696873,-0.00588580729166666,0.024));
#1924=CARTESIAN_POINT('',(0.0313885743696873,-0.00588580729166666,0.024));
#1925=CARTESIAN_POINT('',(0.0313885743696873,-0.00594711371527778,0.024));
#1926=CARTESIAN_POINT('',(0.0304727757585762,-0.00513276909722222,0.024));
#1927=CARTESIAN_POINT('',(0.0304727757585762,-0.00513276909722222,0.025));
#1928=CARTESIAN_POINT('',(0.0307599574715391,-0.00547203414351852,0.024));
#1929=CARTESIAN_POINT('',(0.0307599574715391,-0.00547203414351852,0.025));
#1930=CARTESIAN_POINT('',(0.0310652236752428,-0.005723046875,0.024));
#1931=CARTESIAN_POINT('',(0.0310652236752428,-0.005723046875,0.025));
#1932=CARTESIAN_POINT('',(0.0313885743696873,-0.00588580729166667,0.024));
#1933=CARTESIAN_POINT('',(0.0313885743696873,-0.00588580729166667,0.025));
#1934=CARTESIAN_POINT('',(0.0304727757585762,-0.00513276909722222,0.024));
#1935=CARTESIAN_POINT('',(0.0304727757585762,-0.00513276909722222,0.024));
#1936=CARTESIAN_POINT('',(0.0304727757585762,-0.00513276909722222,0.024));
#1937=CARTESIAN_POINT('',(0.0309035483280206,-0.00564166666666667,0.024));
#1938=CARTESIAN_POINT('',(0.0313885743696873,-0.00588580729166667,0.024));
#1939=CARTESIAN_POINT('',(0.0303507054460762,-0.00513276909722222,0.024));
#1940=CARTESIAN_POINT('',(0.0303507054460762,-0.00513276909722222,0.024));
#1941=CARTESIAN_POINT('',(0.00027505440440951,-0.00441589317512838,0.024));
#1942=MECHANICAL_DESIGN_GEOMETRIC_PRESENTATION_REPRESENTATION('',(#1167),
#1943);
#1943=(
GEOMETRIC_REPRESENTATION_CONTEXT(3)
GLOBAL_UNCERTAINTY_ASSIGNED_CONTEXT((#1944))
GLOBAL_UNIT_ASSIGNED_CONTEXT((#1947,#1946,#1945))
REPRESENTATION_CONTEXT('Part 2','TOP_LEVEL_ASSEMBLY_PART')
);
#1944=UNCERTAINTY_MEASURE_WITH_UNIT(LENGTH_MEASURE(2.E-5),#1947,
'DISTANCE_ACCURACY_VALUE','Maximum Tolerance applied to model');
#1945=(
NAMED_UNIT(*)
SI_UNIT($,.STERADIAN.)
SOLID_ANGLE_UNIT()
);
#1946=(
NAMED_UNIT(*)
PLANE_ANGLE_UNIT()
SI_UNIT($,.RADIAN.)
);
#1947=(
LENGTH_UNIT()
NAMED_UNIT(*)
SI_UNIT($,.METRE.)
);
#1948=PRODUCT_DEFINITION_SHAPE('','',#1949);
#1949=PRODUCT_DEFINITION('','',#1951,#1950);
#1950=PRODUCT_DEFINITION_CONTEXT('',#1957,'design');
#1951=PRODUCT_DEFINITION_FORMATION_WITH_SPECIFIED_SOURCE('','',#1953,
 .NOT_KNOWN.);
#1952=PRODUCT_RELATED_PRODUCT_CATEGORY('','',(#1953));
#1953=PRODUCT('Part 2','Part 2','Part 2',(#1955));
#1954=PRODUCT_CATEGORY('','');
#1955=PRODUCT_CONTEXT('',#1957,'mechanical');
#1956=APPLICATION_PROTOCOL_DEFINITION('international standard',
'ap242_managed_model_based_3d_engineering',2020,#1957);
#1957=APPLICATION_CONTEXT('managed model based 3d engineering');
ENDSEC;
END-ISO-10303-21;
